<svg width="129" height="156" viewBox="0 0 129 156" fill="none" xmlns="http://www.w3.org/2000/svg">
<path d="M37.241 136.918C27.5807 140.392 14.7853 147.941 3.96887 151.238C4.94695 148.219 6.22574 145.539 6.42625 143.921C7.79027 138.294 9.78197 133.802 11.6143 129.28C16.6978 116.736 20.0803 103.394 24.4678 90.562C30.1311 73.999 35.4204 57.0714 47.6523 44.1672C57.9634 33.2895 71.9766 27.867 84.6078 20.3538C92.2524 15.8068 101.143 11.3939 109.656 8.77374C114.061 7.41786 118.541 5.53741 122.871 3.90988C125.405 2.95703 126.545 1.75534 125.768 4.46588C124.764 7.97186 124.886 11.969 124.14 15.5648C122.915 21.476 121.195 27.2851 120.434 33.2858C119.228 42.7901 116.92 53.0928 113.8 62.1198C109.867 73.5013 106.066 85.4301 99.7406 95.7448C93.9298 105.22 82.6424 113.412 73.3223 119.1C61.8162 126.123 49.9794 132.337 37.241 136.918Z" fill="#FE488B" stroke="#FE488B" stroke-width="5" stroke-linecap="round"/>
</svg>
