<svg width="133" height="151" viewBox="0 0 133 151" fill="none" xmlns="http://www.w3.org/2000/svg">
<path d="M69.6964 27.9201C70.6642 39.4665 72.1921 50.893 73.5248 62.393C76.8745 65.0867 80.5504 65.0867 83.5744 65.0867C90.3447 65.0867 96.6911 66.6586 103.461 66.7022C108.905 66.7372 113.988 68.1263 119.36 68.737C122.624 69.1081 125.78 69.739 128.772 71.3105C134 74.057 120.935 75.0642 119.466 75.2605C109.72 76.5639 99.7686 77.6539 90.1148 79.6295C87.4177 80.1815 88.8655 91.7966 88.8121 94.1429C88.6416 101.627 88.0395 109.097 87.5094 116.556C87.1959 120.967 86.359 117.376 84.6912 115.18C81.3442 110.771 77.6908 106.778 74.4819 102.163C71.8821 98.4235 70.0535 92.4909 66.6389 89.5345C66.3262 89.2638 64.2882 95.119 64.06 95.7887C62.0918 101.564 60.3961 107.469 58.3173 113.205C54.1644 124.664 48.8288 135.687 43.8543 146.72C43.1662 148.246 42.9295 148.553 42.8971 146.84C42.8508 144.39 42.499 141.963 42.4452 139.508C42.2222 129.344 42.3203 119.209 41.94 109.045C41.637 100.944 41.2249 92.2837 39.6536 84.3576C38.8088 80.0965 34.4272 82.1473 31.4118 82.4424C24.4925 83.1196 17.6278 83.6033 10.6743 83.0409C8.21884 82.8423 1.12183 82.0499 3.4693 81.2155C7.85934 79.6551 12.1363 76.7617 16.3904 74.7518C18.2016 73.8961 31.2351 68.8491 28.9658 65.565C25.979 61.2427 22.9856 56.8714 19.8732 52.6676C16.2647 47.7937 5.3312 33.5645 9.87666 37.3164C14.4256 41.0711 21.4576 42.868 26.7325 45.0369C31.5297 47.0093 36.1917 49.0621 40.7702 51.6202C41.3504 51.9444 44.9583 54.6999 45.7153 53.9543C46.381 53.2987 46.5825 51.1652 46.832 50.3036C47.8085 46.9304 49.3506 43.7919 50.5541 40.5183C54.4521 29.9152 60.6999 20.8504 63.9537 9.96543C64.5998 7.80392 65.8679 1.19125 65.8679 3.47182C65.8679 4.11054 66.1511 4.53125 66.3465 5.11767C68.6326 11.9793 69.0906 20.6933 69.6964 27.9201Z" fill="#4B9EFD" stroke="#4B9EFD" stroke-width="5" stroke-linecap="round"/>
</svg>
