<svg width="65" height="82" viewBox="0 0 65 82" fill="none" xmlns="http://www.w3.org/2000/svg">
<path d="M34.4379 5.56067C34.6288 12.4605 35.7267 21.1475 37.2172 27.8416C38.5479 27.8416 41.3208 26.3102 42.4478 25.641C47.8135 24.1287 51.7042 22.067 56.4798 20.9451C58.2029 20.5403 60.2109 20.1031 61.9999 20.4343C62.0192 20.4378 59.8393 23.4045 59.4521 23.9519C57.9377 26.0931 56.0985 27.9787 54.4145 29.9636C52.8207 31.8422 50.8985 33.3201 49.5699 35.4454C48.2788 37.5107 49.4503 37.5989 50.7473 39.0017C52.4139 40.8042 54.0842 42.5361 55.8042 44.287C56.5341 45.03 61.608 50.8913 61.0734 51.1245C60.1812 51.5138 58.7378 50.9411 57.8887 50.653C56.4635 50.1694 55.0412 50.1451 53.5653 49.926C52.2338 49.7283 42.7346 46.8218 42.4478 47.8433C42.1102 49.0461 42.4858 50.6834 42.4092 51.9301C42.2417 54.6584 41.4258 57.9785 40.6914 60.5949C39.4703 64.9458 38.7794 69.4545 37.1979 73.6805C36.8145 74.705 34.8027 81.5393 34.1676 77.9835C33.6314 74.9811 33.4267 71.8645 33.0482 68.8275C32.4031 63.6511 31.897 58.4598 31.1181 53.3055C31.0583 52.9102 31.269 50.6883 30.539 50.9084C29.3353 51.2715 28.2183 51.8615 26.9876 52.1659C24.461 52.7909 21.8182 52.9315 19.2285 52.9518L19.2253 52.9518C19.0624 52.9531 15.9042 52.9784 16.1018 52.6767C17.0602 51.2133 18.1937 49.5904 18.9969 48.0005C20.395 45.2332 22.1999 42.1487 22.2781 38.9624C22.303 37.9516 17.3542 35.86 16.4492 35.2686C13.4803 33.3283 10.3677 31.6424 7.33904 29.8064C6.04218 29.0202 4.8529 28.0089 3.51742 27.2914C2.76221 26.8857 2.82892 26.8483 3.74903 26.702C8.09945 26.01 12.4427 26.0378 16.8352 26.0733C18.7447 26.0887 25.4956 27.6449 26.177 25.641C28.5467 18.6719 30.8823 11.5945 33.0482 4.53897C34.0244 1.35886 34.3897 3.81904 34.4379 5.56067Z" fill="#DF81FD" stroke="#DF81FD" stroke-width="5" stroke-linecap="round"/>
</svg>
