<svg width="96" height="119" viewBox="0 0 96 119" fill="none" xmlns="http://www.w3.org/2000/svg">
<path d="M38.3894 32.7251C43.5096 23.8058 47.2712 12.2401 47.5679 1C47.7877 2.50187 49.7761 8.27961 49.91 9.06649C50.5095 12.5913 51.8523 15.4635 52.9969 18.7864C54.4038 22.8712 55.7643 27.2272 58.0001 30.7007C59.5728 33.1443 62.0313 35.459 64.0678 37.1756C66.339 39.09 68.7823 39.5663 71.3656 40.4362C73.1068 41.0225 75.034 41.1594 76.8182 41.4561C78.2634 41.6964 79.7657 42.0724 81.2182 42.1514C84.7739 42.345 88.3642 42.1669 91.9224 42.1669C92.0133 42.1669 92.0976 42.1667 92.1755 42.1664C92.9927 42.111 93.5251 42.1608 92.1755 42.1664C91.9743 42.18 91.7558 42.2001 91.5439 42.2287C90.2377 42.4053 88.9717 42.8695 87.6644 43.0632C84.22 43.5735 80.649 44.4619 77.3268 45.7829C73.778 47.194 70.1453 48.6831 66.9538 51.2069C64.8394 52.8789 63.3119 54.976 61.5957 57.2182C60.0193 59.2778 58.5798 63.4224 58.0947 66.2427C57.4363 70.0702 56.5097 73.9612 56.5097 77.9098C56.5097 80.5004 56.4919 83.0922 56.5097 85.6827C56.5268 88.1624 56.9181 90.5908 56.9355 93.0692C56.9696 97.923 56.7541 102.748 56.7226 107.595C56.7057 110.209 56.2968 112.765 56.2968 115.383C56.2968 117.308 55.7961 114.159 55.67 113.637C54.5847 109.147 54.1103 104.368 52.7958 99.9613C51.7222 96.3622 50.8095 92.7054 49.7915 89.0823C48.8788 85.8341 47.547 82.7092 46.3969 79.5942C44.1416 73.4856 40.9196 67.5134 37.5496 62.3486C35.0431 58.507 31.6807 54.9662 27.9809 53.3549C25.9883 52.4871 23.305 52.3605 21.2272 52.1959C17.5614 51.9057 13.8979 51.9023 10.2272 51.9023H3.21328C2.16167 51.9023 5.28736 51.4377 6.31219 51.1297C10.0246 50.0137 13.7006 48.9763 17.3358 47.4518C21.9948 45.498 26.8008 44.2416 31.0443 40.9152C33.637 38.8828 36.5769 35.8825 38.3894 32.7251Z" fill="#FFDE65" stroke="#FFDE65" stroke-width="5" stroke-linecap="round"/>
</svg>
