<svg width="122" height="248" viewBox="0 0 122 248" fill="none" xmlns="http://www.w3.org/2000/svg">
<path d="M18.9394 99.4035C39.7307 59.2459 76.3657 29.4354 113.168 4.38903C113.731 7.8498 113.427 14.7578 114.329 19.5536C116.191 29.4566 116.521 40.3977 117.434 50.2578C119.938 77.2942 120.704 108.618 113.274 132.986C109.056 146.818 106.291 160.087 98.9787 172.297C91.8462 184.207 82.41 193.939 73.2122 204.188C64.1973 214.234 53.5592 225.706 41.8647 232.877C39.4636 234.35 23.481 246.092 22.9431 244.882C21.3646 241.332 19.1846 237.955 16.9444 234.654C14.4256 230.943 13.7364 225.937 11.8389 221.615C6.39825 209.224 5.98189 193.855 3.93862 181.271C-0.715357 152.608 7.17542 122.125 18.9394 99.4035Z" fill="#FFC74B" stroke="#FFC74B" stroke-width="5" stroke-linecap="round"/>
</svg>
