<svg width="61" height="81" viewBox="0 0 61 81" fill="none" xmlns="http://www.w3.org/2000/svg">
<path d="M22.1356 23.9671C26.7474 17.8396 29.4574 11.091 30.5256 2.73556C30.5895 3.08758 30.5759 3.41229 30.7099 3.77154C30.9327 4.36908 31.1468 4.99144 31.3445 5.60832C32.2001 8.27938 33.3265 10.6663 34.4587 13.1127C36.2 16.8756 38.224 20.8541 41.1904 22.9237C45.093 25.6464 49.2831 26.7895 53.6416 27.9298C54.0281 28.0309 58.1598 28.8006 58.1988 29.3673C58.2097 29.5245 55.4813 30.3646 55.2191 30.4681C53.1133 31.2993 50.9926 32.0726 48.8709 32.8518C46.3863 33.7644 44.2832 36.2109 42.4065 38.5989C39.8163 41.895 37.9526 46.4046 36.6236 50.7655C35.8403 53.3356 34.9153 55.9533 34.4869 58.6529C33.9614 61.9641 33.5899 65.6025 33.5977 68.9388C33.6055 72.236 33.7811 75.4199 34.1414 78.6473C34.3012 80.0788 33.8089 75.788 33.6326 74.3616C32.05 61.5521 31.7015 44.5484 21.279 39.6961C18.1923 38.259 15.1524 37.8148 11.8688 37.4446C9.57228 37.1857 7.08797 37.2457 4.86967 36.4708C4.51331 36.3463 2.53538 36.1763 3.79316 36.021C5.59034 35.799 7.40598 35.0716 9.18346 34.5351C13.8509 33.1261 18.7034 28.5273 22.1356 23.9671Z" fill="#DF81FD"/>
<path d="M30.5294 2.70512C29.4639 11.0746 26.753 17.8322 22.1356 23.9671C18.7034 28.5273 13.8509 33.1261 9.18346 34.5351C7.40598 35.0716 5.59034 35.799 3.79316 36.021C2.53538 36.1763 4.51331 36.3463 4.86967 36.4708C7.08797 37.2457 9.57228 37.1857 11.8688 37.4446C15.1524 37.8148 18.1923 38.259 21.279 39.6961C31.7015 44.5484 32.05 61.5521 33.6326 74.3616C33.8089 75.788 34.3012 80.0788 34.1414 78.6473C33.7811 75.4199 33.6055 72.236 33.5977 68.9388C33.5899 65.6025 33.9614 61.9641 34.4869 58.6529C34.9153 55.9533 35.8403 53.3356 36.6236 50.7655C37.9526 46.4046 39.8163 41.895 42.4065 38.5989C44.2832 36.2109 46.3863 33.7644 48.8709 32.8518C50.9926 32.0726 53.1133 31.2993 55.2191 30.4681C55.4813 30.3646 58.2097 29.5245 58.1988 29.3673C58.1598 28.8006 54.0281 28.0309 53.6416 27.9298C49.2831 26.7895 45.093 25.6464 41.1904 22.9237C38.224 20.8541 36.2 16.8756 34.4587 13.1127C33.3265 10.6663 32.2001 8.27938 31.3445 5.60832C31.1468 4.99144 30.9327 4.36908 30.7099 3.77154C30.5587 3.36601 30.5954 3.00449 30.4965 2.59803" stroke="#DF81FD" stroke-width="5" stroke-linecap="round"/>
</svg>
