<svg width="79" height="86" viewBox="0 0 79 86" fill="none" xmlns="http://www.w3.org/2000/svg">
<path d="M41.2171 19.633C41.9319 23.8891 43.1808 29.2522 43.6936 33.5434C45.0954 33.5434 44.9868 33.4524 46.3127 32.9689C49.0466 31.9721 52.2765 31.8196 55.1225 31.0613C59.2439 29.9631 63.3632 28.9007 67.5028 27.8819C69.8846 27.2957 72.3449 27.1348 74.7696 26.7867C74.8461 26.7757 76.4725 26.3606 75.8641 26.928C74.9356 27.7939 73.487 28.0765 72.3832 28.659C70.9447 29.4182 69.5698 30.2219 68.0949 30.92C64.9849 32.3919 62.0121 34.0643 59.019 35.748L58.9981 35.7598C57.2709 36.7314 55.0921 37.3908 56.0017 39.3808C57.2967 42.2138 57.7025 45.8404 58.3522 48.866C58.9953 51.8615 59.0699 54.7065 59.0699 57.7507C59.0699 58.644 59.4215 61.1816 57.9215 59.8527C56.3641 58.4728 53.7217 58.0656 51.8928 56.9029C50.2292 55.8452 48.3918 54.1624 46.4204 53.7058C46.0228 53.6137 45.9698 54.5117 45.9 54.7656C44.095 61.3406 41.1211 67.9364 38.2207 74.0894L38.2196 74.0916C37.1584 76.3429 36.0832 78.6238 35.6369 81.0842C35.6177 81.19 35.2318 83.1416 35.1884 82.9918C34.4951 80.6033 34.1031 78.019 33.6274 75.5732C32.9517 72.0996 31.9812 68.6892 31.4563 65.187C31.0839 62.7022 30.8258 60.2024 30.4695 57.7154C30.2506 56.1871 30.2371 53.9497 29.4288 52.5753C29.3284 52.4045 26.0258 54.4 25.8403 54.483C22.8357 55.8275 19.8472 57.0916 16.9947 58.7399C16.0121 59.3077 16.1009 58.9876 16.4384 58.157C17.4897 55.5698 19.3863 53.3247 20.1167 50.6147C20.6527 48.6257 20.7412 46.4674 20.637 44.4148C20.5924 43.5373 17.1669 42.6117 16.3846 42.3482C12.867 41.1635 9.90052 39.894 6.74948 37.95C6.14067 37.5744 1.35414 35.1945 3.5916 35.1945C8.84021 35.1945 13.8176 34.2272 19.0222 33.7461C20.1443 33.6424 29.4091 33.5259 29.6621 32.1564C29.8416 31.1846 30.1291 30.4726 30.1291 29.5482C30.5064 27.6111 31.0112 26.1178 31.546 24.4905C32.3772 21.9615 33.252 19.4674 34.1656 16.9658C35.7714 12.5693 36.7574 8.01714 38.1848 3.57695C38.5455 2.45485 38.3646 3.2025 38.4719 3.85957C38.7321 5.45401 39.0514 7.04516 39.3693 8.62935L39.3869 8.71701C40.1147 12.3443 40.6049 15.9883 41.2171 19.633Z" fill="#FF71A2" stroke="#FF71A2" stroke-width="5" stroke-linecap="round"/>
</svg>
