<svg width="127" height="159" viewBox="0 0 127 159" fill="none" xmlns="http://www.w3.org/2000/svg">
<path d="M58.1578 32.0108C60.0777 21.8832 58.9969 11.2915 58.9209 1C59.6077 5.43012 59.4983 4.99727 60.1228 8.70348C60.736 12.3424 61.5227 15.9367 62.5075 19.385C63.7847 23.8574 64.0431 28.6571 65.9414 32.9953C68.6155 39.1066 71.4262 44.872 74.6406 50.5188C78.557 57.3988 84.9588 63.5202 91.0662 66.7872C94.4721 68.6091 98.5295 69.6948 102.188 70.3067C104.35 70.6682 106.531 70.4502 108.694 70.7989C110.761 71.1323 112.786 71.7536 114.875 71.8572C117.595 71.9922 120.319 71.744 123.021 72.3249C124.376 72.6164 124.263 73.2514 123.059 73.5554C120.197 74.2777 117.191 73.9988 114.283 74.786C106.795 76.8135 100.028 80.5827 93.2601 85.1722C85.3896 90.5094 80.4411 103.61 77.2924 113.5C75.3466 119.612 73.6136 125.694 71.8511 131.878L71.779 132.131C69.881 138.792 68.2455 145.093 67.3531 152.165C67.2036 153.35 67.1623 156.959 67.1623 155.759V153.199C67.1623 149.129 66.37 145.144 66.0558 141.09C65.2346 130.495 63.8714 118.946 59.188 109.882C51.4097 94.8302 40.218 82.8478 26.2797 79.9053C20.1427 78.6097 14.1488 78.4637 8.07271 79.1686C4.51397 79.8039 1.56244 80.196 3.74937 79.8068C5.19705 79.5492 6.63718 79.3352 8.07271 79.1686C10.5985 78.7178 13.4302 78.1444 14.9477 77.641C27.2912 73.5462 39.8526 66.9008 48.81 54.7028C53.5884 48.1956 56.5076 40.716 58.1578 32.0108Z" fill="#FE488B"/>
<path d="M58.9209 1C58.9969 11.2915 60.0777 21.8832 58.1578 32.0108C56.5076 40.716 53.5884 48.1956 48.81 54.7028C39.8526 66.9008 27.2912 73.5462 14.9477 77.641C11.2922 78.8537 0.0102619 80.4722 3.74937 79.8068C11.3245 78.4589 18.6928 78.3036 26.2797 79.9053C40.218 82.8478 51.4097 94.8302 59.188 109.882C63.8714 118.946 65.2346 130.495 66.0558 141.09C66.37 145.144 67.1623 149.129 67.1623 153.199C67.1623 154.052 67.1623 154.905 67.1623 155.759C67.1623 156.959 67.2036 153.35 67.3531 152.165C68.2455 145.093 69.881 138.792 71.779 132.131C73.5664 125.86 75.3201 119.695 77.2924 113.5C80.4411 103.61 85.3896 90.5094 93.2601 85.1722C100.028 80.5827 106.795 76.8135 114.283 74.786C117.191 73.9988 120.197 74.2777 123.059 73.5554C124.263 73.2514 124.376 72.6164 123.021 72.3249C120.319 71.744 117.595 71.9922 114.875 71.8572C112.786 71.7536 110.761 71.1323 108.694 70.7989C106.531 70.4502 104.35 70.6682 102.188 70.3067C98.5295 69.6948 94.4721 68.6091 91.0662 66.7872C84.9588 63.5202 78.557 57.3988 74.6406 50.5188C71.4262 44.872 68.6155 39.1066 65.9414 32.9953C64.0431 28.6571 63.7847 23.8574 62.5075 19.385C61.5227 15.9367 60.736 12.3424 60.1228 8.70348C59.4983 4.99727 59.6077 5.43012 58.9209 1Z" stroke="#FE488B" stroke-width="5" stroke-linecap="round"/>
</svg>
