<svg width="4460" height="3191" viewBox="0 0 4460 3191" fill="none" xmlns="http://www.w3.org/2000/svg">
<path fill-rule="evenodd" clip-rule="evenodd" d="M3576.28 2277.06C3581.77 2276.69 3587.55 2277.94 3591.41 2281.83C3595.25 2285.69 3595.85 2291.4 3595.9 2296.82C3595.95 2302.3 3595.52 2308.13 3591.69 2312.07C3587.79 2316.08 3581.89 2317.09 3576.28 2316.99C3570.79 2316.9 3565.3 2315.38 3561.42 2311.53C3557.54 2307.69 3555.61 2302.24 3555.94 2296.82C3556.25 2291.68 3559.38 2287.36 3563.09 2283.76C3566.76 2280.2 3571.15 2277.41 3576.28 2277.06Z" fill="#F3C72C"/>
<path fill-rule="evenodd" clip-rule="evenodd" d="M2776.13 1562.02C2781.42 1562.22 2786.47 1564.25 2790.18 1568.1C2793.85 1571.91 2795.43 1577.09 2795.77 1582.42C2796.14 1588.2 2795.93 1594.4 2792.15 1598.74C2788.21 1603.27 2782.06 1605.36 2776.13 1604.95C2770.54 1604.56 2765.92 1600.89 2762.14 1596.67C2758.56 1592.68 2756.13 1587.82 2755.92 1582.42C2755.71 1576.79 2757.08 1570.97 2761.01 1567.01C2764.92 1563.06 2770.63 1561.81 2776.13 1562.02Z" fill="#7BB3F9"/>
<path fill-rule="evenodd" clip-rule="evenodd" d="M708.712 1092.04C713.262 1091.79 717.964 1092.6 721.363 1095.68C724.933 1098.93 726.82 1103.69 726.898 1108.56C726.978 1113.51 725.232 1118.37 721.786 1121.86C718.346 1125.35 713.568 1127.08 708.712 1127C703.935 1126.92 699.399 1124.91 696.052 1121.44C692.736 1118 690.668 1113.37 690.922 1108.56C691.165 1103.96 694.003 1100.09 697.345 1096.99C700.51 1094.05 704.434 1092.27 708.712 1092.04Z" fill="#BD56FF"/>
<path fill-rule="evenodd" clip-rule="evenodd" d="M3352.23 0.0554869C3358.27 0.222917 3364.49 0.920546 3368.94 4.95388C3373.57 9.14279 3375.95 15.2787 3375.9 21.4829C3375.85 27.6437 3373.29 33.6077 3368.7 37.775C3364.29 41.7841 3358.22 43.1731 3352.23 42.9831C3346.45 42.7997 3341.09 40.5754 3336.78 36.762C3332.19 32.694 3328.37 27.5673 3327.96 21.4829C3327.52 15.0307 3329.68 8.30596 3334.56 4.00026C3339.24 -0.134775 3345.95 -0.118573 3352.23 0.0554869Z" fill="#BD56FF"/>
<path fill-rule="evenodd" clip-rule="evenodd" d="M3645.36 868.036C3652.04 868.256 3658.66 869.901 3663.57 874.465C3668.65 879.195 3671.6 885.772 3671.87 892.719C3672.16 899.958 3670.03 907.205 3665.08 912.484C3659.98 917.918 3652.79 921.107 3645.36 920.997C3638.01 920.889 3631.33 917.185 3626.21 911.911C3621.16 906.716 3617.96 899.968 3617.9 892.719C3617.84 885.414 3620.48 878.104 3625.91 873.227C3631.1 868.56 3638.39 867.807 3645.36 868.036Z" fill="#FB6598"/>
<path fill-rule="evenodd" clip-rule="evenodd" d="M2076.5 2835.54C2081.71 2836.18 2086.65 2838.13 2090.19 2841.93C2093.57 2845.56 2095.04 2850.42 2094.89 2855.32C2094.74 2860.07 2092.4 2864.2 2089.37 2867.92C2085.83 2872.27 2082.15 2877.2 2076.5 2877.89C2070.38 2878.63 2064.46 2875.61 2059.97 2871.48C2055.32 2867.22 2052.12 2861.55 2051.92 2855.32C2051.7 2848.9 2053.79 2842.16 2058.86 2838.08C2063.63 2834.24 2070.37 2834.79 2076.5 2835.54Z" fill="#7BB3F9"/>
<path fill-rule="evenodd" clip-rule="evenodd" d="M4439.82 1487C4444.79 1487.02 4449.64 1488.53 4453.31 1491.87C4457.14 1495.35 4460.04 1500.09 4459.9 1505.24C4459.75 1510.3 4456.19 1514.34 4452.57 1517.89C4448.98 1521.43 4444.89 1524.86 4439.82 1524.99C4434.65 1525.14 4429.81 1522.43 4426.35 1518.61C4423.06 1514.99 4421.93 1510.12 4421.9 1505.24C4421.88 1500.34 4422.76 1495.26 4426.21 1491.74C4429.7 1488.19 4434.82 1486.98 4439.82 1487Z" fill="#BD56FF"/>
<path fill-rule="evenodd" clip-rule="evenodd" d="M1729.57 437.015C1735.43 437.225 1740.65 440.365 1744.77 444.678C1748.85 448.958 1751.47 454.398 1751.89 460.397C1752.34 466.902 1751.55 473.904 1747.13 478.563C1742.69 483.255 1735.92 484.214 1729.57 483.964C1723.5 483.724 1717.47 481.79 1713.3 477.228C1709.22 472.774 1708 466.531 1708 460.397C1708 454.259 1709.18 447.986 1713.28 443.545C1717.46 439.013 1723.52 436.797 1729.57 437.015Z" fill="#F3C72C"/>
<path fill-rule="evenodd" clip-rule="evenodd" d="M261.342 2600.02C265.651 2599.84 270.195 2600.93 273.115 2604.28C275.954 2607.55 275.936 2612.31 275.891 2616.74C275.846 2621.11 275.702 2625.76 272.864 2628.93C269.97 2632.16 265.549 2633.1 261.342 2632.99C257.251 2632.88 253.189 2631.48 250.387 2628.33C247.659 2625.26 246.893 2620.95 246.901 2616.74C246.909 2612.54 247.75 2608.3 250.431 2605.2C253.226 2601.96 257.201 2600.18 261.342 2600.02Z" fill="#BD56FF"/>
<path fill-rule="evenodd" clip-rule="evenodd" d="M18.1621 131.037C22.7909 130.798 27.6042 131.676 30.9858 134.878C34.4579 138.166 35.8566 143.026 35.8999 147.834C35.9435 152.69 34.5967 157.57 31.2209 161.027C27.8247 164.505 22.998 166.006 18.1621 166C13.3326 165.994 8.47551 164.519 5.13488 160.995C1.85448 157.535 0.660459 152.617 0.940192 147.834C1.20342 143.333 3.37779 139.272 6.58849 136.141C9.73678 133.07 13.792 131.263 18.1621 131.037Z" fill="#FB6598"/>
<path fill-rule="evenodd" clip-rule="evenodd" d="M4230.02 468.015C4236.78 467.758 4243.18 470.873 4247.99 475.597C4252.82 480.347 4255.78 486.681 4255.9 493.433C4256.02 500.305 4253.74 507.27 4248.63 511.912C4243.7 516.394 4236.7 517.233 4230.02 516.951C4223.67 516.684 4217.7 514.554 4212.92 510.406C4207.75 505.921 4202.81 500.249 4202.9 493.433C4202.99 486.67 4208.42 481.557 4213.37 476.913C4218.14 472.448 4223.47 468.264 4230.02 468.015Z" fill="#F3C72C"/>
<path fill-rule="evenodd" clip-rule="evenodd" d="M3654.02 3156.01C3658.72 3156.11 3663.51 3157 3666.9 3160.23C3670.36 3163.52 3672.01 3168.27 3671.9 3173.02C3671.79 3177.66 3669.61 3181.92 3666.32 3185.23C3663.01 3188.56 3658.73 3191.12 3654.02 3191C3649.41 3190.87 3645.63 3187.82 3642.37 3184.58C3639.12 3181.34 3636.28 3177.58 3635.95 3173.02C3635.6 3168.14 3637.02 3163.05 3640.59 3159.69C3644.09 3156.39 3649.19 3155.91 3654.02 3156.01Z" fill="#7BB3F9"/>
<path fill-rule="evenodd" clip-rule="evenodd" d="M1048.22 48.0779C1054.75 48.2558 1061.44 48.8959 1066.37 53.1512C1071.61 57.6795 1074.74 64.2539 1074.93 71.1453C1075.12 78.2161 1072.67 85.4013 1067.37 90.1331C1062.28 94.6756 1055.07 95.1244 1048.22 94.9772C1041.57 94.8341 1034.79 93.7804 1029.88 89.327C1024.77 84.6931 1022.1 78.0085 1021.95 71.1453C1021.79 64.1224 1023.74 56.7917 1029.05 52.1347C1034.13 47.669 1041.43 47.893 1048.22 48.0779Z" fill="#BD56FF"/>
<path fill-rule="evenodd" clip-rule="evenodd" d="M3387.83 1265C3394.26 1264.9 3400.45 1267.46 3405.08 1272.06C3409.82 1276.74 3412.89 1283.07 3412.9 1289.83C3412.91 1296.6 3409.73 1302.82 3405.12 1307.64C3400.47 1312.49 3394.45 1316.15 3387.83 1316C3381.33 1315.85 3375.93 1311.56 3371.29 1306.87C3366.58 1302.12 3361.94 1296.62 3361.9 1289.83C3361.86 1283.01 3366.25 1277.23 3371.09 1272.59C3375.73 1268.14 3381.49 1265.1 3387.83 1265Z" fill="#F3C72C"/>
<path fill-rule="evenodd" clip-rule="evenodd" d="M3028.58 476.001C3035.18 476.092 3040.53 480.673 3045.04 485.402C3049.35 489.931 3052.75 495.342 3052.89 501.535C3053.04 507.86 3050.41 513.986 3045.8 518.418C3041.24 522.811 3034.97 524.639 3028.58 524.93C3021.82 525.238 3014.54 524.684 3009.68 520.063C3004.77 515.394 3003.59 508.232 3003.97 501.535C3004.32 495.229 3007.23 489.534 3011.66 484.945C3016.23 480.198 3021.92 475.91 3028.58 476.001Z" fill="#FB6598"/>
<path fill-rule="evenodd" clip-rule="evenodd" d="M1125.9 3138.04C1131.02 3138.28 1135.94 3139.98 1139.64 3143.55C1143.4 3147.19 1145.58 3152.1 1145.88 3157.34C1146.2 3162.92 1145.29 3168.89 1141.31 3172.81C1137.36 3176.7 1131.44 3176.98 1125.9 3177C1120.35 3177.02 1114.54 3176.62 1110.39 3172.91C1106.05 3169.02 1103.86 3163.18 1103.94 3157.34C1104.02 3151.57 1106.51 3146.01 1110.84 3142.21C1114.91 3138.63 1120.49 3137.79 1125.9 3138.04Z" fill="#FB6598"/>
<path fill-rule="evenodd" clip-rule="evenodd" d="M2870.68 2683C2878.17 2683.14 2884.75 2687.43 2889.75 2692.78C2894.45 2697.82 2896.64 2704.3 2896.87 2711.06C2897.11 2718.1 2895.85 2725.28 2891.04 2730.59C2885.91 2736.26 2878.51 2739.73 2870.68 2739.98C2862.6 2740.25 2854.58 2737.48 2848.91 2731.96C2843.26 2726.47 2840.55 2718.76 2840.94 2711.06C2841.3 2703.71 2845.43 2697.25 2850.9 2692.09C2856.32 2686.98 2863.09 2682.87 2870.68 2683Z" fill="#BD56FF"/>
<path fill-rule="evenodd" clip-rule="evenodd" d="M1194.52 1829C1200.97 1829.04 1205.86 1834.37 1210.41 1839.15C1214.93 1843.9 1219.82 1849.02 1219.94 1855.71C1220.06 1862.49 1215.81 1868.34 1211.02 1872.92C1206.46 1877.27 1200.7 1880.09 1194.52 1880C1188.41 1879.91 1182.97 1876.74 1178.46 1872.45C1173.68 1867.91 1168.94 1862.46 1168.94 1855.71C1168.94 1848.97 1173.87 1843.73 1178.44 1838.95C1183.02 1834.17 1188.04 1828.96 1194.52 1829Z" fill="#7BB3F9"/>
<path fill-rule="evenodd" clip-rule="evenodd" d="M261.148 1755C264.946 1754.92 268.627 1756.35 271.364 1758.99C274.153 1761.68 276.054 1765.35 275.891 1769.23C275.734 1772.97 273.188 1775.98 270.54 1778.64C267.891 1781.29 264.894 1783.96 261.148 1784C257.373 1784.04 254.165 1781.57 251.542 1778.85C248.973 1776.19 246.935 1772.93 246.901 1769.23C246.867 1765.49 248.723 1762.06 251.363 1759.42C253.998 1756.79 257.43 1755.08 261.148 1755Z" fill="#F3C72C"/>
<path fill-rule="evenodd" clip-rule="evenodd" d="M1726.82 1278.08C1733.07 1278.32 1739.33 1279.55 1743.97 1283.84C1748.83 1288.34 1751.79 1294.66 1751.99 1301.36C1752.19 1308.26 1749.84 1315.11 1745.05 1319.98C1740.27 1324.85 1733.57 1327.16 1726.82 1326.99C1720.24 1326.82 1714 1323.96 1709.47 1319.08C1705.06 1314.32 1703.23 1307.9 1703.03 1301.36C1702.82 1294.55 1703.54 1287.19 1708.35 1282.48C1713.1 1277.84 1720.25 1277.83 1726.82 1278.08Z" fill="#FB6598"/>
<path fill-rule="evenodd" clip-rule="evenodd" d="M581.253 338.001C587.662 337.928 593.346 341.35 598.06 345.651C603.021 350.176 607.578 355.62 607.882 362.293C608.197 369.201 604.554 375.586 599.648 380.507C594.706 385.463 588.285 388.922 581.253 388.999C574.149 389.076 567.199 386.143 562.447 380.913C557.908 375.919 556.526 368.997 556.984 362.293C557.409 356.061 560.391 350.468 564.827 346.028C569.291 341.56 574.906 338.073 581.253 338.001Z" fill="#7BB3F9"/>
</svg>
