<svg width="5110" height="3679" viewBox="0 0 5110 3679" fill="none" xmlns="http://www.w3.org/2000/svg">
<path d="M3847.85 1927.55C3847.13 1933.33 3837.37 1927.55 3847.85 1927.55" stroke="white" stroke-width="6" stroke-linecap="round"/>
<path d="M3923.02 2320.71C3923.02 2318.41 3921.82 2321.21 3920.13 2317.82" stroke="white" stroke-width="6" stroke-linecap="round"/>
<path d="M3125.14 2291.8H3122.25" stroke="white" stroke-width="6" stroke-linecap="round"/>
<path d="M3058.65 3213.99V3211.1" stroke="white" stroke-width="6" stroke-linecap="round"/>
<path d="M3567.44 3546.44C3567.44 3529.8 3571.91 3546.11 3568.89 3546.11C3565.35 3546.11 3569.07 3524.06 3573.22 3540.65" stroke="white" stroke-width="6" stroke-linecap="round"/>
<path d="M4741.13 3052.1C4744.68 3056.1 4743.29 3065.39 4737.12 3060.45C4732.85 3057.04 4749.42 3052.72 4746.75 3062.06C4745.33 3067.05 4737.63 3063.06 4738.24 3057.88C4739.46 3047.56 4747.8 3064.32 4744.02 3049.21" stroke="white" stroke-width="6" stroke-linecap="round"/>
<path d="M2769.56 1953.57C2768.31 1943.6 2772.02 1952.7 2769.56 1947.79" stroke="white" stroke-width="6" stroke-linecap="round"/>
<path d="M2668.38 3664.97C2673.57 3676.01 2665.49 3680.55 2665.49 3669.31C2665.49 3658.39 2673.41 3677.6 2665.49 3673.64" stroke="white" stroke-width="6" stroke-linecap="round"/>
<path d="M4579.24 2181.95C4579.24 2190.75 4580.24 2194.09 4570.57 2193.52C4565.97 2193.25 4565.61 2180.69 4572.02 2182.11C4577.46 2183.32 4578.95 2193.52 4567.68 2193.52" stroke="white" stroke-width="6" stroke-linecap="round"/>
<path d="M3431.57 2780.36C3431.57 2784.94 3423.31 2793.6 3422.9 2786.14C3422.59 2780.53 3427.76 2766.02 3433.82 2777.47C3438.14 2785.62 3422.61 2784.9 3422.9 2780.36C3423.54 2770.02 3434.46 2785.95 3434.46 2791.92" stroke="white" stroke-width="6" stroke-linecap="round"/>
<path d="M4064.67 3266.02C4064.23 3269.54 4060.26 3268.23 4064.67 3266.02" stroke="white" stroke-width="6" stroke-linecap="round"/>
<path d="M4541.66 3667.86C4541.66 3678.64 4529.14 3670.75 4537.33 3670.75C4542.29 3670.75 4538.98 3668.38 4538.77 3664.96C4538.63 3662.72 4538.75 3666.42 4535.88 3667.86" stroke="white" stroke-width="6" stroke-linecap="round"/>
<path d="M2601.89 2670.51C2601.89 2674.14 2601.33 2678.05 2599 2673.4" stroke="white" stroke-width="6" stroke-linecap="round"/>
<path d="M5024.44 2054.75C5016.3 2054.75 5019.91 2050.36 5025.72 2052.02C5029.41 2053.08 5024.44 2062.23 5024.44 2051.86" stroke="white" stroke-width="6" stroke-linecap="round"/>
<path d="M5036 3488.62C5035.67 3491.29 5035.06 3490.54 5033.11 3491.52" stroke="white" stroke-width="6" stroke-linecap="round"/>
<path d="M4116.7 2745.67C4115.25 2757.3 4104.55 2750.01 4105.14 2739.88C4105.7 2730.37 4125.84 2742 4116.06 2750.81C4106.13 2759.74 4099.42 2731.88 4110.92 2737.64C4121.72 2743.03 4113.81 2745.69 4113.81 2748.56" stroke="white" stroke-width="6" stroke-linecap="round"/>
<path d="M4957.95 2560.65C4957.95 2569.93 4940.6 2569.61 4940.6 2559.21C4940.6 2545.29 4957.95 2546.55 4957.95 2560.65ZM4957.95 2560.65C4957.95 2579.53 4936.36 2552.57 4947.99 2549.25C4964.89 2544.42 4946.38 2574.58 4946.38 2554.87" stroke="white" stroke-width="6" stroke-linecap="round"/>
<path d="M3402.66 1962.24C3408.93 1963.03 3400.13 1986.38 3392.54 1965.13C3388.01 1952.43 3409.14 1952.92 3408.44 1970.27C3407.69 1989.15 3379.68 1971.08 3401.05 1964.97C3415.7 1960.79 3405.4 1982.03 3399.77 1965.13" stroke="white" stroke-width="6" stroke-linecap="round"/>
<path d="M2662.6 2959.59C2662.6 2970.13 2651.04 2977.18 2651.04 2963.93C2651.04 2952.76 2668.04 2954.28 2665.33 2963.77C2664.14 2967.94 2656.8 2963.78 2660.35 2960.23C2662.23 2958.35 2662.94 2969.21 2660.35 2971.8C2649.75 2982.4 2656.82 2946.81 2656.82 2974.05" stroke="white" stroke-width="6" stroke-linecap="round"/>
<path d="M1251.85 1921C1251.13 1926.77 1241.37 1921 1251.85 1921" stroke="white" stroke-width="6" stroke-linecap="round"/>
<path d="M1327.02 2314.16C1327.02 2311.86 1325.82 2314.65 1324.13 2311.27" stroke="white" stroke-width="6" stroke-linecap="round"/>
<path d="M529.138 2285.25H526.247" stroke="white" stroke-width="6" stroke-linecap="round"/>
<path d="M462.647 3207.44V3204.55" stroke="white" stroke-width="6" stroke-linecap="round"/>
<path d="M971.44 3539.88C971.44 3523.25 975.915 3539.56 972.885 3539.56C969.349 3539.56 973.072 3517.5 977.222 3534.1" stroke="white" stroke-width="6" stroke-linecap="round"/>
<path d="M2004.72 2878.89C2008.27 2882.89 2006.88 2892.18 2000.71 2887.24C1996.44 2883.83 2013.01 2879.51 2010.34 2888.85C2008.92 2893.83 2001.22 2889.85 2001.83 2884.67C2003.04 2874.35 2011.39 2891.11 2007.61 2876" stroke="white" stroke-width="6" stroke-linecap="round"/>
<path d="M173.561 1947.02C172.315 1937.04 176.019 1946.15 173.561 1941.23" stroke="white" stroke-width="6" stroke-linecap="round"/>
<path d="M72.3807 3658.41C77.5752 3669.45 69.4899 3673.99 69.4899 3662.75C69.4899 3651.84 77.412 3671.05 69.4899 3667.09" stroke="white" stroke-width="6" stroke-linecap="round"/>
<path d="M1983.24 2175.4C1983.24 2184.2 1984.24 2187.53 1974.57 2186.96C1969.97 2186.69 1969.61 2174.14 1976.02 2175.56C1981.46 2176.77 1982.95 2186.96 1971.68 2186.96" stroke="white" stroke-width="6" stroke-linecap="round"/>
<path d="M835.57 2773.81C835.57 2778.39 827.311 2787.04 826.897 2779.59C826.585 2773.98 831.758 2759.47 837.818 2770.91C842.135 2779.07 826.613 2778.35 826.897 2773.81C827.543 2763.47 838.461 2779.39 838.461 2785.37" stroke="white" stroke-width="6" stroke-linecap="round"/>
<path d="M1468.67 3259.47C1468.23 3262.98 1464.26 3261.67 1468.67 3259.47" stroke="white" stroke-width="6" stroke-linecap="round"/>
<path d="M1945.66 3661.3C1945.66 3672.09 1933.14 3664.19 1941.33 3664.19C1946.29 3664.19 1942.98 3661.83 1942.77 3658.41C1942.63 3656.16 1942.75 3659.86 1939.88 3661.3" stroke="white" stroke-width="6" stroke-linecap="round"/>
<path d="M5.89062 2663.95C5.89062 2667.58 5.3271 2671.5 2.99976 2666.84" stroke="white" stroke-width="6" stroke-linecap="round"/>
<path d="M2428.44 2048.2C2420.3 2048.2 2423.91 2043.81 2429.72 2045.47C2433.41 2046.52 2428.44 2055.67 2428.44 2045.31" stroke="white" stroke-width="6" stroke-linecap="round"/>
<path d="M2440 3482.07C2439.67 3484.73 2439.06 3483.98 2437.11 3484.96" stroke="white" stroke-width="6" stroke-linecap="round"/>
<path d="M1621.83 2801.34C1620.38 2812.97 1609.67 2805.68 1610.27 2795.56C1610.83 2786.04 1630.97 2797.68 1621.19 2806.48C1611.25 2815.42 1604.55 2787.56 1616.05 2793.31C1626.84 2798.7 1618.94 2801.36 1618.94 2804.23" stroke="white" stroke-width="6" stroke-linecap="round"/>
<path d="M2361.95 2554.1C2361.95 2563.38 2344.6 2563.06 2344.6 2552.65C2344.6 2538.74 2361.95 2540 2361.95 2554.1ZM2361.95 2554.1C2361.95 2572.97 2340.36 2546.02 2351.99 2542.7C2368.89 2537.87 2350.38 2568.02 2350.38 2548.32" stroke="white" stroke-width="6" stroke-linecap="round"/>
<path d="M806.661 1955.69C812.931 1956.47 804.13 1979.82 796.543 1958.58C792.007 1945.88 813.137 1946.37 812.442 1963.72C811.687 1982.6 783.682 1964.53 805.055 1958.42C819.699 1954.23 809.403 1975.48 803.77 1958.58" stroke="white" stroke-width="6" stroke-linecap="round"/>
<path d="M66.5989 2953.04C66.5989 2963.58 55.0355 2970.63 55.0355 2957.37C55.0355 2946.21 72.0404 2947.72 69.3292 2957.21C68.1384 2961.38 60.8008 2957.23 64.3505 2953.68C66.2331 2951.8 66.9368 2962.66 64.3505 2965.24C53.7521 2975.84 60.8172 2940.26 60.8172 2967.49" stroke="white" stroke-width="6" stroke-linecap="round"/>
<path d="M1274.15 1751.26C1274.87 1745.49 1284.63 1751.26 1274.15 1751.26" stroke="white" stroke-width="6" stroke-linecap="round"/>
<path d="M1198.98 1358.1C1198.98 1360.4 1200.18 1357.61 1201.87 1360.99" stroke="white" stroke-width="6" stroke-linecap="round"/>
<path d="M1996.86 1387.01H1999.75" stroke="white" stroke-width="6" stroke-linecap="round"/>
<path d="M2063.35 464.82V467.711" stroke="white" stroke-width="6" stroke-linecap="round"/>
<path d="M1554.56 132.376C1554.56 149.011 1550.09 132.698 1553.11 132.698C1556.65 132.698 1552.93 154.755 1548.78 138.158" stroke="white" stroke-width="6" stroke-linecap="round"/>
<path d="M380.868 626.711C377.316 622.715 378.708 613.419 384.884 618.359C389.15 621.772 372.578 626.094 375.247 616.753C376.672 611.767 384.369 615.75 383.759 620.929C382.545 631.25 374.199 614.488 377.978 629.602" stroke="white" stroke-width="6" stroke-linecap="round"/>
<path d="M2352.44 1725.24C2353.69 1735.21 2349.98 1726.11 2352.44 1731.02" stroke="white" stroke-width="6" stroke-linecap="round"/>
<path d="M2453.62 13.8438C2448.43 2.80553 2456.51 -1.73309 2456.51 9.50745C2456.51 20.421 2448.59 1.2101 2456.51 5.17115" stroke="white" stroke-width="6" stroke-linecap="round"/>
<path d="M542.757 1496.86C542.757 1488.06 541.756 1484.73 551.43 1485.3C556.032 1485.57 556.388 1498.12 549.984 1496.7C544.536 1495.49 543.055 1485.3 554.32 1485.3" stroke="white" stroke-width="6" stroke-linecap="round"/>
<path d="M1690.43 898.452C1690.43 893.871 1698.69 885.217 1699.1 892.671C1699.41 898.282 1694.24 912.79 1688.18 901.343C1683.86 893.188 1699.39 893.908 1699.1 898.452C1698.46 908.789 1687.54 892.865 1687.54 886.889" stroke="white" stroke-width="6" stroke-linecap="round"/>
<path d="M1057.33 412.789C1057.77 409.277 1061.74 410.584 1057.33 412.789" stroke="white" stroke-width="6" stroke-linecap="round"/>
<path d="M580.338 10.9574C580.338 0.168924 592.858 8.06655 584.674 8.06655C579.714 8.06655 583.015 10.4296 583.229 13.8483C583.369 16.0942 583.248 12.3932 586.12 10.9574" stroke="white" stroke-width="6" stroke-linecap="round"/>
<path d="M2520.11 1008.3C2520.11 1004.68 2520.67 1000.76 2523 1005.41" stroke="white" stroke-width="6" stroke-linecap="round"/>
<path d="M97.5634 1624.06C105.696 1624.06 102.086 1628.45 96.2786 1626.79C92.5904 1625.74 97.5634 1616.59 97.5634 1626.95" stroke="white" stroke-width="6" stroke-linecap="round"/>
<path d="M86 190.188C86.3329 187.524 86.9383 188.273 88.8909 187.297" stroke="white" stroke-width="6" stroke-linecap="round"/>
<path d="M1005.3 933.146C1006.75 921.513 1017.45 928.807 1016.86 938.928C1016.3 948.446 996.158 936.809 1005.94 928.007C1015.87 919.068 1022.58 946.928 1011.08 941.177C1000.28 935.78 1008.19 933.122 1008.19 930.256" stroke="white" stroke-width="6" stroke-linecap="round"/>
<path d="M164.053 1118.16C164.053 1108.88 181.398 1109.2 181.398 1119.6C181.398 1133.52 164.053 1132.26 164.053 1118.16ZM164.053 1118.16C164.053 1099.29 185.637 1126.24 174.011 1129.56C157.108 1134.39 175.617 1104.24 175.617 1123.94" stroke="white" stroke-width="6" stroke-linecap="round"/>
<path d="M1719.34 1716.57C1713.07 1715.79 1721.87 1692.43 1729.46 1713.68C1733.99 1726.38 1712.86 1725.89 1713.56 1708.54C1714.31 1689.66 1742.32 1707.73 1720.95 1713.84C1706.3 1718.02 1716.6 1696.78 1722.23 1713.68" stroke="white" stroke-width="6" stroke-linecap="round"/>
<path d="M2459.4 719.22C2459.4 708.682 2470.96 701.63 2470.96 714.884C2470.96 726.051 2453.96 724.534 2456.67 715.045C2457.86 710.877 2465.2 715.028 2461.65 718.578C2459.77 720.461 2459.06 709.601 2461.65 707.015C2472.25 696.416 2465.18 732 2465.18 704.766" stroke="white" stroke-width="6" stroke-linecap="round"/>
<path d="M3858.15 1770.26C3858.87 1764.49 3868.63 1770.26 3858.15 1770.26" stroke="white" stroke-width="6" stroke-linecap="round"/>
<path d="M3782.98 1377.1C3782.98 1379.4 3784.18 1376.61 3785.87 1379.99" stroke="white" stroke-width="6" stroke-linecap="round"/>
<path d="M4580.86 1406.01H4583.75" stroke="white" stroke-width="6" stroke-linecap="round"/>
<path d="M4647.35 483.82V486.711" stroke="white" stroke-width="6" stroke-linecap="round"/>
<path d="M4138.56 151.376C4138.56 168.011 4134.09 151.698 4137.11 151.698C4140.65 151.698 4136.93 173.755 4132.78 157.158" stroke="white" stroke-width="6" stroke-linecap="round"/>
<path d="M2964.87 645.711C2961.32 641.715 2962.71 632.419 2968.88 637.359C2973.15 640.772 2956.58 645.094 2959.25 635.753C2960.67 630.767 2968.37 634.75 2967.76 639.929C2966.54 650.25 2958.2 633.488 2961.98 648.602" stroke="white" stroke-width="6" stroke-linecap="round"/>
<path d="M4936.44 1744.24C4937.69 1754.21 4933.98 1745.11 4936.44 1750.02" stroke="white" stroke-width="6" stroke-linecap="round"/>
<path d="M5037.62 32.8438C5032.43 21.8055 5040.51 17.2669 5040.51 28.5075C5040.51 39.421 5032.59 20.2101 5040.51 24.1712" stroke="white" stroke-width="6" stroke-linecap="round"/>
<path d="M3126.76 1515.86C3126.76 1507.06 3125.76 1503.73 3135.43 1504.3C3140.03 1504.57 3140.39 1517.12 3133.98 1515.7C3128.54 1514.49 3127.05 1504.3 3138.32 1504.3" stroke="white" stroke-width="6" stroke-linecap="round"/>
<path d="M4274.43 917.452C4274.43 912.871 4282.69 904.217 4283.1 911.671C4283.41 917.282 4278.24 931.79 4272.18 920.343C4267.86 912.188 4283.39 912.908 4283.1 917.452C4282.46 927.789 4271.54 911.865 4271.54 905.889" stroke="white" stroke-width="6" stroke-linecap="round"/>
<path d="M3641.33 431.789C3641.77 428.277 3645.74 429.584 3641.33 431.789" stroke="white" stroke-width="6" stroke-linecap="round"/>
<path d="M3164.34 29.9574C3164.34 19.1689 3176.86 27.0665 3168.67 27.0665C3163.71 27.0665 3167.02 29.4296 3167.23 32.8483C3167.37 35.0942 3167.25 31.3932 3170.12 29.9574" stroke="white" stroke-width="6" stroke-linecap="round"/>
<path d="M5104.11 1027.3C5104.11 1023.68 5104.67 1019.76 5107 1024.41" stroke="white" stroke-width="6" stroke-linecap="round"/>
<path d="M2681.56 1643.06C2689.7 1643.06 2686.09 1647.45 2680.28 1645.79C2676.59 1644.74 2681.56 1635.59 2681.56 1645.95" stroke="white" stroke-width="6" stroke-linecap="round"/>
<path d="M2670 209.188C2670.33 206.524 2670.94 207.273 2672.89 206.297" stroke="white" stroke-width="6" stroke-linecap="round"/>
<path d="M3589.3 952.146C3590.75 940.513 3601.45 947.807 3600.86 957.928C3600.3 967.446 3580.16 955.809 3589.94 947.007C3599.87 938.068 3606.58 965.928 3595.08 960.177C3584.28 954.78 3592.19 952.122 3592.19 949.256" stroke="white" stroke-width="6" stroke-linecap="round"/>
<path d="M2748.05 1137.16C2748.05 1127.88 2765.4 1128.2 2765.4 1138.6C2765.4 1152.52 2748.05 1151.26 2748.05 1137.16ZM2748.05 1137.16C2748.05 1118.29 2769.64 1145.24 2758.01 1148.56C2741.11 1153.39 2759.62 1123.24 2759.62 1142.94" stroke="white" stroke-width="6" stroke-linecap="round"/>
<path d="M4303.34 1735.57C4297.07 1734.79 4305.87 1711.43 4313.46 1732.68C4317.99 1745.38 4296.86 1744.89 4297.56 1727.54C4298.31 1708.66 4326.32 1726.73 4304.95 1732.84C4290.3 1737.02 4300.6 1715.78 4306.23 1732.68" stroke="white" stroke-width="6" stroke-linecap="round"/>
<path d="M5043.4 738.22C5043.4 727.682 5054.96 720.63 5054.96 733.884C5054.96 745.051 5037.96 743.534 5040.67 734.045C5041.86 729.877 5049.2 734.028 5045.65 737.578C5043.77 739.461 5043.06 728.601 5045.65 726.015C5056.25 715.416 5049.18 751 5049.18 723.766" stroke="white" stroke-width="6" stroke-linecap="round"/>
<path d="M4425.3 2564.27C4422.33 2569.47 4405.05 2558.48 4420.97 2558.48C4428.05 2558.48 4430.71 2565.93 4425.95 2570.69C4418.22 2578.42 4421.64 2565.49 4417.92 2564.43C4413.29 2563.11 4407.04 2572.94 4416.63 2572.94" stroke="white" stroke-width="6" stroke-linecap="round"/>
<path d="M3529.14 2361.91C3539.62 2361.91 3524.8 2367.69 3520.46 2367.69C3513.61 2367.69 3511.44 2356.8 3516.29 2351.95C3521.95 2346.29 3531.63 2346.55 3532.03 2356.77C3532.3 2363.92 3523.35 2377.23 3523.35 2366.24C3523.35 2352.3 3531.59 2366.53 3524.96 2364.64C3520.57 2363.38 3524.46 2344.97 3523.35 2364.8C3523 2371.27 3511.79 2368.12 3511.79 2360.46C3511.79 2351.93 3515.31 2350.34 3523.35 2350.34" stroke="white" stroke-width="6" stroke-linecap="round"/>
<path d="M2994.33 3422.85C2994.33 3442.98 2974.46 3424.86 2984.21 3417.07C2997.18 3406.69 2998.45 3431.52 2988.55 3431.52C2966.96 3431.52 2996.9 3404.76 2996.9 3421.24C2996.9 3423.59 2992.44 3422.35 2991.44 3424.62C2990.91 3425.79 2988.55 3434.56 2988.55 3431.2C2988.55 3424.62 2985.53 3424.36 2988.55 3422.85" stroke="white" stroke-width="6" stroke-linecap="round"/>
<path d="M2893.15 2561.38C2892.83 2563.87 2892.48 2562.93 2890.26 2558.48" stroke="white" stroke-width="6" stroke-linecap="round"/>
<path d="M3546.48 3174.23C3548.68 3174.23 3547.5 3173.39 3546.48 3171.34" stroke="white" stroke-width="6" stroke-linecap="round"/>
<path d="M3748.84 2847.57C3755.42 2854.97 3746.21 2856.6 3740.17 2856.24C3734.57 2855.91 3739.61 2845.46 3741.78 2844.84C3747.25 2843.28 3743.06 2862.86 3743.06 2850.46" stroke="white" stroke-width="6" stroke-linecap="round"/>
<path d="M4532.27 3362.14C4531.75 3366.32 4523.85 3366.52 4523.59 3362.14C4523.02 3352.3 4529.05 3361.16 4527.93 3358.93C4522.68 3348.43 4540.31 3352.98 4532.27 3365.03" stroke="white" stroke-width="6" stroke-linecap="round"/>
<path d="M4040.82 3561.61C4040.82 3563.44 4040.82 3563.44 4040.82 3561.61" stroke="white" stroke-width="6" stroke-linecap="round"/>
<path d="M4280.76 2029.45C4280.76 2039.01 4277.09 2033.54 4274.34 2030.1C4270.85 2025.73 4277.87 2025.39 4277.87 2032.34" stroke="white" stroke-width="6" stroke-linecap="round"/>
<path d="M2673.44 2191.34C2673.44 2213.15 2650.35 2188.45 2669.1 2188.45C2677.31 2188.45 2671.72 2192.18 2669.91 2193.59C2666.82 2195.99 2667.66 2207.01 2667.66 2194.23" stroke="white" stroke-width="6" stroke-linecap="round"/>
<path d="M3922.29 2977.66C3928.07 2978.38 3922.29 2988.14 3922.29 2977.66" stroke="white" stroke-width="6" stroke-linecap="round"/>
<path d="M2797.75 2304.09C2797.11 2309.16 2789.07 2307.97 2789.07 2302.64C2789.07 2298.15 2796.66 2295.61 2800 2298.95C2811.58 2310.53 2769.9 2301.2 2797.75 2301.2" stroke="white" stroke-width="6" stroke-linecap="round"/>
<path d="M2682.11 3286.98C2680.92 3296.49 2682.11 3271.28 2682.11 3286.98C2682.11 3300.24 2666.71 3284.09 2679.22 3284.09" stroke="white" stroke-width="6" stroke-linecap="round"/>
<path d="M1829.3 2557.72C1826.33 2562.93 1809.05 2551.94 1824.97 2551.94C1832.05 2551.94 1834.71 2559.38 1829.95 2564.14C1822.22 2571.87 1825.64 2558.94 1821.92 2557.88C1817.29 2556.56 1811.04 2566.39 1820.63 2566.39" stroke="white" stroke-width="6" stroke-linecap="round"/>
<path d="M933.137 2355.36C943.616 2355.36 928.797 2361.14 924.464 2361.14C917.613 2361.14 915.442 2350.25 920.289 2345.4C925.951 2339.74 935.635 2340.01 936.028 2350.22C936.303 2357.37 927.355 2370.68 927.355 2359.7C927.355 2345.75 935.594 2359.99 928.961 2358.09C924.571 2356.84 928.457 2338.42 927.355 2358.25C926.996 2364.72 915.792 2361.57 915.792 2353.91C915.792 2345.39 919.306 2343.8 927.355 2343.8" stroke="white" stroke-width="6" stroke-linecap="round"/>
<path d="M398.327 3416.3C398.327 3436.43 378.464 3418.32 388.209 3410.52C401.182 3400.14 402.452 3424.97 392.545 3424.97C370.959 3424.97 400.896 3398.21 400.896 3414.7C400.896 3417.04 396.441 3415.81 395.436 3418.07C394.913 3419.25 392.545 3428.01 392.545 3424.65C392.545 3418.08 389.528 3417.81 392.545 3416.3" stroke="white" stroke-width="6" stroke-linecap="round"/>
<path d="M297.146 2554.83C296.835 2557.32 296.477 2556.38 294.256 2551.94" stroke="white" stroke-width="6" stroke-linecap="round"/>
<path d="M950.482 3167.69C952.675 3167.69 951.505 3166.84 950.482 3164.8" stroke="white" stroke-width="6" stroke-linecap="round"/>
<path d="M1152.84 2841.02C1159.42 2848.42 1150.21 2850.05 1144.17 2849.7C1138.57 2849.37 1143.61 2838.91 1145.78 2838.29C1151.25 2836.73 1147.06 2856.31 1147.06 2843.91" stroke="white" stroke-width="6" stroke-linecap="round"/>
<path d="M1936.27 3355.6C1935.75 3359.77 1927.85 3359.97 1927.59 3355.6C1927.02 3345.76 1933.05 3354.62 1931.93 3352.38C1926.68 3341.88 1944.31 3346.43 1936.27 3358.49" stroke="white" stroke-width="6" stroke-linecap="round"/>
<path d="M1444.82 3555.06C1444.82 3556.9 1444.82 3556.9 1444.82 3555.06" stroke="white" stroke-width="6" stroke-linecap="round"/>
<path d="M1684.76 2022.91C1684.76 2032.46 1681.09 2026.99 1678.34 2023.55C1674.85 2019.19 1681.87 2018.84 1681.87 2025.8" stroke="white" stroke-width="6" stroke-linecap="round"/>
<path d="M77.4405 2184.8C77.4405 2206.61 54.3524 2181.91 73.1042 2181.91C81.308 2181.91 75.7169 2185.64 73.9072 2187.05C70.8208 2189.45 71.6588 2200.47 71.6588 2187.69" stroke="white" stroke-width="6" stroke-linecap="round"/>
<path d="M1326.29 2971.11C1332.07 2971.83 1326.29 2981.59 1326.29 2971.11" stroke="white" stroke-width="6" stroke-linecap="round"/>
<path d="M201.748 2297.54C201.114 2302.61 193.075 2301.42 193.075 2296.1C193.075 2291.6 200.66 2289.07 203.996 2292.4C215.581 2303.99 173.899 2294.65 201.748 2294.65" stroke="white" stroke-width="6" stroke-linecap="round"/>
<path d="M86.1133 3280.43C84.925 3289.94 86.1133 3264.74 86.1133 3280.43C86.1133 3293.7 70.7093 3277.54 83.2224 3277.54" stroke="white" stroke-width="6" stroke-linecap="round"/>
<path d="M696.696 1114.54C699.672 1109.33 716.955 1120.32 701.032 1120.32C693.949 1120.32 691.293 1112.87 696.053 1108.11C703.78 1100.39 700.363 1113.32 704.083 1114.38C708.708 1115.7 714.958 1105.87 705.368 1105.87" stroke="white" stroke-width="6" stroke-linecap="round"/>
<path d="M1592.86 1316.9C1582.39 1316.9 1597.2 1311.12 1601.54 1311.12C1608.39 1311.12 1610.56 1322.01 1605.71 1326.85C1600.05 1332.52 1590.37 1332.25 1589.97 1322.04C1589.7 1314.88 1598.65 1301.57 1598.65 1312.56C1598.65 1326.5 1590.41 1312.27 1597.04 1314.17C1601.43 1315.42 1597.54 1333.84 1598.65 1314.01C1599.01 1307.54 1610.21 1310.69 1610.21 1318.34C1610.21 1326.87 1606.7 1328.46 1598.65 1328.46" stroke="white" stroke-width="6" stroke-linecap="round"/>
<path d="M2127.67 255.956C2127.67 235.827 2147.54 253.941 2137.79 261.738C2124.82 272.116 2123.55 247.283 2133.46 247.283C2155.04 247.283 2125.1 274.046 2125.1 257.562C2125.1 255.218 2129.56 256.45 2130.57 254.189C2131.09 253.012 2133.46 244.245 2133.46 247.605C2133.46 254.183 2136.47 254.447 2133.46 255.956" stroke="white" stroke-width="6" stroke-linecap="round"/>
<path d="M2228.85 1117.43C2229.17 1114.94 2229.52 1115.88 2231.75 1120.32" stroke="white" stroke-width="6" stroke-linecap="round"/>
<path d="M1575.52 504.57C1573.33 504.57 1574.5 505.415 1575.52 507.461" stroke="white" stroke-width="6" stroke-linecap="round"/>
<path d="M1373.16 831.235C1366.58 823.838 1375.79 822.207 1381.83 822.562C1387.43 822.892 1382.39 833.345 1380.23 833.965C1374.75 835.529 1378.94 815.947 1378.94 828.344" stroke="white" stroke-width="6" stroke-linecap="round"/>
<path d="M589.734 316.661C590.255 312.488 598.149 312.287 598.406 316.661C598.985 326.5 592.955 317.642 594.07 319.873C599.323 330.378 581.696 325.827 589.734 313.77" stroke="white" stroke-width="6" stroke-linecap="round"/>
<path d="M1081.18 117.195C1081.18 115.362 1081.18 115.362 1081.18 117.195" stroke="white" stroke-width="6" stroke-linecap="round"/>
<path d="M841.239 1649.35C841.239 1639.79 844.91 1645.27 847.663 1648.71C851.152 1653.07 844.13 1653.42 844.13 1646.46" stroke="white" stroke-width="6" stroke-linecap="round"/>
<path d="M2448.56 1487.46C2448.56 1465.65 2471.65 1490.35 2452.9 1490.35C2444.69 1490.35 2450.28 1486.62 2452.09 1485.21C2455.18 1482.81 2454.34 1471.79 2454.34 1484.57" stroke="white" stroke-width="6" stroke-linecap="round"/>
<path d="M1199.71 701.148C1193.94 700.427 1199.71 690.663 1199.71 701.148" stroke="white" stroke-width="6" stroke-linecap="round"/>
<path d="M2324.25 1374.72C2324.89 1369.65 2332.93 1370.83 2332.93 1376.16C2332.93 1380.66 2325.34 1383.19 2322.01 1379.86C2310.42 1368.27 2352.1 1377.61 2324.25 1377.61" stroke="white" stroke-width="6" stroke-linecap="round"/>
<path d="M2439.89 391.825C2441.08 382.318 2439.89 407.52 2439.89 391.825C2439.89 378.561 2455.29 394.716 2442.78 394.716" stroke="white" stroke-width="6" stroke-linecap="round"/>
<path d="M3280.7 1133.54C3283.67 1128.33 3300.96 1139.32 3285.03 1139.32C3277.95 1139.32 3275.29 1131.87 3280.05 1127.11C3287.78 1119.39 3284.36 1132.32 3288.08 1133.38C3292.71 1134.7 3298.96 1124.87 3289.37 1124.87" stroke="white" stroke-width="6" stroke-linecap="round"/>
<path d="M4176.86 1335.9C4166.39 1335.9 4181.2 1330.12 4185.54 1330.12C4192.39 1330.12 4194.56 1341.01 4189.71 1345.85C4184.05 1351.52 4174.37 1351.25 4173.97 1341.04C4173.7 1333.88 4182.65 1320.57 4182.65 1331.56C4182.65 1345.5 4174.41 1331.27 4181.04 1333.17C4185.43 1334.42 4181.54 1352.84 4182.65 1333.01C4183.01 1326.54 4194.21 1329.69 4194.21 1337.34C4194.21 1345.87 4190.7 1347.46 4182.65 1347.46" stroke="white" stroke-width="6" stroke-linecap="round"/>
<path d="M4711.67 274.956C4711.67 254.827 4731.54 272.941 4721.79 280.738C4708.82 291.116 4707.55 266.283 4717.46 266.283C4739.04 266.283 4709.1 293.046 4709.1 276.562C4709.1 274.218 4713.56 275.45 4714.57 273.189C4715.09 272.012 4717.46 263.245 4717.46 266.605C4717.46 273.183 4720.47 273.447 4717.46 274.956" stroke="white" stroke-width="6" stroke-linecap="round"/>
<path d="M4812.85 1136.43C4813.17 1133.94 4813.52 1134.88 4815.75 1139.32" stroke="white" stroke-width="6" stroke-linecap="round"/>
<path d="M4159.52 523.57C4157.33 523.57 4158.5 524.415 4159.52 526.461" stroke="white" stroke-width="6" stroke-linecap="round"/>
<path d="M3957.16 850.235C3950.58 842.838 3959.79 841.207 3965.83 841.562C3971.43 841.892 3966.39 852.345 3964.23 852.965C3958.75 854.529 3962.94 834.947 3962.94 847.344" stroke="white" stroke-width="6" stroke-linecap="round"/>
<path d="M3173.73 335.661C3174.26 331.488 3182.15 331.287 3182.41 335.661C3182.99 345.5 3176.95 336.642 3178.07 338.873C3183.32 349.378 3165.7 344.827 3173.73 332.77" stroke="white" stroke-width="6" stroke-linecap="round"/>
<path d="M3665.18 136.195C3665.18 134.362 3665.18 134.362 3665.18 136.195" stroke="white" stroke-width="6" stroke-linecap="round"/>
<path d="M3425.24 1668.35C3425.24 1658.79 3428.91 1664.27 3431.66 1667.71C3435.15 1672.07 3428.13 1672.42 3428.13 1665.46" stroke="white" stroke-width="6" stroke-linecap="round"/>
<path d="M5032.56 1506.46C5032.56 1484.65 5055.65 1509.35 5036.9 1509.35C5028.69 1509.35 5034.28 1505.62 5036.09 1504.21C5039.18 1501.81 5038.34 1490.79 5038.34 1503.57" stroke="white" stroke-width="6" stroke-linecap="round"/>
<path d="M3783.71 720.148C3777.94 719.427 3783.71 709.663 3783.71 720.148" stroke="white" stroke-width="6" stroke-linecap="round"/>
<path d="M4908.25 1393.72C4908.89 1388.65 4916.93 1389.83 4916.93 1395.16C4916.93 1399.66 4909.34 1402.19 4906.01 1398.86C4894.42 1387.27 4936.1 1396.61 4908.25 1396.61" stroke="white" stroke-width="6" stroke-linecap="round"/>
<path d="M5023.89 410.825C5025.08 401.318 5023.89 426.52 5023.89 410.825C5023.89 397.561 5039.29 413.716 5026.78 413.716" stroke="white" stroke-width="6" stroke-linecap="round"/>
<path d="M4971.8 1101.89C4973.73 1096.1 4978.11 1090.89 4981.8 1086.11C4982.14 1085.67 4983.8 1083.39 4983.8 1083.61C4983.8 1088.14 4983.01 1092.45 4982.8 1096.89C4982.53 1102.53 4984.85 1102.92 4981.02 1098.66C4978.39 1095.74 4975.91 1093.29 4973.02 1090.66C4972.01 1089.75 4967.88 1087.89 4969.41 1087.89C4973.13 1087.89 4974.71 1088.12 4977.8 1089.66C4979.88 1090.7 4981.99 1089.9 4984.24 1091.33C4985.3 1092.01 4988.55 1092.82 4989.8 1092.89C4996.65 1093.27 4990.62 1094.92 4987.8 1096.11C4983.61 1097.87 4982.49 1099.89 4977.8 1099.89C4974.08 1099.89 4970.16 1099.81 4968.8 1103.89" stroke="white" stroke-width="6" stroke-linecap="round"/>
<path d="M2269.8 2022.88C2272.54 2019.98 2274.03 2016.42 2275.8 2012.88C2276.65 2011.19 2277.13 2005.82 2278.3 2004.88C2278.9 2004.4 2278.51 2003.5 2279.02 2003.11C2280.17 2002.22 2281.48 2007.19 2281.58 2007.66C2282.06 2010.06 2280.77 2014.34 2282.35 2016.38C2283.04 2017.26 2286.91 2025.73 2285.58 2026.66C2283.19 2028.33 2281.08 2016.17 2278.8 2015.88C2275.11 2015.42 2270.25 2014.71 2266.3 2013.83C2262.15 2012.91 2264.19 2012.49 2267.58 2013.11C2270.22 2013.59 2272.85 2015.88 2275.3 2015.88C2278.95 2015.88 2282.4 2015.07 2285.8 2014.88C2286.96 2014.82 2291.17 2014.84 2290.69 2014.94C2288.68 2015.34 2287.81 2016.88 2285.8 2016.88" stroke="white" stroke-width="6" stroke-linecap="round"/>
<path d="M4421.93 2965.94C4419.19 2968.84 4417.69 2972.4 4415.93 2975.94C4415.08 2977.63 4414.6 2983 4413.43 2983.94C4412.83 2984.42 4413.21 2985.32 4412.7 2985.71C4411.56 2986.6 4410.24 2981.63 4410.15 2981.16C4409.67 2978.76 4410.96 2974.48 4409.37 2972.44C4408.69 2971.56 4404.82 2963.09 4406.15 2962.16C4408.53 2960.49 4410.64 2972.65 4412.93 2972.94C4416.61 2973.4 4421.48 2974.11 4425.43 2974.99C4429.58 2975.91 4427.53 2976.33 4424.15 2975.71C4421.5 2975.23 4418.88 2972.94 4416.43 2972.94C4412.77 2972.94 4409.33 2973.75 4405.93 2973.94C4404.77 2974 4400.56 2973.98 4401.04 2973.88C4403.04 2973.48 4403.92 2971.94 4405.93 2971.94" stroke="white" stroke-width="6" stroke-linecap="round"/>
<path d="M770.827 2952.67C771.511 2946.51 778.86 2940.16 781.605 2934.67C785.195 2927.49 784.735 2945.71 785.605 2947.67C786.424 2949.51 785.827 2952.67 785.827 2954.67C785.827 2958.02 781.827 2954.9 781.827 2952.67C781.827 2950.7 778.661 2948.97 776.827 2947.89C774.065 2946.26 773.617 2944.65 772.049 2941.67C771.434 2940.5 770.018 2936.82 768.827 2936.67C766.858 2936.42 768.887 2935.61 769.938 2935.72C772.774 2936.04 774.969 2937.6 777.605 2938.44C779.518 2939.06 784.116 2938.55 785.605 2939.89C788.027 2942.07 790.417 2942.67 793.827 2942.67C799.341 2942.67 792.884 2944.23 790.827 2945.44C788.461 2946.84 784.73 2947.07 783.049 2949.67C780.894 2953 772.235 2953.39 768.827 2955.67" stroke="white" stroke-width="6" stroke-linecap="round"/>
<path d="M1105.03 810.019C1107.58 806.622 1108.76 802.702 1111.03 799.222C1112.16 797.483 1113.89 796.074 1114.84 794.214C1115.64 792.639 1115.14 792.333 1115.46 794.897C1115.78 797.401 1115.76 799.892 1115.76 802.409C1115.76 804.416 1116.1 807.463 1116.66 809.434C1117.11 811.036 1116.95 812.728 1116.95 814.377C1116.95 814.866 1116.31 816.955 1115.76 815.483C1114.85 813.018 1114.88 811.344 1112.52 810.019C1110.67 808.985 1109.73 806.649 1108.64 805.044C1108.05 804.167 1107.71 802.964 1107.09 802.182C1106.53 801.475 1105.86 801.886 1105.33 800.946C1104.48 799.436 1099.03 799.482 1101.76 799.482C1105.79 799.482 1111.53 798.516 1115.3 799.938C1116.83 800.516 1119.9 801.336 1121.13 802.409C1123.38 804.379 1125.97 803.894 1121.72 805.922C1118.59 807.416 1115.18 807.672 1112.19 808.979C1108.86 810.431 1106.42 811.775 1102.65 811.775" stroke="white" stroke-width="6" stroke-linecap="round"/>
</svg>
