<svg width="987" height="982" viewBox="0 0 987 982" fill="none" xmlns="http://www.w3.org/2000/svg">
<path fill-rule="evenodd" clip-rule="evenodd" d="M486.665 137.161C580.862 135.617 673.742 166.463 741.495 231.963C810.37 298.549 850.001 391.132 848.481 486.95C846.984 581.359 800.633 667.58 733.533 733.969C666.849 799.948 580.44 843.932 486.665 844.934C391.932 845.945 300.602 807.178 234.472 739.297C169.154 672.248 136.874 580.577 137.919 486.95C138.952 394.402 174.718 305.701 240.045 240.179C305.45 174.578 394.07 138.678 486.665 137.161Z" stroke="white" stroke-width="6"/>
<path fill-rule="evenodd" clip-rule="evenodd" d="M499.425 3.80415C626.988 6.68933 751.927 46.991 842.93 136.43C934.694 226.616 981.396 351.295 983.882 479.935C986.42 611.275 948.006 742.757 856.468 836.978C763.721 932.442 632.524 978.724 499.425 978.587C366.468 978.45 236.919 930.47 143.115 836.245C49.5125 742.221 3.57929 612.605 3.00592 479.935C2.42991 346.651 43.8303 212.792 140.022 120.531C234.525 29.8907 368.514 0.84324 499.425 3.80415Z" stroke="white" stroke-width="6"/>
</svg>
