<svg width="490" height="288" viewBox="0 0 490 288" fill="none" xmlns="http://www.w3.org/2000/svg">
<path d="M209.242 225.895C203.954 212.44 199.071 208.449 181.875 208.449C167.943 208.449 160.051 208.144 153.25 208.449C143.102 208.905 132.335 208.449 121.284 208.449C102.25 208.449 77.6161 204.642 58.5821 204.642C14.7773 200.351 7.69696 185.538 5.9871 167.307C3.04501 135.938 4.95972 147.089 3.0451 120.935C3.0451 106.034 2.96867 95.1796 3.0148 76.6332C3.0451 64.6109 2.64245 53.6916 8.85653 43.8144C8.85653 43.8144 13.8667 33.1972 23.3208 24.0422C47.171 0.946402 83.9892 3.04995 120.618 3.04995H269.247C302.573 3.04995 335.452 4.54962 368.424 8.26122C381.452 9.72774 393.121 9.28421 405.855 11.4922C414.458 12.9839 418.764 12.6983 430.444 15.2443C439.051 17.1204 445.749 17.7474 452.575 20.3514C457.203 22.1167 463.315 26.697 467.328 29.419C479.107 37.4069 487 51.2619 487 63.1881C487 90.0831 484.541 120.838 484.541 147.507C484.541 167.487 484.541 177.865 472.454 191.186C458.168 206.929 434.736 208.449 410.346 208.449C382.009 208.449 355.316 206.573 326.606 206.573H293.306C280.593 206.573 268.618 218.623 265.694 226.49C262.77 234.356 260.672 237.979 256.555 247.176C255.279 250.029 238.831 288.711 238.033 283.535C230.657 276.082 223.293 256.532 219.316 247.62C214.011 235.732 214.531 239.351 209.242 225.895Z" fill="white" stroke="white" stroke-width="6" stroke-linecap="round"/>
<path d="M44.34 69.0938V54.0037H57.63V69.0938H54.93V56.1337H47.04V69.0938H44.34ZM73.249 69.3638C71.769 69.3638 70.489 69.0537 69.409 68.4337C68.329 67.7937 67.489 66.8937 66.889 65.7337C66.289 64.5537 65.989 63.1537 65.989 61.5337C65.989 59.9337 66.289 58.5537 66.889 57.3937C67.489 56.2137 68.329 55.3137 69.409 54.6937C70.489 54.0537 71.769 53.7337 73.249 53.7337C74.729 53.7337 76.009 54.0537 77.089 54.6937C78.189 55.3137 79.029 56.2137 79.609 57.3937C80.209 58.5537 80.509 59.9337 80.509 61.5337C80.509 63.1537 80.209 64.5537 79.609 65.7337C79.029 66.8937 78.189 67.7937 77.089 68.4337C76.009 69.0537 74.729 69.3638 73.249 69.3638ZM73.249 67.2037C74.609 67.2037 75.699 66.7237 76.519 65.7637C77.339 64.8037 77.749 63.3937 77.749 61.5337C77.749 59.6737 77.339 58.2737 76.519 57.3337C75.699 56.3937 74.609 55.9237 73.249 55.9237C71.869 55.9237 70.769 56.3937 69.949 57.3337C69.149 58.2737 68.749 59.6737 68.749 61.5337C68.749 63.3937 69.149 64.8037 69.949 65.7637C70.769 66.7237 71.869 67.2037 73.249 67.2037ZM87.8934 69.4538L86.9334 67.3237C87.6334 67.0037 88.2134 66.6237 88.6734 66.1837C89.1534 65.7237 89.5234 65.1437 89.7834 64.4437C90.0634 63.7437 90.2634 62.8737 90.3834 61.8337C90.5034 60.7937 90.5634 59.5337 90.5634 58.0537V54.0037H101.693V69.0938H98.9934V56.1337H93.0834V58.1137C93.0834 60.4337 92.9034 62.3537 92.5434 63.8737C92.2034 65.3737 91.6534 66.5637 90.8934 67.4437C90.1534 68.3237 89.1534 68.9937 87.8934 69.4538ZM110.447 75.9038L109.817 73.6838C110.757 73.4638 111.537 73.2038 112.157 72.9038C112.777 72.6238 113.297 72.2538 113.717 71.7938C114.137 71.3338 114.507 70.7538 114.827 70.0538L115.577 68.2537L115.517 69.3938L108.947 54.0037H111.887L117.137 66.9337H116.357L121.607 54.0037H124.427L117.497 70.2638C117.077 71.2438 116.617 72.0638 116.117 72.7238C115.637 73.3838 115.107 73.9238 114.527 74.3438C113.967 74.7638 113.347 75.0938 112.667 75.3338C111.987 75.5738 111.247 75.7638 110.447 75.9038ZM141.376 69.0938V63.1237C140.796 63.4437 140.176 63.6937 139.516 63.8737C138.856 64.0337 138.156 64.1137 137.416 64.1137C135.256 64.1137 133.656 63.6137 132.616 62.6137C131.596 61.5937 131.086 60.0637 131.086 58.0237V54.0037H133.786V57.8137C133.786 59.2337 134.106 60.2637 134.746 60.9037C135.406 61.5237 136.426 61.8337 137.806 61.8337C138.506 61.8337 139.136 61.7637 139.696 61.6237C140.256 61.4637 140.796 61.2137 141.316 60.8737V54.0037H144.046V69.0938H141.376ZM153.236 69.0938V54.0037H155.726V66.5137H154.916L164.276 54.0037H166.556V69.0938H164.066V56.5537H164.906L155.516 69.0938H153.236ZM178.965 69.0938V56.1937H173.535V54.0037H187.095V56.1937H181.665V69.0938H178.965ZM200.564 69.3638C199.064 69.3638 197.764 69.0537 196.664 68.4337C195.564 67.7937 194.704 66.8837 194.084 65.7037C193.484 64.5037 193.184 63.0837 193.184 61.4437C193.184 59.8237 193.494 58.4437 194.114 57.3037C194.734 56.1437 195.594 55.2637 196.694 54.6637C197.794 54.0437 199.084 53.7337 200.564 53.7337C201.544 53.7337 202.494 53.9037 203.414 54.2437C204.334 54.5637 205.084 55.0337 205.664 55.6537L204.734 57.5737C204.154 57.0137 203.514 56.6037 202.814 56.3437C202.114 56.0637 201.424 55.9237 200.744 55.9237C199.264 55.9237 198.104 56.4037 197.264 57.3637C196.424 58.3037 196.004 59.6737 196.004 61.4737C196.004 63.2937 196.424 64.6937 197.264 65.6737C198.104 66.6537 199.264 67.1437 200.744 67.1437C201.404 67.1437 202.084 67.0137 202.784 66.7537C203.484 66.4937 204.134 66.0837 204.734 65.5237L205.664 67.4137C205.064 68.0537 204.294 68.5437 203.354 68.8837C202.434 69.2038 201.504 69.3638 200.564 69.3638ZM212.529 69.0938L214.899 64.9837C215.279 64.3237 215.759 63.7937 216.339 63.3937C216.919 62.9737 217.529 62.7637 218.169 62.7637H218.649L218.619 63.0337C216.919 63.0337 215.589 62.6537 214.629 61.8937C213.669 61.1137 213.189 59.9937 213.189 58.5337C213.189 57.0937 213.659 55.9837 214.599 55.2037C215.539 54.4037 216.939 54.0037 218.799 54.0037H225.669V69.0938H223.149V63.3937H220.989C220.209 63.3937 219.539 63.5937 218.979 63.9937C218.419 64.3737 217.959 64.8837 217.599 65.5237L215.559 69.0938H212.529ZM219.279 61.5037H223.149V55.8637H219.279C218.099 55.8637 217.219 56.1137 216.639 56.6137C216.079 57.1137 215.799 57.8037 215.799 58.6837C215.799 59.5837 216.079 60.2837 216.639 60.7837C217.219 61.2637 218.099 61.5037 219.279 61.5037ZM247.25 69.0938V54.0037H260.54V69.0938H257.84V56.1337H249.95V69.0938H247.25ZM276.159 69.3638C274.679 69.3638 273.399 69.0537 272.319 68.4337C271.239 67.7937 270.399 66.8937 269.799 65.7337C269.199 64.5537 268.899 63.1537 268.899 61.5337C268.899 59.9337 269.199 58.5537 269.799 57.3937C270.399 56.2137 271.239 55.3137 272.319 54.6937C273.399 54.0537 274.679 53.7337 276.159 53.7337C277.639 53.7337 278.919 54.0537 279.999 54.6937C281.099 55.3137 281.939 56.2137 282.519 57.3937C283.119 58.5537 283.419 59.9337 283.419 61.5337C283.419 63.1537 283.119 64.5537 282.519 65.7337C281.939 66.8937 281.099 67.7937 279.999 68.4337C278.919 69.0537 277.639 69.3638 276.159 69.3638ZM276.159 67.2037C277.519 67.2037 278.609 66.7237 279.429 65.7637C280.249 64.8037 280.659 63.3937 280.659 61.5337C280.659 59.6737 280.249 58.2737 279.429 57.3337C278.609 56.3937 277.519 55.9237 276.159 55.9237C274.779 55.9237 273.679 56.3937 272.859 57.3337C272.059 58.2737 271.659 59.6737 271.659 61.5337C271.659 63.3937 272.059 64.8037 272.859 65.7637C273.679 66.7237 274.779 67.2037 276.159 67.2037ZM291.817 69.0938V54.0037H294.307V66.5137H293.497L302.857 54.0037H305.137V69.0938H302.647V56.5537H303.487L294.097 69.0938H291.817ZM298.477 52.6237C297.617 52.6237 296.827 52.4737 296.107 52.1737C295.387 51.8737 294.767 51.4437 294.247 50.8837C293.747 50.3037 293.367 49.5837 293.107 48.7237L294.667 48.1537C295.027 49.1137 295.517 49.8237 296.137 50.2837C296.757 50.7237 297.537 50.9437 298.477 50.9437C299.437 50.9437 300.227 50.7337 300.847 50.3137C301.467 49.8937 302.007 49.1837 302.467 48.1837L303.937 48.7237C303.437 50.0837 302.707 51.0737 301.747 51.6937C300.807 52.3137 299.717 52.6237 298.477 52.6237ZM314.305 69.0938V54.0037H316.585L322.135 63.8737L327.715 54.0037H329.965V69.0938H327.565V57.0637H328.225L322.825 66.6637H321.475L316.075 57.0337H316.705V69.0938H314.305ZM344.987 69.3638C343.667 69.3638 342.507 69.0537 341.507 68.4337C340.507 67.8137 339.727 66.9137 339.167 65.7337C338.607 64.5537 338.327 63.1537 338.327 61.5337C338.327 59.9137 338.607 58.5237 339.167 57.3637C339.727 56.1837 340.507 55.2837 341.507 54.6637C342.507 54.0437 343.667 53.7337 344.987 53.7337C346.327 53.7337 347.487 54.0737 348.467 54.7537C349.467 55.4137 350.127 56.3237 350.447 57.4837H350.087L350.417 54.0037H353.057C352.997 54.6037 352.937 55.2037 352.877 55.8037C352.837 56.4037 352.817 56.9937 352.817 57.5737V69.0938H350.087V65.6437H350.417C350.097 66.7837 349.437 67.6937 348.437 68.3737C347.457 69.0338 346.307 69.3638 344.987 69.3638ZM345.617 67.2037C346.977 67.2037 348.067 66.7237 348.887 65.7637C349.707 64.8037 350.117 63.3937 350.117 61.5337C350.117 59.6737 349.707 58.2737 348.887 57.3337C348.067 56.3937 346.977 55.9237 345.617 55.9237C344.257 55.9237 343.157 56.3937 342.317 57.3337C341.497 58.2737 341.087 59.6737 341.087 61.5337C341.087 63.3937 341.497 64.8037 342.317 65.7637C343.137 66.7237 344.237 67.2037 345.617 67.2037ZM365.363 69.0938V56.1937H359.933V54.0037H373.493V56.1937H368.063V69.0938H365.363ZM380.481 69.0937V54.0037H383.181V59.3437H387.621C389.581 59.3437 391.051 59.7637 392.031 60.6037C393.031 61.4237 393.531 62.6137 393.531 64.1737C393.531 65.1737 393.301 66.0437 392.841 66.7837C392.381 67.5237 391.711 68.0937 390.831 68.4937C389.951 68.8937 388.881 69.0937 387.621 69.0937H380.481ZM383.181 67.2037H387.321C388.501 67.2037 389.401 66.9637 390.021 66.4837C390.641 65.9837 390.951 65.2237 390.951 64.2037C390.951 63.1837 390.641 62.4337 390.021 61.9537C389.421 61.4737 388.521 61.2337 387.321 61.2337H383.181V67.2037ZM51.3 99.3638C48.9 99.3638 47 98.6737 45.6 97.2937C44.22 95.9137 43.53 94.0137 43.53 91.5938C43.53 89.9937 43.83 88.6137 44.43 87.4537C45.05 86.2737 45.9 85.3637 46.98 84.7237C48.06 84.0637 49.32 83.7337 50.76 83.7337C52.14 83.7337 53.31 84.0337 54.27 84.6337C55.23 85.2137 55.96 86.0437 56.46 87.1237C56.96 88.2037 57.21 89.4837 57.21 90.9637V91.8637H45.66V90.2437H55.35L54.84 90.6337C54.84 89.0737 54.49 87.8637 53.79 87.0037C53.11 86.1437 52.1 85.7137 50.76 85.7137C49.3 85.7137 48.17 86.2237 47.37 87.2437C46.57 88.2437 46.17 89.6137 46.17 91.3537V91.6237C46.17 93.4637 46.62 94.8537 47.52 95.7937C48.44 96.7337 49.71 97.2037 51.33 97.2037C52.23 97.2037 53.07 97.0737 53.85 96.8137C54.63 96.5537 55.38 96.1237 56.1 95.5237L57 97.4137C56.32 98.0337 55.47 98.5137 54.45 98.8537C53.45 99.1938 52.4 99.3638 51.3 99.3638ZM63.9499 102.994V96.9637H65.5999C66.2799 95.9437 66.7699 94.7437 67.0699 93.3637C67.3899 91.9837 67.5499 90.3437 67.5499 88.4437V84.0037H78.3799V96.9637H80.7799V102.994H78.4399V99.0938H66.3199V102.994H63.9499ZM68.1799 96.9937H75.8299V86.1037H69.9499V88.9237C69.9499 90.4437 69.7999 91.9237 69.4999 93.3637C69.1999 94.7837 68.7599 95.9937 68.1799 96.9937ZM88.0177 105.904L87.3877 103.684C88.3277 103.464 89.1077 103.204 89.7277 102.904C90.3477 102.624 90.8677 102.254 91.2877 101.794C91.7077 101.334 92.0777 100.754 92.3977 100.054L93.1477 98.2537L93.0877 99.3938L86.5177 84.0037H89.4577L94.7077 96.9337H93.9277L99.1777 84.0037H101.998L95.0677 100.264C94.6477 101.244 94.1877 102.064 93.6877 102.724C93.2077 103.384 92.6777 103.924 92.0977 104.344C91.5377 104.764 90.9177 105.094 90.2377 105.334C89.5577 105.574 88.8177 105.764 88.0177 105.904ZM121.666 99.0938V84.0037H129.106C130.886 84.0037 132.206 84.3437 133.066 85.0237C133.946 85.7037 134.386 86.6837 134.386 87.9637C134.386 88.9237 134.056 89.7337 133.396 90.3937C132.736 91.0337 131.876 91.4237 130.816 91.5637V91.1738C132.076 91.2137 133.066 91.5837 133.786 92.2837C134.526 92.9637 134.896 93.8437 134.896 94.9237C134.896 96.2037 134.406 97.2237 133.426 97.9837C132.466 98.7237 131.116 99.0938 129.376 99.0938H121.666ZM124.246 97.2937H129.196C130.216 97.2937 130.996 97.0837 131.536 96.6637C132.076 96.2237 132.346 95.6037 132.346 94.8037C132.346 93.9837 132.076 93.3637 131.536 92.9437C130.996 92.5237 130.216 92.3137 129.196 92.3137H124.246V97.2937ZM124.246 90.5137H128.866C129.806 90.5137 130.536 90.3037 131.056 89.8837C131.576 89.4637 131.836 88.8837 131.836 88.1437C131.836 87.3837 131.576 86.8037 131.056 86.4037C130.536 86.0037 129.806 85.8037 128.866 85.8037H124.246V90.5137ZM155.481 99.0938V84.0037H158.181V90.2437H166.161V84.0037H168.861V99.0938H166.161V92.4037H158.181V99.0938H155.481ZM184.988 99.3638C182.588 99.3638 180.688 98.6737 179.288 97.2937C177.908 95.9137 177.218 94.0137 177.218 91.5938C177.218 89.9937 177.518 88.6137 178.118 87.4537C178.738 86.2737 179.588 85.3637 180.668 84.7237C181.748 84.0637 183.008 83.7337 184.448 83.7337C185.828 83.7337 186.998 84.0337 187.958 84.6337C188.918 85.2137 189.648 86.0437 190.148 87.1237C190.648 88.2037 190.898 89.4837 190.898 90.9637V91.8637H179.348V90.2437H189.038L188.528 90.6337C188.528 89.0737 188.178 87.8637 187.478 87.0037C186.798 86.1437 185.788 85.7137 184.448 85.7137C182.988 85.7137 181.858 86.2237 181.058 87.2437C180.258 88.2437 179.858 89.6137 179.858 91.3537V91.6237C179.858 93.4637 180.308 94.8537 181.208 95.7937C182.128 96.7337 183.398 97.2037 185.018 97.2037C185.918 97.2037 186.758 97.0737 187.538 96.8137C188.318 96.5537 189.068 96.1237 189.788 95.5237L190.688 97.4137C190.008 98.0337 189.158 98.5137 188.138 98.8537C187.138 99.1938 186.088 99.3638 184.988 99.3638ZM199.197 99.0938V84.0037H206.637C208.417 84.0037 209.737 84.3437 210.597 85.0237C211.477 85.7037 211.917 86.6837 211.917 87.9637C211.917 88.9237 211.587 89.7337 210.927 90.3937C210.267 91.0337 209.407 91.4237 208.347 91.5637V91.1738C209.607 91.2137 210.597 91.5837 211.317 92.2837C212.057 92.9637 212.427 93.8437 212.427 94.9237C212.427 96.2037 211.937 97.2237 210.957 97.9837C209.997 98.7237 208.647 99.0938 206.907 99.0938H199.197ZM201.777 97.2937H206.727C207.747 97.2937 208.527 97.0837 209.067 96.6637C209.607 96.2237 209.877 95.6037 209.877 94.8037C209.877 93.9837 209.607 93.3637 209.067 92.9437C208.527 92.5237 207.747 92.3137 206.727 92.3137H201.777V97.2937ZM201.777 90.5137H206.397C207.337 90.5137 208.067 90.3037 208.587 89.8837C209.107 89.4637 209.367 88.8837 209.367 88.1437C209.367 87.3837 209.107 86.8037 208.587 86.4037C208.067 86.0037 207.337 85.8037 206.397 85.8037H201.777V90.5137ZM227.562 99.3638C225.162 99.3638 223.262 98.6737 221.862 97.2937C220.482 95.9137 219.792 94.0137 219.792 91.5938C219.792 89.9937 220.092 88.6137 220.692 87.4537C221.312 86.2737 222.162 85.3637 223.242 84.7237C224.322 84.0637 225.582 83.7337 227.022 83.7337C228.402 83.7337 229.572 84.0337 230.532 84.6337C231.492 85.2137 232.222 86.0437 232.722 87.1237C233.222 88.2037 233.472 89.4837 233.472 90.9637V91.8637H221.922V90.2437H231.612L231.102 90.6337C231.102 89.0737 230.752 87.8637 230.052 87.0037C229.372 86.1437 228.362 85.7137 227.022 85.7137C225.562 85.7137 224.432 86.2237 223.632 87.2437C222.832 88.2437 222.432 89.6137 222.432 91.3537V91.6237C222.432 93.4637 222.882 94.8537 223.782 95.7937C224.702 96.7337 225.972 97.2037 227.592 97.2037C228.492 97.2037 229.332 97.0737 230.112 96.8137C230.892 96.5537 231.642 96.1237 232.362 95.5237L233.262 97.4137C232.582 98.0337 231.732 98.5137 230.712 98.8537C229.712 99.1938 228.662 99.3638 227.562 99.3638ZM248.342 99.3638C246.842 99.3638 245.542 99.0537 244.442 98.4337C243.342 97.7937 242.482 96.8837 241.862 95.7037C241.262 94.5037 240.962 93.0837 240.962 91.4437C240.962 89.8237 241.272 88.4437 241.892 87.3037C242.512 86.1437 243.372 85.2637 244.472 84.6637C245.572 84.0437 246.862 83.7337 248.342 83.7337C249.322 83.7337 250.272 83.9037 251.192 84.2437C252.112 84.5637 252.862 85.0337 253.442 85.6537L252.512 87.5737C251.932 87.0137 251.292 86.6037 250.592 86.3437C249.892 86.0637 249.202 85.9237 248.522 85.9237C247.042 85.9237 245.882 86.4037 245.042 87.3637C244.202 88.3037 243.782 89.6737 243.782 91.4737C243.782 93.2937 244.202 94.6937 245.042 95.6737C245.882 96.6537 247.042 97.1437 248.522 97.1437C249.182 97.1437 249.862 97.0137 250.562 96.7537C251.262 96.4937 251.912 96.0837 252.512 95.5237L253.442 97.4137C252.842 98.0537 252.072 98.5437 251.132 98.8837C250.212 99.2038 249.282 99.3638 248.342 99.3638ZM267.956 99.3638C266.476 99.3638 265.196 99.0537 264.116 98.4337C263.036 97.7937 262.196 96.8937 261.596 95.7337C260.996 94.5537 260.696 93.1537 260.696 91.5337C260.696 89.9337 260.996 88.5537 261.596 87.3937C262.196 86.2137 263.036 85.3137 264.116 84.6937C265.196 84.0537 266.476 83.7337 267.956 83.7337C269.436 83.7337 270.716 84.0537 271.796 84.6937C272.896 85.3137 273.736 86.2137 274.316 87.3937C274.916 88.5537 275.216 89.9337 275.216 91.5337C275.216 93.1537 274.916 94.5537 274.316 95.7337C273.736 96.8937 272.896 97.7937 271.796 98.4337C270.716 99.0537 269.436 99.3638 267.956 99.3638ZM267.956 97.2037C269.316 97.2037 270.406 96.7237 271.226 95.7637C272.046 94.8037 272.456 93.3937 272.456 91.5337C272.456 89.6737 272.046 88.2737 271.226 87.3337C270.406 86.3937 269.316 85.9237 267.956 85.9237C266.576 85.9237 265.476 86.3937 264.656 87.3337C263.856 88.2737 263.456 89.6737 263.456 91.5337C263.456 93.3937 263.856 94.8037 264.656 95.7637C265.476 96.7237 266.576 97.2037 267.956 97.2037ZM283.613 99.0938V84.0037H285.893L291.443 93.8737L297.023 84.0037H299.273V99.0938H296.873V87.0637H297.533L292.133 96.6637H290.783L285.383 87.0337H286.013V99.0938H283.613ZM314.895 99.3638C313.415 99.3638 312.135 99.0537 311.055 98.4337C309.975 97.7937 309.135 96.8937 308.535 95.7337C307.935 94.5537 307.635 93.1537 307.635 91.5337C307.635 89.9337 307.935 88.5537 308.535 87.3937C309.135 86.2137 309.975 85.3137 311.055 84.6937C312.135 84.0537 313.415 83.7337 314.895 83.7337C316.375 83.7337 317.655 84.0537 318.735 84.6937C319.835 85.3137 320.675 86.2137 321.255 87.3937C321.855 88.5537 322.155 89.9337 322.155 91.5337C322.155 93.1537 321.855 94.5537 321.255 95.7337C320.675 96.8937 319.835 97.7937 318.735 98.4337C317.655 99.0537 316.375 99.3638 314.895 99.3638ZM314.895 97.2037C316.255 97.2037 317.345 96.7237 318.165 95.7637C318.985 94.8037 319.395 93.3937 319.395 91.5337C319.395 89.6737 318.985 88.2737 318.165 87.3337C317.345 86.3937 316.255 85.9237 314.895 85.9237C313.515 85.9237 312.415 86.3937 311.595 87.3337C310.795 88.2737 310.395 89.6737 310.395 91.5337C310.395 93.3937 310.795 94.8037 311.595 95.7637C312.415 96.7237 313.515 97.2037 314.895 97.2037ZM337.123 99.3638C335.623 99.3638 334.323 99.0537 333.223 98.4337C332.123 97.7937 331.263 96.8837 330.643 95.7037C330.043 94.5037 329.743 93.0837 329.743 91.4437C329.743 89.8237 330.053 88.4437 330.673 87.3037C331.293 86.1437 332.153 85.2637 333.253 84.6637C334.353 84.0437 335.643 83.7337 337.123 83.7337C338.103 83.7337 339.053 83.9037 339.973 84.2437C340.893 84.5637 341.643 85.0337 342.223 85.6537L341.293 87.5737C340.713 87.0137 340.073 86.6037 339.373 86.3437C338.673 86.0637 337.983 85.9237 337.303 85.9237C335.823 85.9237 334.663 86.4037 333.823 87.3637C332.983 88.3037 332.563 89.6737 332.563 91.4737C332.563 93.2937 332.983 94.6937 333.823 95.6737C334.663 96.6537 335.823 97.1437 337.303 97.1437C337.963 97.1437 338.643 97.0137 339.343 96.7537C340.043 96.4937 340.693 96.0837 341.293 95.5237L342.223 97.4137C341.623 98.0537 340.853 98.5437 339.913 98.8837C338.993 99.2038 338.063 99.3638 337.123 99.3638ZM353.527 99.0938V86.1937H348.097V84.0037H361.657V86.1937H356.227V99.0938H353.527ZM368.645 99.0938V84.0037H371.135V96.5137H370.325L379.685 84.0037H381.965V99.0938H379.475V86.5537H380.315L370.925 99.0938H368.645ZM393.66 93.3937V92.4337C393.66 91.4537 393.85 90.5337 394.23 89.6737C394.61 88.7937 395.29 87.8137 396.27 86.7337C397.03 85.9137 397.56 85.1937 397.86 84.5737C398.16 83.9337 398.31 83.2937 398.31 82.6537C398.31 81.8337 398.01 81.1937 397.41 80.7337C396.81 80.2737 395.99 80.0437 394.95 80.0437C394.17 80.0437 393.41 80.1537 392.67 80.3737C391.95 80.5737 391.26 80.8637 390.6 81.2437V78.7537C391.26 78.4137 392 78.1537 392.82 77.9737C393.64 77.7737 394.45 77.6737 395.25 77.6737C396.41 77.6737 397.43 77.8537 398.31 78.2137C399.19 78.5737 399.87 79.1037 400.35 79.8037C400.85 80.4837 401.1 81.3437 401.1 82.3837C401.1 83.0237 400.99 83.6437 400.77 84.2437C400.57 84.8437 400.26 85.4337 399.84 86.0137C399.44 86.5937 398.91 87.2137 398.25 87.8737C397.27 88.8537 396.58 89.7037 396.18 90.4237C395.8 91.1437 395.56 91.8837 395.46 92.6437L395.37 93.3937H393.66ZM392.85 99.0938V95.7637H396.18V99.0938H392.85ZM43.92 135.904L43.29 133.684C44.23 133.464 45.01 133.204 45.63 132.904C46.25 132.624 46.77 132.254 47.19 131.794C47.61 131.334 47.98 130.754 48.3 130.054L49.05 128.254L48.99 129.394L42.42 114.004H45.36L50.61 126.934H49.83L55.08 114.004H57.9L50.97 130.264C50.55 131.244 50.09 132.064 49.59 132.724C49.11 133.384 48.58 133.924 48 134.344C47.44 134.764 46.82 135.094 46.14 135.334C45.46 135.574 44.72 135.764 43.92 135.904ZM70.2005 129.364C68.8805 129.364 67.6505 129.194 66.5105 128.854C65.3705 128.514 64.4305 128.034 63.6905 127.414L64.5905 125.524C65.3305 126.124 66.1705 126.574 67.1105 126.874C68.0505 127.174 69.0705 127.324 70.1705 127.324C71.6105 127.324 72.6505 127.114 73.2905 126.694C73.9505 126.254 74.2805 125.624 74.2805 124.804C74.2805 124.024 74.0105 123.434 73.4705 123.034C72.9305 122.634 72.1405 122.434 71.1005 122.434H67.4405V120.454H70.7705C71.7105 120.454 72.4405 120.254 72.9605 119.854C73.5005 119.434 73.7705 118.864 73.7705 118.144C73.7705 117.404 73.4705 116.824 72.8705 116.404C72.2705 115.964 71.3505 115.744 70.1105 115.744C69.0705 115.744 68.1205 115.884 67.2605 116.164C66.4005 116.424 65.5805 116.824 64.8005 117.364L63.9305 115.594C64.7505 114.954 65.7105 114.484 66.8105 114.184C67.9105 113.884 69.1105 113.734 70.4105 113.734C72.3105 113.734 73.7605 114.104 74.7605 114.844C75.7805 115.564 76.2905 116.594 76.2905 117.934C76.2905 118.874 75.9705 119.684 75.3305 120.364C74.6905 121.024 73.8405 121.424 72.7805 121.564V121.174C73.9805 121.234 74.9505 121.604 75.6905 122.284C76.4305 122.944 76.8005 123.824 76.8005 124.924C76.8005 126.264 76.2405 127.344 75.1205 128.164C74.0005 128.964 72.3605 129.364 70.2005 129.364ZM84.9513 129.094V114.004H87.6513V120.244H95.6313V114.004H98.3313V129.094H95.6313V122.404H87.6513V129.094H84.9513ZM113.348 129.364C112.028 129.364 110.868 129.054 109.868 128.434C108.868 127.814 108.088 126.914 107.528 125.734C106.968 124.554 106.688 123.154 106.688 121.534C106.688 119.914 106.968 118.524 107.528 117.364C108.088 116.184 108.868 115.284 109.868 114.664C110.868 114.044 112.028 113.734 113.348 113.734C114.688 113.734 115.848 114.074 116.828 114.754C117.828 115.414 118.488 116.324 118.808 117.484H118.448L118.778 114.004H121.418C121.358 114.604 121.298 115.204 121.238 115.804C121.198 116.404 121.178 116.994 121.178 117.574V129.094H118.448V125.644H118.778C118.458 126.784 117.798 127.694 116.798 128.374C115.818 129.034 114.668 129.364 113.348 129.364ZM113.978 127.204C115.338 127.204 116.428 126.724 117.248 125.764C118.068 124.804 118.478 123.394 118.478 121.534C118.478 119.674 118.068 118.274 117.248 117.334C116.428 116.394 115.338 115.924 113.978 115.924C112.618 115.924 111.518 116.394 110.678 117.334C109.858 118.274 109.448 119.674 109.448 121.534C109.448 123.394 109.858 124.804 110.678 125.764C111.498 126.724 112.598 127.204 113.978 127.204ZM130.485 129.094V114.004H132.975V126.514H132.165L141.525 114.004H143.805V129.094H141.315V116.554H142.155L132.765 129.094H130.485ZM137.145 112.624C136.285 112.624 135.495 112.474 134.775 112.174C134.055 111.874 133.435 111.444 132.915 110.884C132.415 110.304 132.035 109.584 131.775 108.724L133.335 108.154C133.695 109.114 134.185 109.824 134.805 110.284C135.425 110.724 136.205 110.944 137.145 110.944C138.105 110.944 138.895 110.734 139.515 110.314C140.135 109.894 140.675 109.184 141.135 108.184L142.605 108.724C142.105 110.084 141.375 111.074 140.415 111.694C139.475 112.314 138.385 112.624 137.145 112.624ZM153.843 132.664L152.613 131.704C153.173 131.124 153.553 130.574 153.753 130.054C153.953 129.554 154.053 129.034 154.053 128.494L154.653 129.094H152.463V125.764H155.793V128.074C155.793 128.934 155.653 129.724 155.373 130.444C155.093 131.184 154.583 131.924 153.843 132.664ZM176.885 129.094V114.004H179.585V120.244H182.315L187.175 114.004H190.145L184.505 121.354L183.785 120.514C184.365 120.574 184.865 120.724 185.285 120.964C185.705 121.184 186.105 121.514 186.485 121.954C186.885 122.394 187.315 122.984 187.775 123.724L190.895 129.094H187.955L185.225 124.444C184.925 123.904 184.625 123.484 184.325 123.184C184.025 122.884 183.685 122.674 183.305 122.554C182.945 122.434 182.485 122.374 181.925 122.374H179.585V129.094H176.885ZM203.583 129.364C202.263 129.364 201.103 129.054 200.103 128.434C199.103 127.814 198.323 126.914 197.763 125.734C197.203 124.554 196.923 123.154 196.923 121.534C196.923 119.914 197.203 118.524 197.763 117.364C198.323 116.184 199.103 115.284 200.103 114.664C201.103 114.044 202.263 113.734 203.583 113.734C204.923 113.734 206.083 114.074 207.063 114.754C208.063 115.414 208.723 116.324 209.043 117.484H208.683L209.013 114.004H211.653C211.593 114.604 211.533 115.204 211.473 115.804C211.433 116.404 211.413 116.994 211.413 117.574V129.094H208.683V125.644H209.013C208.693 126.784 208.033 127.694 207.033 128.374C206.053 129.034 204.903 129.364 203.583 129.364ZM204.213 127.204C205.573 127.204 206.663 126.724 207.483 125.764C208.303 124.804 208.713 123.394 208.713 121.534C208.713 119.674 208.303 118.274 207.483 117.334C206.663 116.394 205.573 115.924 204.213 115.924C202.853 115.924 201.753 116.394 200.913 117.334C200.093 118.274 199.683 119.674 199.683 121.534C199.683 123.394 200.093 124.804 200.913 125.764C201.733 126.724 202.833 127.204 204.213 127.204ZM220.719 129.094V114.004H223.419V120.244H226.149L231.009 114.004H233.979L228.339 121.354L227.619 120.514C228.199 120.574 228.699 120.724 229.119 120.964C229.539 121.184 229.939 121.514 230.319 121.954C230.719 122.394 231.149 122.984 231.609 123.724L234.729 129.094H231.789L229.059 124.444C228.759 123.904 228.459 123.484 228.159 123.184C227.859 122.884 227.519 122.674 227.139 122.554C226.779 122.434 226.319 122.374 225.759 122.374H223.419V129.094H220.719ZM248.017 129.364C246.537 129.364 245.257 129.054 244.177 128.434C243.097 127.794 242.257 126.894 241.657 125.734C241.057 124.554 240.757 123.154 240.757 121.534C240.757 119.934 241.057 118.554 241.657 117.394C242.257 116.214 243.097 115.314 244.177 114.694C245.257 114.054 246.537 113.734 248.017 113.734C249.497 113.734 250.777 114.054 251.857 114.694C252.957 115.314 253.797 116.214 254.377 117.394C254.977 118.554 255.277 119.934 255.277 121.534C255.277 123.154 254.977 124.554 254.377 125.734C253.797 126.894 252.957 127.794 251.857 128.434C250.777 129.054 249.497 129.364 248.017 129.364ZM248.017 127.204C249.377 127.204 250.467 126.724 251.287 125.764C252.107 124.804 252.517 123.394 252.517 121.534C252.517 119.674 252.107 118.274 251.287 117.334C250.467 116.394 249.377 115.924 248.017 115.924C246.637 115.924 245.537 116.394 244.717 117.334C243.917 118.274 243.517 119.674 243.517 121.534C243.517 123.394 243.917 124.804 244.717 125.764C245.537 126.724 246.637 127.204 248.017 127.204ZM270.634 129.364C268.234 129.364 266.334 128.674 264.934 127.294C263.554 125.914 262.864 124.014 262.864 121.594C262.864 119.994 263.164 118.614 263.764 117.454C264.384 116.274 265.234 115.364 266.314 114.724C267.394 114.064 268.654 113.734 270.094 113.734C271.474 113.734 272.644 114.034 273.604 114.634C274.564 115.214 275.294 116.044 275.794 117.124C276.294 118.204 276.544 119.484 276.544 120.964V121.864H264.994V120.244H274.684L274.174 120.634C274.174 119.074 273.824 117.864 273.124 117.004C272.444 116.144 271.434 115.714 270.094 115.714C268.634 115.714 267.504 116.224 266.704 117.244C265.904 118.244 265.504 119.614 265.504 121.354V121.624C265.504 123.464 265.954 124.854 266.854 125.794C267.774 126.734 269.044 127.204 270.664 127.204C271.564 127.204 272.404 127.074 273.184 126.814C273.964 126.554 274.714 126.124 275.434 125.524L276.334 127.414C275.654 128.034 274.804 128.514 273.784 128.854C272.784 129.194 271.734 129.364 270.634 129.364ZM303.824 129.364C301.564 129.364 299.774 128.654 298.454 127.234C297.134 125.814 296.474 123.734 296.474 120.994V118.384C296.474 115.584 297.064 113.324 298.244 111.604C299.424 109.884 301.254 108.724 303.734 108.124L309.254 106.744L310.064 108.964L303.944 110.434C302.844 110.694 301.934 111.164 301.214 111.844C300.494 112.524 299.954 113.324 299.594 114.244C299.254 115.164 299.084 116.144 299.084 117.184V118.474H298.664C298.904 117.574 299.284 116.794 299.804 116.134C300.344 115.474 301.014 114.974 301.814 114.634C302.614 114.274 303.494 114.094 304.454 114.094C305.754 114.094 306.894 114.394 307.874 114.994C308.854 115.594 309.614 116.464 310.154 117.604C310.714 118.724 310.994 120.064 310.994 121.624C310.994 123.224 310.694 124.604 310.094 125.764C309.514 126.924 308.684 127.814 307.604 128.434C306.524 129.054 305.264 129.364 303.824 129.364ZM303.734 127.204C305.134 127.204 306.234 126.744 307.034 125.824C307.854 124.904 308.264 123.534 308.264 121.714C308.264 119.934 307.854 118.574 307.034 117.634C306.234 116.694 305.134 116.224 303.734 116.224C302.334 116.224 301.224 116.684 300.404 117.604C299.604 118.524 299.204 119.834 299.204 121.534C299.204 123.434 299.604 124.854 300.404 125.794C301.224 126.734 302.334 127.204 303.734 127.204ZM318.349 129.454L317.389 127.324C318.089 127.004 318.669 126.624 319.129 126.184C319.609 125.724 319.979 125.144 320.239 124.444C320.519 123.744 320.719 122.874 320.839 121.834C320.959 120.794 321.019 119.534 321.019 118.054V114.004H332.149V129.094H329.449V116.134H323.539V118.114C323.539 120.434 323.359 122.354 322.999 123.874C322.659 125.374 322.109 126.564 321.349 127.444C320.609 128.324 319.609 128.994 318.349 129.454ZM354.102 129.364C352.042 129.364 350.372 128.754 349.092 127.534C347.832 126.294 347.112 124.584 346.932 122.404H343.992V129.094H341.322V114.004H343.992V120.244H346.962C347.222 118.204 347.982 116.614 349.242 115.474C350.502 114.314 352.122 113.734 354.102 113.734C355.582 113.734 356.862 114.044 357.942 114.664C359.042 115.284 359.892 116.184 360.492 117.364C361.092 118.524 361.392 119.914 361.392 121.534C361.392 123.154 361.092 124.554 360.492 125.734C359.892 126.894 359.042 127.794 357.942 128.434C356.862 129.054 355.582 129.364 354.102 129.364ZM354.102 127.204C355.482 127.204 356.582 126.734 357.402 125.794C358.222 124.834 358.632 123.414 358.632 121.534C358.632 119.674 358.222 118.274 357.402 117.334C356.582 116.374 355.482 115.894 354.102 115.894C352.722 115.894 351.622 116.374 350.802 117.334C349.982 118.274 349.572 119.674 349.572 121.534C349.572 123.414 349.982 124.834 350.802 125.794C351.622 126.734 352.722 127.204 354.102 127.204ZM368.198 132.994V126.964H369.848C370.528 125.944 371.018 124.744 371.318 123.364C371.638 121.984 371.798 120.344 371.798 118.444V114.004H382.628V126.964H385.028V132.994H382.688V129.094H370.568V132.994H368.198ZM372.428 126.994H380.078V116.104H374.198V118.924C374.198 120.444 374.048 121.924 373.748 123.364C373.448 124.784 373.008 125.994 372.428 126.994ZM399.136 129.364C397.656 129.364 396.376 129.054 395.296 128.434C394.216 127.794 393.376 126.894 392.776 125.734C392.176 124.554 391.876 123.154 391.876 121.534C391.876 119.934 392.176 118.554 392.776 117.394C393.376 116.214 394.216 115.314 395.296 114.694C396.376 114.054 397.656 113.734 399.136 113.734C400.616 113.734 401.896 114.054 402.976 114.694C404.076 115.314 404.916 116.214 405.496 117.394C406.096 118.554 406.396 119.934 406.396 121.534C406.396 123.154 406.096 124.554 405.496 125.734C404.916 126.894 404.076 127.794 402.976 128.434C401.896 129.054 400.616 129.364 399.136 129.364ZM399.136 127.204C400.496 127.204 401.586 126.724 402.406 125.764C403.226 124.804 403.636 123.394 403.636 121.534C403.636 119.674 403.226 118.274 402.406 117.334C401.586 116.394 400.496 115.924 399.136 115.924C397.756 115.924 396.656 116.394 395.836 117.334C395.036 118.274 394.636 119.674 394.636 121.534C394.636 123.394 395.036 124.804 395.836 125.764C396.656 126.724 397.756 127.204 399.136 127.204ZM47.58 159.094V146.194H42.15V144.004H55.71V146.194H50.28V159.094H47.58ZM62.6974 159.094V144.004H65.3974V149.344H69.8374C71.7974 149.344 73.2674 149.764 74.2474 150.604C75.2474 151.424 75.7474 152.614 75.7474 154.174C75.7474 155.174 75.5174 156.044 75.0574 156.784C74.5974 157.524 73.9274 158.094 73.0474 158.494C72.1674 158.894 71.0974 159.094 69.8374 159.094H62.6974ZM65.3974 157.204H69.5374C70.7374 157.204 71.6374 156.964 72.2374 156.484C72.8574 155.984 73.1674 155.224 73.1674 154.204C73.1674 153.184 72.8574 152.434 72.2374 151.954C71.6374 151.474 70.7374 151.234 69.5374 151.234H65.3974V157.204ZM77.9374 159.094V144.004H80.6374V159.094H77.9374ZM108.795 159.364C107.295 159.364 105.995 159.054 104.895 158.434C103.795 157.794 102.935 156.884 102.315 155.704C101.715 154.504 101.415 153.084 101.415 151.444C101.415 149.824 101.725 148.444 102.345 147.304C102.965 146.144 103.825 145.264 104.925 144.664C106.025 144.044 107.315 143.734 108.795 143.734C109.775 143.734 110.725 143.904 111.645 144.244C112.565 144.564 113.315 145.034 113.895 145.654L112.965 147.574C112.385 147.014 111.745 146.604 111.045 146.344C110.345 146.064 109.655 145.924 108.975 145.924C107.495 145.924 106.335 146.404 105.495 147.364C104.655 148.304 104.235 149.674 104.235 151.474C104.235 153.294 104.655 154.694 105.495 155.674C106.335 156.654 107.495 157.144 108.975 157.144C109.635 157.144 110.315 157.014 111.015 156.754C111.715 156.494 112.365 156.084 112.965 155.524L113.895 157.414C113.295 158.054 112.525 158.544 111.585 158.884C110.665 159.204 109.735 159.364 108.795 159.364ZM121.959 159.094V144.004H124.239L129.789 153.874L135.369 144.004H137.619V159.094H135.219V147.064H135.879L130.479 156.664H129.129L123.729 147.034H124.359V159.094H121.959ZM153.241 159.364C151.761 159.364 150.481 159.054 149.401 158.434C148.321 157.794 147.481 156.894 146.881 155.734C146.281 154.554 145.981 153.154 145.981 151.534C145.981 149.934 146.281 148.554 146.881 147.394C147.481 146.214 148.321 145.314 149.401 144.694C150.481 144.054 151.761 143.734 153.241 143.734C154.721 143.734 156.001 144.054 157.081 144.694C158.181 145.314 159.021 146.214 159.601 147.394C160.201 148.554 160.501 149.934 160.501 151.534C160.501 153.154 160.201 154.554 159.601 155.734C159.021 156.894 158.181 157.794 157.081 158.434C156.001 159.054 154.721 159.364 153.241 159.364ZM153.241 157.204C154.601 157.204 155.691 156.724 156.511 155.764C157.331 154.804 157.741 153.394 157.741 151.534C157.741 149.674 157.331 148.274 156.511 147.334C155.691 146.394 154.601 145.924 153.241 145.924C151.861 145.924 150.761 146.394 149.941 147.334C149.141 148.274 148.741 149.674 148.741 151.534C148.741 153.394 149.141 154.804 149.941 155.764C150.761 156.724 151.861 157.204 153.241 157.204ZM166.559 159.094L169.679 153.724C170.139 152.984 170.559 152.394 170.939 151.954C171.319 151.514 171.719 151.184 172.139 150.964C172.579 150.724 173.089 150.574 173.669 150.514L173.009 151.354L167.279 144.004H170.279L175.169 150.244H177.479V144.004H180.179V150.244H182.459L187.319 144.004H190.349L184.619 151.354L183.929 150.514C184.509 150.574 185.009 150.724 185.429 150.964C185.869 151.184 186.289 151.514 186.689 151.954C187.089 152.394 187.509 152.984 187.949 153.724L191.069 159.094H188.159L185.429 154.444C185.109 153.904 184.799 153.484 184.499 153.184C184.199 152.884 183.859 152.674 183.479 152.554C183.119 152.434 182.659 152.374 182.099 152.374H180.179V159.094H177.479V152.374H175.529C174.969 152.374 174.499 152.434 174.119 152.554C173.759 152.674 173.429 152.884 173.129 153.184C172.849 153.484 172.539 153.904 172.199 154.444L169.499 159.094H166.559ZM204.88 159.364C202.48 159.364 200.58 158.674 199.18 157.294C197.8 155.914 197.11 154.014 197.11 151.594C197.11 149.994 197.41 148.614 198.01 147.454C198.63 146.274 199.48 145.364 200.56 144.724C201.64 144.064 202.9 143.734 204.34 143.734C205.72 143.734 206.89 144.034 207.85 144.634C208.81 145.214 209.54 146.044 210.04 147.124C210.54 148.204 210.79 149.484 210.79 150.964V151.864H199.24V150.244H208.93L208.42 150.634C208.42 149.074 208.07 147.864 207.37 147.004C206.69 146.144 205.68 145.714 204.34 145.714C202.88 145.714 201.75 146.224 200.95 147.244C200.15 148.244 199.75 149.614 199.75 151.354V151.624C199.75 153.464 200.2 154.854 201.1 155.794C202.02 156.734 203.29 157.204 204.91 157.204C205.81 157.204 206.65 157.074 207.43 156.814C208.21 156.554 208.96 156.124 209.68 155.524L210.58 157.414C209.9 158.034 209.05 158.514 208.03 158.854C207.03 159.194 205.98 159.364 204.88 159.364ZM219.09 159.094V144.004H221.67V156.964H227.82V144.004H230.4V156.964H236.52V144.004H239.13V159.094H219.09ZM248.317 159.094V144.004H251.017V149.344H255.457C257.417 149.344 258.887 149.764 259.867 150.604C260.867 151.424 261.367 152.614 261.367 154.174C261.367 155.174 261.137 156.044 260.677 156.784C260.217 157.524 259.547 158.094 258.667 158.494C257.787 158.894 256.717 159.094 255.457 159.094H248.317ZM251.017 157.204H255.157C256.337 157.204 257.237 156.964 257.857 156.484C258.477 155.984 258.787 155.224 258.787 154.204C258.787 153.184 258.477 152.434 257.857 151.954C257.257 151.474 256.357 151.234 255.157 151.234H251.017V157.204ZM281.779 159.094V144.004H284.269V156.514H283.459L292.819 144.004H295.099V159.094H292.609V146.554H293.449L284.059 159.094H281.779ZM309.398 159.364C308.078 159.364 306.848 159.194 305.708 158.854C304.568 158.514 303.628 158.034 302.888 157.414L303.788 155.524C304.528 156.124 305.368 156.574 306.308 156.874C307.248 157.174 308.268 157.324 309.368 157.324C310.808 157.324 311.848 157.114 312.488 156.694C313.148 156.254 313.478 155.624 313.478 154.804C313.478 154.024 313.208 153.434 312.668 153.034C312.128 152.634 311.338 152.434 310.298 152.434H306.638V150.454H309.968C310.908 150.454 311.638 150.254 312.158 149.854C312.698 149.434 312.968 148.864 312.968 148.144C312.968 147.404 312.668 146.824 312.068 146.404C311.468 145.964 310.548 145.744 309.308 145.744C308.268 145.744 307.318 145.884 306.458 146.164C305.598 146.424 304.778 146.824 303.998 147.364L303.128 145.594C303.948 144.954 304.908 144.484 306.008 144.184C307.108 143.884 308.308 143.734 309.608 143.734C311.508 143.734 312.958 144.104 313.958 144.844C314.978 145.564 315.488 146.594 315.488 147.934C315.488 148.874 315.168 149.684 314.528 150.364C313.888 151.024 313.038 151.424 311.978 151.564V151.174C313.178 151.234 314.148 151.604 314.888 152.284C315.628 152.944 315.998 153.824 315.998 154.924C315.998 156.264 315.438 157.344 314.318 158.164C313.198 158.964 311.558 159.364 309.398 159.364ZM323.429 159.454L322.469 157.324C323.169 157.004 323.749 156.624 324.209 156.184C324.689 155.724 325.059 155.144 325.319 154.444C325.599 153.744 325.799 152.874 325.919 151.834C326.039 150.794 326.099 149.534 326.099 148.054V144.004H337.229V159.094H334.529V146.134H328.619V148.114C328.619 150.434 328.439 152.354 328.079 153.874C327.739 155.374 327.189 156.564 326.429 157.444C325.689 158.324 324.689 158.994 323.429 159.454ZM352.853 159.364C351.373 159.364 350.093 159.054 349.013 158.434C347.933 157.794 347.093 156.894 346.493 155.734C345.893 154.554 345.593 153.154 345.593 151.534C345.593 149.934 345.893 148.554 346.493 147.394C347.093 146.214 347.933 145.314 349.013 144.694C350.093 144.054 351.373 143.734 352.853 143.734C354.333 143.734 355.613 144.054 356.693 144.694C357.793 145.314 358.633 146.214 359.212 147.394C359.813 148.554 360.113 149.934 360.113 151.534C360.113 153.154 359.813 154.554 359.212 155.734C358.633 156.894 357.793 157.794 356.693 158.434C355.613 159.054 354.333 159.364 352.853 159.364ZM352.853 157.204C354.213 157.204 355.303 156.724 356.123 155.764C356.943 154.804 357.353 153.394 357.353 151.534C357.353 149.674 356.943 148.274 356.123 147.334C355.303 146.394 354.213 145.924 352.853 145.924C351.473 145.924 350.373 146.394 349.553 147.334C348.753 148.274 348.353 149.674 348.353 151.534C348.353 153.394 348.753 154.804 349.553 155.764C350.373 156.724 351.473 157.204 352.853 157.204ZM368.51 159.094V144.004H375.95C377.73 144.004 379.05 144.344 379.91 145.024C380.79 145.704 381.23 146.684 381.23 147.964C381.23 148.924 380.9 149.734 380.24 150.394C379.58 151.034 378.72 151.424 377.66 151.564V151.174C378.92 151.214 379.91 151.584 380.63 152.284C381.37 152.964 381.74 153.844 381.74 154.924C381.74 156.204 381.25 157.224 380.27 157.984C379.31 158.724 377.96 159.094 376.22 159.094H368.51ZM371.09 157.294H376.04C377.06 157.294 377.84 157.084 378.38 156.664C378.92 156.224 379.19 155.604 379.19 154.804C379.19 153.984 378.92 153.364 378.38 152.944C377.84 152.524 377.06 152.314 376.04 152.314H371.09V157.294ZM371.09 150.514H375.71C376.65 150.514 377.38 150.304 377.9 149.884C378.42 149.464 378.68 148.884 378.68 148.144C378.68 147.384 378.42 146.804 377.9 146.404C377.38 146.004 376.65 145.804 375.71 145.804H371.09V150.514ZM389.914 159.094V144.004H392.404V156.514H391.594L400.954 144.004H403.234V159.094H400.744V146.554H401.584L392.194 159.094H389.914ZM415.643 159.094V146.194H410.213V144.004H423.773V146.194H418.343V159.094H415.643ZM430.76 159.094V144.004H433.46V149.344H437.9C439.86 149.344 441.33 149.764 442.31 150.604C443.31 151.424 443.81 152.614 443.81 154.174C443.81 155.174 443.58 156.044 443.12 156.784C442.66 157.524 441.99 158.094 441.11 158.494C440.23 158.894 439.16 159.094 437.9 159.094H430.76ZM433.46 157.204H437.6C438.78 157.204 439.68 156.964 440.3 156.484C440.92 155.984 441.23 155.224 441.23 154.204C441.23 153.184 440.92 152.434 440.3 151.954C439.7 151.474 438.8 151.234 437.6 151.234H433.46V157.204Z" fill="black"/>
</svg>
