<svg width="490" height="239" viewBox="0 0 490 239" fill="none" xmlns="http://www.w3.org/2000/svg">
<path d="M78.9654 35.0997C85.5894 30.5087 92.496 25.9471 104.432 22.1029C114.575 18.4902 122.664 18.0804 128.044 17.8078C144.75 16.9615 161.207 17.6773 177.949 16.8292C217.098 14.846 256.14 14.4176 295.2 12.4389C312.581 11.5585 329.609 10.1398 347.695 8.57454C357.289 7.7442 369.624 7.89409 380.289 7.35379C389.849 6.86952 399.321 6.38971 410.929 5.88772C444.125 4.89475 463.489 17.3381 474.2 45.7339C475.648 49.5735 476.871 59.388 477.262 63.3972C477.427 65.0933 478.519 72.4001 478.908 75.9559C479.457 80.9659 480.821 85.2854 481.232 90.4717C482.387 105.038 484.302 119.717 485.052 134.523C485.659 146.489 487.443 172.243 484.376 183.892C481.01 196.675 473.158 201 463.43 205.871C440.189 217.507 417.531 213.865 395.397 214.987L297.064 219.968C274.832 221.094 252.707 220.666 230.432 221.794C212.288 222.713 194.806 226.698 176.8 227.61L127.678 230.098C120.716 230.451 96.7959 231.663 89.929 221.552C85.8471 215.542 84.221 205.012 83.9904 200.462C83.7599 195.911 83.8186 197.071 82.7548 189.905C80.8226 176.892 80.3434 168.155 75.385 164.821C70.4265 161.488 64.2092 158.941 64.2092 158.941C64.2092 158.941 51.8142 153.124 43.918 150.672C36.8841 148.488 19.6482 144.186 12.4215 141.883C-0.232857 135.896 10.6635 131.47 16.4493 128.079C22.235 124.687 31.4399 119.418 38.771 115.173C44.5587 111.822 49.1998 108.838 53.1906 105.479C58.6978 100.845 62.2927 96.7164 62.2927 96.7164C62.2927 96.7164 67.3219 89.2439 66.882 80.5592C66.4689 72.4049 66.9932 67.6864 67.4097 59.6152C67.8201 51.6622 72.6251 39.4941 78.9654 35.0997Z" fill="white" stroke="white" stroke-width="6" stroke-linecap="round"/>
<path d="M104.326 85.86L103.563 70.7894L106.259 70.6528L106.575 76.8848L109.302 76.7466L113.84 70.2688L116.806 70.1185L111.545 77.7444L110.783 76.9419C111.366 76.9725 111.873 77.097 112.304 77.3155C112.735 77.5139 113.151 77.8233 113.553 78.2435C113.974 78.6627 114.434 79.2302 114.931 79.946L118.318 85.1512L115.382 85.3L112.42 80.794C112.093 80.2699 111.773 79.8656 111.458 79.5812C111.143 79.2968 110.793 79.1042 110.407 79.0036C110.042 78.902 109.579 78.8653 109.02 78.8937L106.683 79.012L107.023 85.7234L104.326 85.86ZM131.603 84.7486C130.125 84.8235 128.83 84.5787 127.72 84.0141C126.609 83.4295 125.725 82.5732 125.067 81.445C124.408 80.2969 124.038 78.9139 123.956 77.296C123.875 75.698 124.105 74.3046 124.645 73.1157C125.185 71.9069 125.978 70.9655 127.025 70.2917C128.072 69.5979 129.334 69.2135 130.812 69.1386C132.29 69.0638 133.584 69.3186 134.695 69.9031C135.825 70.4667 136.71 71.323 137.349 72.4722C138.007 73.6003 138.376 74.9634 138.457 76.5613C138.539 78.1793 138.31 79.5927 137.771 80.8015C137.25 81.9894 136.457 82.9307 135.391 83.6255C134.343 84.2994 133.081 84.6737 131.603 84.7486ZM131.493 82.5914C132.852 82.5226 133.916 81.988 134.686 80.9878C135.457 79.9875 135.795 78.5586 135.701 76.701C135.607 74.8434 135.126 73.4659 134.26 72.5686C133.393 71.6713 132.281 71.257 130.923 71.3258C129.544 71.3956 128.47 71.9207 127.698 72.901C126.947 73.8803 126.618 75.2987 126.712 77.1563C126.806 79.0139 127.277 80.4019 128.125 81.3202C128.992 82.2375 130.115 82.6612 131.493 82.5914ZM153.802 83.6241C152.303 83.7 150.989 83.4561 149.86 82.8926C148.729 82.309 147.824 81.4437 147.145 80.2966C146.485 79.1285 146.113 77.7255 146.03 76.0876C145.948 74.4697 146.188 73.0757 146.75 71.9058C147.31 70.716 148.125 69.7936 149.193 69.1387C150.26 68.4638 151.533 68.089 153.011 68.0141C153.99 67.9645 154.947 68.0862 155.883 68.3792C156.818 68.6523 157.591 69.0837 158.201 69.6736L157.37 71.6382C156.762 71.1083 156.102 70.7312 155.39 70.5069C154.677 70.2627 153.98 70.1578 153.301 70.1922C151.823 70.2671 150.689 70.8051 149.899 71.8064C149.107 72.7877 148.757 74.1772 148.848 75.9749C148.94 77.7925 149.431 79.1695 150.319 80.1058C151.208 81.042 152.391 81.4727 153.869 81.3978C154.528 81.3644 155.201 81.2002 155.887 80.9051C156.573 80.61 157.201 80.1677 157.772 79.578L158.796 81.4185C158.23 82.0881 157.485 82.6164 156.564 83.0035C155.661 83.3697 154.74 83.5765 153.802 83.6241ZM166.935 82.6884L166.172 67.6177L168.449 67.5024L174.491 77.0789L179.565 66.9393L181.812 66.8254L182.575 81.8961L180.178 82.0175L179.57 70.0029L180.229 69.9695L175.322 79.8305L173.973 79.8988L168.093 70.5543L168.722 70.5224L169.332 82.567L166.935 82.6884ZM198.191 81.3754C196.713 81.4503 195.419 81.2054 194.309 80.6409C193.198 80.0563 192.313 79.2 191.656 78.0718C190.997 76.9237 190.626 75.5407 190.544 73.9227C190.463 72.3248 190.693 70.9314 191.234 69.7425C191.773 68.5336 192.567 67.5923 193.614 66.9185C194.66 66.2246 195.922 65.8403 197.4 65.7654C198.878 65.6905 200.173 65.9454 201.284 66.5299C202.414 67.0935 203.298 67.9498 203.937 69.099C204.595 70.2271 204.965 71.5902 205.046 73.1881C205.128 74.806 204.899 76.2194 204.359 77.4283C203.839 78.6161 203.045 79.5575 201.979 80.2523C200.932 80.9262 199.669 81.3005 198.191 81.3754ZM198.082 79.2182C199.44 79.1494 200.504 78.6148 201.275 77.6146C202.045 76.6143 202.383 75.1854 202.289 73.3278C202.195 71.4701 201.715 70.0927 200.848 69.1954C199.982 68.2981 198.869 67.8838 197.511 67.9526C196.133 68.0224 195.058 68.5475 194.287 69.5278C193.535 70.507 193.207 71.9255 193.301 73.7831C193.395 75.6407 193.866 77.0287 194.713 77.947C195.581 78.8642 196.704 79.288 198.082 79.2182ZM213.684 73.2011L213.572 70.9839L222.231 70.5453L222.343 72.7624L213.684 73.2011ZM231.651 79.41L230.888 64.3394L244.161 63.667L244.924 78.7376L242.228 78.8742L241.572 65.9308L233.692 66.33L234.348 79.2734L231.651 79.41ZM254.499 84.7409L253.589 66.764C253.559 66.1847 253.509 65.5965 253.439 64.9993C253.369 64.4021 253.278 63.8059 253.168 63.2107L255.805 63.0771L256.31 66.536L255.981 66.5527C256.222 65.379 256.815 64.4377 257.76 63.729C258.705 63.0003 259.856 62.6015 261.214 62.5327C262.553 62.4649 263.737 62.7153 264.767 63.284C265.797 63.8526 266.611 64.7125 267.21 65.8636C267.828 66.9938 268.178 68.3679 268.26 69.9858C268.342 71.6037 268.133 73.0161 267.634 74.2229C267.154 75.4287 266.431 76.3665 265.463 77.0363C264.496 77.7061 263.343 78.0749 262.005 78.1427C260.667 78.2105 259.492 77.9396 258.479 77.3301C257.486 76.6995 256.791 75.8235 256.394 74.7022L256.723 74.6855L257.226 84.6028L254.499 84.7409ZM261.267 76.0174C262.645 75.9475 263.719 75.4125 264.489 74.4122C265.26 73.412 265.598 71.9831 265.504 70.1254C265.41 68.2678 264.929 66.8904 264.063 65.993C263.196 65.0957 262.074 64.682 260.696 64.7518C259.318 64.8216 258.243 65.3467 257.471 66.327C256.72 67.3062 256.391 68.7247 256.485 70.5823C256.58 72.4399 257.05 73.8279 257.898 74.7462C258.765 75.6634 259.888 76.0872 261.267 76.0174ZM277.038 77.1108L276.275 62.0401L278.762 61.9142L279.395 74.4081L278.586 74.4491L287.301 61.4816L289.578 61.3662L290.341 76.4369L287.855 76.5629L287.22 64.039L288.059 63.9965L279.315 76.9955L277.038 77.1108ZM299.498 75.9731L298.734 60.9024L306.165 60.526C307.943 60.4359 309.278 60.7087 310.171 61.3443C311.085 61.9789 311.574 62.9354 311.638 64.2138C311.687 65.1725 311.398 65.9982 310.773 66.6908C310.146 67.3633 309.307 67.7963 308.255 67.9898L308.235 67.6003C309.496 67.5765 310.503 67.8959 311.258 68.5586C312.031 69.2003 312.445 70.0604 312.5 71.1391C312.565 72.4174 312.127 73.4609 311.187 74.2695C310.265 75.0571 308.936 75.495 307.198 75.583L299.498 75.9731ZM301.983 74.0448L306.927 73.7944C307.946 73.7428 308.714 73.4936 309.232 73.0468C309.749 72.5801 309.988 71.9472 309.947 71.1482C309.906 70.3293 309.605 69.7237 309.044 69.3316C308.484 68.9394 307.694 68.7692 306.675 68.8208L301.732 69.0712L301.983 74.0448ZM301.64 67.2735L306.255 67.0398C307.193 66.9922 307.912 66.7456 308.41 66.2998C308.908 65.854 309.138 65.2616 309.101 64.5226C309.062 63.7635 308.773 63.1974 308.234 62.8243C307.694 62.4511 306.955 62.2883 306.016 62.3358L301.402 62.5696L301.64 67.2735ZM327.839 74.8077C325.443 74.9291 323.51 74.3361 322.042 73.0287C320.594 71.7203 319.809 69.8576 319.686 67.4407C319.605 65.8428 319.835 64.4494 320.376 63.2605C320.935 62.0507 321.738 61.0988 322.784 60.405C323.83 59.6912 325.071 59.2979 326.509 59.225C327.888 59.1552 329.071 59.3956 330.06 59.9463C331.049 60.477 331.82 61.269 332.374 62.3223C332.928 63.3756 333.242 64.6413 333.317 66.1194L333.362 67.0183L321.827 67.6026L321.745 65.9847L331.423 65.4945L330.933 65.9098C330.854 64.3518 330.444 63.161 329.701 62.3375C328.978 61.513 327.948 61.1347 326.61 61.2025C325.151 61.2764 324.049 61.8429 323.301 62.902C322.553 63.9412 322.223 65.3297 322.311 67.0675L322.324 67.3371C322.418 69.1748 322.937 70.5402 323.884 71.4335C324.85 72.3258 326.142 72.7309 327.76 72.6489C328.659 72.6034 329.491 72.4311 330.257 72.1319C331.023 71.8328 331.75 71.3654 332.439 70.7298L333.434 72.5718C332.786 73.2254 331.961 73.7478 330.96 74.139C329.978 74.5291 328.938 74.752 327.839 74.8077ZM345.253 73.6552L344.601 60.7717L339.178 61.0464L339.067 58.8592L352.61 58.1732L352.72 60.3604L347.297 60.6351L347.95 73.5186L345.253 73.6552ZM360.363 67.1825L358.742 51.7948L362.128 51.6233L362.041 67.0975L360.363 67.1825ZM359.842 72.9162L359.674 69.5904L362.999 69.4219L363.168 72.7477L359.842 72.9162ZM105.844 115.822L105.081 100.751L107.777 100.614L108.093 106.846L116.063 106.443L115.747 100.211L118.443 100.074L119.207 115.145L116.51 115.281L116.172 108.6L108.202 109.004L108.541 115.685L105.844 115.822ZM134.218 114.655C132.9 114.721 131.726 114.47 130.696 113.902C129.666 113.333 128.841 112.474 128.222 111.324C127.603 110.174 127.253 108.789 127.171 107.172C127.089 105.554 127.298 104.151 127.799 102.964C128.298 101.758 129.032 100.819 129.999 100.149C130.966 99.4797 132.109 99.1114 133.427 99.0446C134.766 98.9768 135.941 99.2577 136.955 99.8872C137.987 100.496 138.692 101.371 139.07 102.514L138.711 102.532L138.864 99.0395L141.501 98.906C141.471 99.5082 141.442 100.111 141.412 100.713C141.402 101.314 141.412 101.904 141.442 102.484L142.025 113.989L139.298 114.127L139.123 110.681L139.453 110.665C139.191 111.819 138.578 112.762 137.614 113.491C136.668 114.2 135.537 114.588 134.218 114.655ZM134.738 112.465C136.096 112.397 137.161 111.862 137.931 110.862C138.701 109.862 139.04 108.433 138.945 106.575C138.851 104.717 138.371 103.34 137.505 102.443C136.638 101.545 135.526 101.131 134.167 101.2C132.809 101.269 131.734 101.794 130.943 102.775C130.172 103.755 129.833 105.174 129.927 107.032C130.021 108.89 130.502 110.277 131.369 111.194C132.237 112.112 133.36 112.535 134.738 112.465ZM148.982 113.636L151.826 108.115C152.248 107.353 152.638 106.743 152.995 106.284C153.352 105.825 153.735 105.475 154.143 105.234C154.571 104.972 155.073 104.797 155.649 104.708L155.032 105.58L148.938 98.5292L151.934 98.3775L157.133 104.362L159.44 104.245L159.124 98.0132L161.821 97.8766L162.137 104.109L164.414 103.993L168.952 97.5154L171.978 97.3621L166.627 104.993L165.896 104.189C166.478 104.219 166.985 104.344 167.416 104.562C167.867 104.76 168.303 105.068 168.725 105.487C169.147 105.906 169.596 106.474 170.073 107.191L173.461 112.396L170.554 112.544L167.593 108.038C167.246 107.514 166.915 107.111 166.6 106.826C166.285 106.542 165.935 106.349 165.549 106.249C165.184 106.147 164.721 106.11 164.162 106.139L162.244 106.236L162.584 112.947L159.888 113.084L159.548 106.372L157.6 106.471C157.041 106.499 156.575 106.583 156.201 106.722C155.848 106.86 155.529 107.087 155.245 107.402C154.98 107.715 154.692 108.15 154.379 108.707L151.918 113.488L148.982 113.636ZM180.303 112.05L179.54 96.979L181.817 96.8636L187.859 106.44L192.933 96.3005L195.18 96.1867L195.943 111.257L193.546 111.379L192.938 99.3642L193.597 99.3308L188.689 109.192L187.341 109.26L181.461 99.9156L182.09 99.8837L182.7 111.928L180.303 112.05ZM205.103 110.793L204.34 95.7227L206.827 95.5967L207.46 108.091L206.651 108.132L215.366 95.1641L217.643 95.0488L218.406 110.119L215.92 110.245L215.285 97.7215L216.124 97.679L207.381 110.678L205.103 110.793ZM239.957 109.028L239.194 93.9571L241.89 93.8205L242.206 100.052L250.176 99.6487L249.86 93.4167L252.557 93.2801L253.32 108.351L250.624 108.487L250.285 101.806L242.315 102.21L242.654 108.891L239.957 109.028ZM268.331 107.861C267.013 107.927 265.839 107.677 264.809 107.108C263.779 106.539 262.954 105.68 262.335 104.53C261.716 103.38 261.366 101.996 261.284 100.378C261.202 98.7598 261.411 97.3574 261.912 96.1705C262.411 94.9637 263.145 94.0254 264.112 93.3556C265.079 92.6858 266.222 92.3175 267.541 92.2507C268.879 92.1829 270.055 92.4638 271.068 93.0934C272.1 93.7019 272.805 94.5774 273.183 95.7197L272.824 95.7379L272.977 92.2457L275.614 92.1121C275.584 92.7144 275.555 93.3166 275.525 93.9189C275.516 94.5201 275.526 95.1104 275.555 95.6897L276.138 107.195L273.411 107.333L273.237 103.887L273.566 103.871C273.304 105.025 272.691 105.968 271.727 106.697C270.782 107.406 269.65 107.794 268.331 107.861ZM268.851 105.672C270.21 105.603 271.274 105.068 272.044 104.068C272.815 103.068 273.153 101.639 273.059 99.7812C272.965 97.9236 272.484 96.5461 271.618 95.6488C270.751 94.7515 269.639 94.3372 268.281 94.406C266.922 94.4749 265.848 94.9999 265.056 95.9812C264.285 96.9615 263.946 98.3804 264.04 100.238C264.134 102.096 264.615 103.483 265.483 104.4C266.35 105.318 267.473 105.741 268.851 105.672ZM301.062 105.932L300.41 93.0488L294.987 93.3235L294.876 91.1363L308.418 90.4503L308.529 92.6375L303.106 92.9122L303.759 105.796L301.062 105.932ZM322.016 105.141C320.698 105.208 319.524 104.957 318.494 104.388C317.464 103.82 316.639 102.96 316.02 101.81C315.401 100.66 315.051 99.276 314.969 97.6581C314.887 96.0402 315.096 94.6378 315.597 93.451C316.096 92.2441 316.83 91.3058 317.797 90.636C318.765 89.9662 319.907 89.5979 321.226 89.5312C322.564 89.4634 323.74 89.7442 324.753 90.3738C325.785 90.9823 326.49 91.8578 326.868 93.0001L326.509 93.0183L326.662 89.5261L329.299 89.3925C329.269 89.9948 329.24 90.5971 329.21 91.1993C329.201 91.8006 329.211 92.3908 329.24 92.9701L329.823 104.475L327.096 104.613L326.922 101.168L327.251 101.151C326.989 102.306 326.376 103.248 325.412 103.978C324.467 104.687 323.335 105.074 322.016 105.141ZM322.536 102.952C323.895 102.883 324.959 102.349 325.729 101.348C326.5 100.348 326.838 98.9192 326.744 97.0616C326.65 95.204 326.169 93.8265 325.303 92.9292C324.436 92.0319 323.324 91.6177 321.966 91.6865C320.607 91.7553 319.533 92.2803 318.741 93.2616C317.97 94.2419 317.631 95.6609 317.725 97.5185C317.819 99.3761 318.3 100.764 319.168 101.681C320.035 102.598 321.158 103.022 322.536 102.952ZM339.535 110.472L338.624 92.4947C338.595 91.9154 338.545 91.3272 338.475 90.73C338.404 90.1328 338.314 89.5366 338.204 88.9414L340.841 88.8079L341.346 92.2667L341.017 92.2834C341.258 91.1097 341.851 90.1685 342.796 89.4598C343.74 88.731 344.892 88.3323 346.25 88.2635C347.588 88.1957 348.772 88.4461 349.802 89.0147C350.833 89.5833 351.647 90.4432 352.246 91.5944C352.864 92.7246 353.214 94.0986 353.296 95.7165C353.378 97.3345 353.169 98.7468 352.67 99.9537C352.19 101.159 351.466 102.097 350.499 102.767C349.532 103.437 348.379 103.806 347.041 103.873C345.702 103.941 344.527 103.67 343.515 103.061C342.522 102.43 341.827 101.554 341.429 100.433L341.759 100.416L342.261 110.334L339.535 110.472ZM346.302 101.748C347.68 101.678 348.755 101.143 349.525 100.143C350.296 99.1427 350.634 97.7138 350.54 95.8562C350.445 93.9986 349.965 92.6211 349.099 91.7238C348.232 90.8265 347.11 90.4127 345.732 90.4825C344.353 90.5524 343.278 91.0774 342.507 92.0577C341.756 93.037 341.427 94.4554 341.521 96.313C341.615 98.1707 342.086 99.5586 342.934 100.477C343.801 101.394 344.924 101.818 346.302 101.748ZM369.039 102.759C366.642 102.881 364.709 102.288 363.241 100.98C361.793 99.6717 361.008 97.809 360.886 95.3921C360.805 93.7942 361.035 92.4008 361.575 91.2119C362.135 90.0021 362.937 89.0502 363.984 88.3564C365.029 87.6426 366.271 87.2493 367.709 87.1764C369.087 87.1066 370.271 87.347 371.26 87.8977C372.248 88.4284 373.019 89.2204 373.573 90.2737C374.127 91.327 374.441 92.5927 374.516 94.0708L374.562 94.9697L363.027 95.554L362.945 93.9361L372.622 93.4459L372.133 93.8612C372.054 92.3032 371.643 91.1124 370.9 90.2889C370.178 89.4644 369.147 89.0861 367.809 89.1539C366.351 89.2278 365.248 89.7943 364.501 90.8534C363.752 91.8926 363.422 93.2811 363.51 95.0189L363.524 95.2885C363.617 97.1262 364.137 98.4916 365.083 99.3849C366.049 100.277 367.342 100.682 368.959 100.6C369.858 100.555 370.691 100.382 371.457 100.083C372.222 99.7842 372.95 99.3168 373.638 98.6812L374.633 100.523C373.985 101.177 373.16 101.699 372.159 102.09C371.177 102.481 370.137 102.703 369.039 102.759ZM382.516 102.166L381.449 100.088C382.132 99.7328 382.692 99.3239 383.13 98.8612C383.586 98.3775 383.926 97.7795 384.15 97.0673C384.394 96.354 384.55 95.475 384.617 94.4303C384.685 93.3855 384.681 92.1241 384.606 90.646L384.401 86.6012L395.517 86.0381L396.28 101.109L393.584 101.245L392.928 88.302L387.025 88.601L387.126 90.5784C387.243 92.8955 387.16 94.8221 386.878 96.3584C386.614 97.8736 386.125 99.0899 385.41 100.007C384.716 100.924 383.751 101.643 382.516 102.166ZM405.442 100.645L404.679 85.5739L407.375 85.4373L407.691 91.6694L410.418 91.5312L414.956 85.0533L417.922 84.9031L412.661 92.529L411.899 91.7265C412.482 91.7571 412.989 91.8816 413.42 92.1001C413.851 92.2985 414.267 92.6079 414.669 93.0281C415.091 93.4473 415.55 94.0148 416.047 94.7305L419.434 99.9358L416.498 100.085L413.536 95.5786C413.209 95.0545 412.889 94.6502 412.574 94.3658C412.259 94.0813 411.909 93.8888 411.523 93.7882C411.158 93.6866 410.695 93.6499 410.136 93.6782L407.799 93.7966L408.139 100.508L405.442 100.645ZM426.188 106.412L425.447 104.227C426.374 103.96 427.14 103.661 427.744 103.33C428.349 103.019 428.85 102.623 429.246 102.142C429.642 101.662 429.983 101.064 430.267 100.348L430.925 98.5127L430.922 99.6542L423.582 84.6163L426.518 84.4676L432.416 97.1154L431.637 97.1549L436.226 83.9758L439.042 83.8332L432.944 100.423C432.574 101.423 432.156 102.265 431.69 102.95C431.244 103.633 430.742 104.199 430.184 104.648C429.646 105.096 429.044 105.457 428.377 105.731C427.71 106.005 426.98 106.232 426.188 106.412ZM446.993 102.114L445.716 101.218C446.246 100.61 446.597 100.042 446.771 99.5122C446.945 99.0028 447.019 98.4784 446.991 97.9391L447.621 98.5079L445.434 98.6187L445.265 95.293L448.591 95.1245L448.708 97.4316C448.751 98.2905 448.652 99.0865 448.408 99.8198C448.166 100.573 447.694 101.338 446.993 102.114ZM117.039 145.293L116.737 139.331C116.174 139.68 115.568 139.961 114.918 140.174C114.267 140.367 113.572 140.482 112.833 140.52C110.675 140.629 109.052 140.211 107.963 139.264C106.892 138.297 106.306 136.795 106.203 134.758L105.999 130.743L108.696 130.606L108.888 134.411C108.96 135.83 109.332 136.842 110.004 137.449C110.694 138.035 111.728 138.293 113.107 138.223C113.806 138.187 114.431 138.086 114.984 137.918C115.535 137.729 116.061 137.452 116.564 137.087L116.216 130.225L118.943 130.087L119.706 145.158L117.039 145.293ZM132.121 144.529L131.468 131.645L126.045 131.92L125.934 129.733L139.477 129.047L139.588 131.234L134.165 131.509L134.817 144.392L132.121 144.529ZM153.587 143.712C152.108 143.787 150.814 143.542 149.704 142.977C148.593 142.393 147.709 141.536 147.051 140.408C146.392 139.26 146.022 137.877 145.94 136.259C145.859 134.661 146.089 133.268 146.629 132.079C147.169 130.87 147.962 129.929 149.009 129.255C150.055 128.561 151.318 128.177 152.796 128.102C154.274 128.027 155.568 128.282 156.679 128.866C157.809 129.43 158.694 130.286 159.333 131.435C159.991 132.564 160.36 133.927 160.441 135.525C160.523 137.143 160.294 138.556 159.755 139.765C159.234 140.953 158.441 141.894 157.375 142.589C156.327 143.263 155.065 143.637 153.587 143.712ZM153.477 141.555C154.836 141.486 155.9 140.951 156.67 139.951C157.441 138.951 157.779 137.522 157.685 135.664C157.591 133.807 157.11 132.429 156.244 131.532C155.377 130.635 154.265 130.22 152.907 130.289C151.528 130.359 150.454 130.884 149.682 131.864C148.931 132.844 148.602 134.262 148.696 136.12C148.79 137.977 149.261 139.365 150.109 140.283C150.976 141.201 152.099 141.624 153.477 141.555ZM175.785 142.587C173.528 142.702 171.705 142.083 170.315 140.732C168.924 139.38 168.16 137.336 168.021 134.6L167.889 131.993C167.748 129.197 168.223 126.91 169.314 125.132C170.406 123.355 172.175 122.104 174.621 121.379L180.064 119.722L180.985 121.898L174.948 123.676C173.862 123.991 172.977 124.506 172.292 125.222C171.608 125.937 171.109 126.764 170.796 127.701C170.503 128.637 170.383 129.624 170.435 130.663L170.501 131.951L170.081 131.972C170.275 131.061 170.615 130.263 171.101 129.578C171.607 128.891 172.251 128.358 173.033 127.978C173.814 127.578 174.683 127.354 175.642 127.305C176.94 127.239 178.094 127.481 179.103 128.031C180.112 128.58 180.915 129.411 181.512 130.522C182.128 131.612 182.476 132.937 182.555 134.495C182.636 136.092 182.406 137.486 181.865 138.675C181.345 139.863 180.561 140.793 179.514 141.467C178.466 142.141 177.224 142.514 175.785 142.587ZM175.586 140.435C176.985 140.364 178.06 139.849 178.812 138.889C179.585 137.929 179.925 136.54 179.833 134.723C179.743 132.945 179.264 131.607 178.398 130.71C177.551 129.812 176.429 129.398 175.031 129.469C173.633 129.54 172.547 130.055 171.775 131.015C171.022 131.975 170.689 133.303 170.775 135.001C170.871 136.899 171.343 138.297 172.189 139.195C173.056 140.092 174.188 140.505 175.586 140.435ZM191.289 141.532L190.526 126.461L193.222 126.324L193.493 131.657L197.927 131.433C199.884 131.334 201.374 131.679 202.395 132.468C203.435 133.236 203.995 134.4 204.074 135.958C204.124 136.956 203.939 137.837 203.517 138.599C203.095 139.362 202.454 139.965 201.596 140.409C200.737 140.853 199.679 141.107 198.42 141.17L191.289 141.532ZM193.89 139.507L198.025 139.298C199.223 139.237 200.11 138.952 200.685 138.442C201.279 137.912 201.55 137.137 201.499 136.118C201.447 135.099 201.099 134.366 200.456 133.918C199.832 133.469 198.921 133.275 197.723 133.336L193.588 133.545L193.89 139.507ZM206.51 140.761L205.746 125.69L208.443 125.553L209.206 140.624L206.51 140.761ZM230.766 139.532L230.003 124.461L243.276 123.789L244.039 138.859L241.343 138.996L240.687 126.053L232.807 126.452L233.463 139.395L230.766 139.532ZM253.614 144.863L252.703 126.886C252.674 126.306 252.624 125.718 252.554 125.121C252.484 124.524 252.393 123.928 252.283 123.332L254.92 123.199L255.425 126.658L255.096 126.674C255.337 125.501 255.93 124.56 256.875 123.851C257.819 123.122 258.971 122.723 260.329 122.655C261.667 122.587 262.852 122.837 263.882 123.406C264.912 123.974 265.726 124.834 266.325 125.985C266.943 127.116 267.293 128.49 267.375 130.108C267.457 131.725 267.248 133.138 266.749 134.345C266.269 135.551 265.546 136.488 264.578 137.158C263.611 137.828 262.458 138.197 261.12 138.264C259.782 138.332 258.606 138.061 257.594 137.452C256.601 136.821 255.906 135.945 255.509 134.824L255.838 134.807L256.341 144.725L253.614 144.863ZM260.381 136.139C261.76 136.069 262.834 135.534 263.604 134.534C264.375 133.534 264.713 132.105 264.619 130.247C264.525 128.39 264.044 127.012 263.178 126.115C262.311 125.218 261.189 124.804 259.811 124.874C258.432 124.943 257.358 125.468 256.586 126.449C255.835 127.428 255.506 128.846 255.6 130.704C255.694 132.562 256.165 133.95 257.013 134.868C257.88 135.785 259.003 136.209 260.381 136.139ZM276.153 137.233L275.39 122.162L277.877 122.036L278.509 134.53L277.701 134.571L286.416 121.603L288.693 121.488L289.456 136.559L286.969 136.685L286.335 124.161L287.174 124.118L278.43 137.117L276.153 137.233ZM298.613 136.095L297.849 121.024L308.546 120.482L308.656 122.67L300.687 123.073L301.339 135.957L298.613 136.095ZM323.051 135.127C321.573 135.202 320.279 134.957 319.169 134.393C318.058 133.808 317.173 132.952 316.515 131.824C315.856 130.675 315.486 129.292 315.404 127.675C315.323 126.077 315.553 124.683 316.093 123.494C316.633 122.285 317.426 121.344 318.474 120.67C319.52 119.976 320.782 119.592 322.26 119.517C323.738 119.442 325.033 119.697 326.144 120.282C327.274 120.845 328.158 121.702 328.797 122.851C329.455 123.979 329.824 125.342 329.905 126.94C329.987 128.558 329.759 129.971 329.219 131.18C328.699 132.368 327.905 133.309 326.839 134.004C325.792 134.678 324.529 135.052 323.051 135.127ZM322.942 132.97C324.3 132.901 325.364 132.367 326.135 131.366C326.905 130.366 327.243 128.937 327.149 127.08C327.055 125.222 326.575 123.844 325.708 122.947C324.842 122.05 323.729 121.636 322.371 121.704C320.993 121.774 319.918 122.299 319.146 123.28C318.395 124.259 318.066 125.677 318.16 127.535C318.255 129.393 318.725 130.78 319.573 131.699C320.44 132.616 321.563 133.04 322.942 132.97ZM341.91 133.901L341.258 121.018L335.835 121.293L335.724 119.106L349.267 118.419L349.377 120.607L343.954 120.881L344.607 133.765L341.91 133.901ZM363.376 133.084C361.898 133.159 360.604 132.914 359.494 132.35C358.383 131.765 357.499 130.909 356.841 129.781C356.182 128.633 355.811 127.25 355.729 125.632C355.648 124.034 355.878 122.64 356.419 121.452C356.958 120.243 357.752 119.301 358.799 118.627C359.845 117.934 361.107 117.549 362.585 117.474C364.063 117.4 365.358 117.654 366.469 118.239C367.599 118.802 368.483 119.659 369.122 120.808C369.78 121.936 370.15 123.299 370.231 124.897C370.313 126.515 370.084 127.928 369.544 129.137C369.024 130.325 368.23 131.266 367.164 131.961C366.117 132.635 364.854 133.01 363.376 133.084ZM363.267 130.927C364.625 130.858 365.689 130.324 366.46 129.324C367.23 128.323 367.568 126.894 367.474 125.037C367.38 123.179 366.9 121.802 366.033 120.904C365.167 120.007 364.054 119.593 362.696 119.662C361.318 119.731 360.243 120.256 359.472 121.237C358.72 122.216 358.392 123.634 358.486 125.492C358.58 127.35 359.051 128.738 359.898 129.656C360.766 130.573 361.889 130.997 363.267 130.927ZM379 132.023L378.236 116.952L385.667 116.576C387.445 116.485 388.78 116.758 389.673 117.394C390.587 118.028 391.076 118.985 391.14 120.263C391.189 121.222 390.9 122.048 390.275 122.74C389.648 123.413 388.809 123.846 387.757 124.039L387.737 123.65C388.998 123.626 390.005 123.945 390.76 124.608C391.533 125.25 391.947 126.11 392.002 127.189C392.067 128.467 391.629 129.51 390.689 130.319C389.767 131.107 388.438 131.545 386.7 131.633L379 132.023ZM381.485 130.094L386.429 129.844C387.448 129.792 388.216 129.543 388.734 129.096C389.251 128.63 389.49 127.997 389.449 127.198C389.408 126.379 389.107 125.773 388.546 125.381C387.985 124.989 387.196 124.819 386.177 124.87L381.234 125.121L381.485 130.094ZM381.142 123.323L385.757 123.089C386.695 123.042 387.414 122.795 387.912 122.349C388.41 121.904 388.64 121.311 388.603 120.572C388.564 119.813 388.275 119.247 387.736 118.874C387.196 118.501 386.457 118.338 385.518 118.385L380.904 118.619L381.142 123.323ZM400.377 130.94L399.613 115.869L402.1 115.743L402.733 128.237L401.924 128.278L410.639 115.31L412.916 115.195L413.68 130.266L411.193 130.392L410.558 117.868L411.397 117.825L402.654 130.824L400.377 130.94ZM426.072 129.638L425.419 116.755L419.996 117.029L419.886 114.842L433.428 114.156L433.539 116.343L428.116 116.618L428.769 129.501L426.072 129.638ZM441.17 128.873L440.407 113.803L443.103 113.666L443.373 118.999L447.808 118.774C449.765 118.675 451.255 119.02 452.276 119.81C453.316 120.578 453.876 121.741 453.954 123.299C454.005 124.298 453.819 125.178 453.397 125.941C452.975 126.703 452.335 127.306 451.476 127.75C450.618 128.194 449.559 128.448 448.301 128.512L441.17 128.873ZM443.771 126.849L447.906 126.64C449.084 126.58 449.971 126.295 450.566 125.784C451.16 125.253 451.431 124.478 451.379 123.46C451.328 122.441 450.98 121.708 450.337 121.26C449.713 120.811 448.802 120.616 447.604 120.677L443.469 120.887L443.771 126.849ZM115.455 175.682C113.957 175.758 112.643 175.514 111.513 174.951C110.382 174.367 109.477 173.502 108.798 172.355C108.138 171.186 107.767 169.783 107.684 168.146C107.602 166.528 107.841 165.134 108.403 163.964C108.963 162.774 109.778 161.852 110.846 161.197C111.913 160.522 113.186 160.147 114.664 160.072C115.643 160.022 116.6 160.144 117.536 160.437C118.471 160.71 119.244 161.142 119.855 161.732L119.023 163.696C118.415 163.166 117.756 162.789 117.043 162.565C116.33 162.321 115.634 162.216 114.955 162.25C113.477 162.325 112.342 162.863 111.552 163.864C110.761 164.846 110.41 166.235 110.502 168.033C110.594 169.851 111.084 171.227 111.972 172.164C112.861 173.1 114.044 173.531 115.522 173.456C116.181 173.422 116.854 173.258 117.54 172.963C118.226 172.668 118.854 172.226 119.425 171.636L120.45 173.477C119.883 174.146 119.139 174.674 118.217 175.061C117.314 175.428 116.394 175.634 115.455 175.682ZM128.589 174.746L127.825 159.676L135.256 159.299C137.033 159.209 138.369 159.482 139.262 160.118C140.176 160.752 140.665 161.709 140.729 162.987C140.778 163.946 140.489 164.771 139.864 165.464C139.237 166.137 138.398 166.57 137.346 166.763L137.326 166.374C138.587 166.35 139.594 166.669 140.349 167.332C141.122 167.974 141.536 168.834 141.591 169.912C141.656 171.191 141.218 172.234 140.277 173.043C139.356 173.83 138.027 174.268 136.289 174.356L128.589 174.746ZM131.074 172.818L136.018 172.568C137.037 172.516 137.805 172.267 138.323 171.82C138.84 171.353 139.078 170.72 139.038 169.922C138.997 169.103 138.695 168.497 138.135 168.105C137.574 167.713 136.785 167.542 135.766 167.594L130.822 167.845L131.074 172.818ZM130.731 166.047L135.345 165.813C136.284 165.766 137.003 165.519 137.501 165.073C137.999 164.627 138.229 164.035 138.192 163.296C138.153 162.537 137.864 161.971 137.325 161.598C136.785 161.224 136.046 161.062 135.107 161.109L130.493 161.343L130.731 166.047ZM156.421 173.607C154.943 173.682 153.649 173.437 152.539 172.872C151.428 172.288 150.543 171.431 149.885 170.303C149.227 169.155 148.856 167.772 148.774 166.154C148.693 164.556 148.923 163.163 149.464 161.974C150.003 160.765 150.796 159.824 151.844 159.15C152.89 158.456 154.152 158.072 155.63 157.997C157.108 157.922 158.403 158.177 159.514 158.761C160.644 159.325 161.528 160.181 162.167 161.33C162.825 162.458 163.195 163.822 163.276 165.42C163.358 167.037 163.129 168.451 162.589 169.66C162.069 170.848 161.275 171.789 160.209 172.484C159.162 173.158 157.899 173.532 156.421 173.607ZM156.312 171.45C157.67 171.381 158.734 170.846 159.505 169.846C160.275 168.846 160.613 167.417 160.519 165.559C160.425 163.702 159.945 162.324 159.078 161.427C158.212 160.529 157.099 160.115 155.741 160.184C154.363 160.254 153.288 160.779 152.517 161.759C151.765 162.738 151.437 164.157 151.531 166.014C151.625 167.872 152.096 169.26 152.943 170.178C153.811 171.096 154.933 171.519 156.312 171.45ZM172.045 172.545L171.281 157.474L173.768 157.348L174.401 169.842L173.592 169.883L182.307 156.916L184.584 156.8L185.348 171.871L182.861 171.997L182.226 159.473L183.065 159.431L174.322 172.43L172.045 172.545ZM177.863 155.759C177.004 155.803 176.207 155.693 175.473 155.43C174.739 155.166 174.098 154.768 173.55 154.235C173.022 153.681 172.606 152.982 172.302 152.136L173.832 151.488C174.24 152.428 174.765 153.112 175.408 153.54C176.049 153.949 176.839 154.129 177.778 154.081C178.737 154.033 179.515 153.783 180.113 153.332C180.711 152.881 181.214 152.145 181.623 151.123L183.119 151.588C182.688 152.971 182.009 153.997 181.082 154.665C180.174 155.332 179.101 155.696 177.863 155.759ZM213.474 170.717C211.976 170.793 210.662 170.549 209.532 169.985C208.401 169.402 207.496 168.536 206.817 167.389C206.157 166.221 205.785 164.818 205.702 163.18C205.62 161.562 205.86 160.168 206.422 158.998C206.982 157.808 207.797 156.886 208.865 156.231C209.932 155.556 211.205 155.182 212.683 155.107C213.662 155.057 214.619 155.179 215.555 155.472C216.49 155.745 217.263 156.176 217.874 156.766L217.042 158.731C216.434 158.201 215.774 157.824 215.062 157.599C214.349 157.355 213.653 157.25 212.973 157.285C211.495 157.36 210.361 157.898 209.571 158.899C208.779 159.88 208.429 161.27 208.52 163.067C208.612 164.885 209.103 166.262 209.991 167.198C210.88 168.135 212.063 168.565 213.541 168.49C214.2 168.457 214.873 168.293 215.559 167.998C216.245 167.703 216.873 167.26 217.444 166.671L218.469 168.511C217.902 169.181 217.157 169.709 216.236 170.096C215.333 170.462 214.412 170.669 213.474 170.717ZM226.533 176.603L225.791 174.418C226.719 174.151 227.485 173.852 228.089 173.521C228.694 173.21 229.194 172.814 229.591 172.333C229.987 171.853 230.327 171.255 230.611 170.539L231.269 168.704L231.267 169.845L223.927 154.807L226.863 154.659L232.76 167.306L231.981 167.346L236.57 154.167L239.387 154.024L233.288 170.614C232.918 171.614 232.5 172.456 232.034 173.141C231.588 173.824 231.086 174.39 230.528 174.839C229.99 175.287 229.388 175.648 228.721 175.922C228.054 176.196 227.325 176.423 226.533 176.603ZM247.399 168.728L246.636 153.657L259.909 152.985L260.672 168.055L257.976 168.192L257.32 155.248L249.44 155.648L250.096 168.591L247.399 168.728ZM276.794 167.509C274.397 167.63 272.465 167.037 270.997 165.73C269.549 164.422 268.764 162.559 268.641 160.142C268.56 158.544 268.79 157.151 269.33 155.962C269.89 154.752 270.693 153.8 271.739 153.106C272.784 152.392 274.026 151.999 275.464 151.926C276.842 151.856 278.026 152.097 279.015 152.648C280.003 153.178 280.774 153.97 281.328 155.024C281.882 156.077 282.197 157.343 282.272 158.821L282.317 159.72L270.782 160.304L270.7 158.686L280.378 158.196L279.888 158.611C279.809 157.053 279.398 155.862 278.656 155.039C277.933 154.214 276.903 153.836 275.564 153.904C274.106 153.978 273.003 154.544 272.256 155.603C271.508 156.642 271.178 158.031 271.266 159.769L271.279 160.038C271.372 161.876 271.892 163.241 272.838 164.135C273.805 165.027 275.097 165.432 276.715 165.35C277.614 165.305 278.446 165.132 279.212 164.833C279.978 164.534 280.705 164.067 281.394 163.431L282.388 165.273C281.741 165.927 280.916 166.449 279.914 166.84C278.933 167.23 277.893 167.453 276.794 167.509ZM291.39 172.988L290.479 155.011C290.45 154.431 290.4 153.843 290.33 153.246C290.26 152.649 290.169 152.052 290.059 151.457L292.696 151.324L293.201 154.783L292.872 154.799C293.113 153.626 293.706 152.684 294.651 151.976C295.595 151.247 296.747 150.848 298.105 150.779C299.443 150.712 300.628 150.962 301.658 151.531C302.688 152.099 303.502 152.959 304.101 154.11C304.719 155.24 305.069 156.614 305.151 158.232C305.233 159.85 305.024 161.263 304.525 162.47C304.045 163.675 303.322 164.613 302.354 165.283C301.387 165.953 300.234 166.322 298.896 166.389C297.558 166.457 296.382 166.186 295.37 165.577C294.377 164.946 293.682 164.07 293.285 162.949L293.614 162.932L294.117 172.849L291.39 172.988ZM298.157 164.264C299.536 164.194 300.61 163.659 301.38 162.659C302.151 161.659 302.489 160.23 302.395 158.372C302.301 156.514 301.82 155.137 300.954 154.24C300.087 153.342 298.965 152.929 297.587 152.998C296.208 153.068 295.134 153.593 294.362 154.574C293.611 155.553 293.282 156.971 293.376 158.829C293.47 160.687 293.941 162.074 294.789 162.993C295.656 163.91 296.779 164.334 298.157 164.264ZM313.799 158.245L313.686 156.028L322.345 155.589L322.458 157.806L313.799 158.245ZM331.252 171.299L330.51 169.113C331.438 168.846 332.204 168.547 332.808 168.216C333.413 167.905 333.914 167.509 334.31 167.028C334.706 166.548 335.046 165.95 335.33 165.235L335.988 163.399L335.986 164.54L328.646 149.503L331.582 149.354L337.479 162.002L336.7 162.041L341.29 148.862L344.106 148.719L338.007 165.309C337.638 166.309 337.22 167.151 336.754 167.836C336.308 168.519 335.806 169.085 335.248 169.534C334.71 169.982 334.107 170.343 333.44 170.617C332.773 170.891 332.044 171.118 331.252 171.299ZM349.781 163.541L352.626 158.02C353.048 157.258 353.437 156.647 353.795 156.189C354.152 155.73 354.535 155.38 354.943 155.139C355.37 154.877 355.872 154.702 356.448 154.612L355.832 155.485L349.737 148.434L352.733 148.282L357.933 154.267L360.24 154.15L359.924 147.918L362.621 147.781L362.936 154.013L365.213 153.898L369.751 147.42L372.778 147.267L367.427 154.897L366.695 154.093C367.277 154.124 367.784 154.248 368.216 154.467C368.667 154.664 369.103 154.973 369.524 155.392C369.946 155.811 370.396 156.379 370.872 157.096L374.26 162.301L371.354 162.448L368.392 157.942C368.045 157.419 367.714 157.016 367.4 156.731C367.085 156.447 366.735 156.254 366.349 156.154C365.983 156.052 365.521 156.015 364.962 156.044L363.044 156.141L363.384 162.852L360.687 162.989L360.348 156.277L358.4 156.376C357.841 156.404 357.374 156.488 357.001 156.627C356.647 156.765 356.329 156.992 356.044 157.306C355.78 157.62 355.491 158.055 355.179 158.612L352.718 163.392L349.781 163.541ZM381.103 161.955L380.339 146.884L382.826 146.758L383.459 159.252L382.65 159.293L391.365 146.325L393.642 146.21L394.406 161.281L391.919 161.407L391.284 148.883L392.123 148.84L383.38 161.839L381.103 161.955ZM403.562 160.817L402.799 145.746L405.495 145.61L405.811 151.842L413.781 151.438L413.465 145.206L416.162 145.069L416.925 160.14L414.229 160.276L413.89 153.595L405.92 153.999L406.259 160.68L403.562 160.817Z" fill="black"/>
</svg>
