<svg width="472" height="325" viewBox="0 0 472 325" fill="none" xmlns="http://www.w3.org/2000/svg">
<path d="M200.377 263.068C195.918 250.136 188.18 242.075 171.314 242.075C157.651 242.075 148.337 241.717 141.667 242.075C131.713 242.61 121.154 242.075 110.315 242.075C91.6474 242.075 67.487 237.607 48.819 237.607C5.85633 232.57 8.7687 217.159 6.86891 195.787C3.88937 162.268 6.8535 172.057 4.9757 141.36C4.9757 123.871 3.50176 106.578 3 89.3639V89.3588C3.00048 76.9985 3.00069 71.498 5.82006 56.8246C7.34601 48.8827 8.78126 40.156 16.1431 31.6249C39.5348 4.51755 73.7376 3 109.662 3H255.434C288.119 3 320.366 4.76015 352.704 9.11643C365.482 10.8377 376.926 10.3171 389.415 12.9086C397.852 14.6594 402.076 14.3241 413.532 17.3124C421.973 19.5144 428.542 20.2502 435.237 23.3065C439.775 25.3785 445.77 30.7543 449.707 33.9491C461.259 43.3245 469 59.5859 469 73.5836C469 105.15 466.588 141.246 466.588 172.547C466.588 195.998 467.755 205.382 452.772 225.142C438.76 243.62 417.74 243.075 393.82 243.075C366.027 243.075 339.847 240.874 311.689 240.874H277.872C265.404 240.874 254.909 264.153 250.757 273.571C246.604 282.99 247.013 283.295 242.546 293.198C241.09 296.428 225.603 327.285 224.82 321.21C217.004 308.5 214.475 299.5 211.861 292.585C206.242 277.719 204.835 276 200.377 263.068Z" fill="white" stroke="white" stroke-width="6" stroke-linecap="round"/>
<path d="M40.34 73V57.91H47.78C49.56 57.91 50.88 58.25 51.74 58.93C52.62 59.61 53.06 60.59 53.06 61.87C53.06 62.83 52.73 63.64 52.07 64.3C51.41 64.94 50.55 65.33 49.49 65.47V65.08C50.75 65.12 51.74 65.49 52.46 66.19C53.2 66.87 53.57 67.75 53.57 68.83C53.57 70.11 53.08 71.13 52.1 71.89C51.14 72.63 49.79 73 48.05 73H40.34ZM42.92 71.2H47.87C48.89 71.2 49.67 70.99 50.21 70.57C50.75 70.13 51.02 69.51 51.02 68.71C51.02 67.89 50.75 67.27 50.21 66.85C49.67 66.43 48.89 66.22 47.87 66.22H42.92V71.2ZM42.92 64.42H47.54C48.48 64.42 49.21 64.21 49.73 63.79C50.25 63.37 50.51 62.79 50.51 62.05C50.51 61.29 50.25 60.71 49.73 60.31C49.21 59.91 48.48 59.71 47.54 59.71H42.92V64.42ZM61.7443 73V57.91H64.4443V63.25H68.8843C70.8443 63.25 72.3143 63.67 73.2943 64.51C74.2943 65.33 74.7943 66.52 74.7943 68.08C74.7943 69.08 74.5643 69.95 74.1043 70.69C73.6443 71.43 72.9743 72 72.0943 72.4C71.2143 72.8 70.1443 73 68.8843 73H61.7443ZM64.4443 71.11H68.5843C69.7843 71.11 70.6843 70.87 71.2843 70.39C71.9043 69.89 72.2143 69.13 72.2143 68.11C72.2143 67.09 71.9043 66.34 71.2843 65.86C70.6843 65.38 69.7843 65.14 68.5843 65.14H64.4443V71.11ZM76.9843 73V57.91H79.6843V73H76.9843ZM95.4315 73.27C93.1715 73.27 91.3815 72.56 90.0615 71.14C88.7415 69.72 88.0815 67.64 88.0815 64.9V62.29C88.0815 59.49 88.6715 57.23 89.8515 55.51C91.0315 53.79 92.8615 52.63 95.3415 52.03L100.861 50.65L101.671 52.87L95.5515 54.34C94.4515 54.6 93.5415 55.07 92.8215 55.75C92.1015 56.43 91.5615 57.23 91.2015 58.15C90.8615 59.07 90.6915 60.05 90.6915 61.09V62.38H90.2715C90.5115 61.48 90.8915 60.7 91.4115 60.04C91.9515 59.38 92.6215 58.88 93.4215 58.54C94.2215 58.18 95.1015 58 96.0615 58C97.3615 58 98.5015 58.3 99.4815 58.9C100.461 59.5 101.221 60.37 101.761 61.51C102.321 62.63 102.601 63.97 102.601 65.53C102.601 67.13 102.301 68.51 101.701 69.67C101.121 70.83 100.291 71.72 99.2115 72.34C98.1315 72.96 96.8715 73.27 95.4315 73.27ZM95.3415 71.11C96.7415 71.11 97.8415 70.65 98.6415 69.73C99.4615 68.81 99.8715 67.44 99.8715 65.62C99.8715 63.84 99.4615 62.48 98.6415 61.54C97.8415 60.6 96.7415 60.13 95.3415 60.13C93.9415 60.13 92.8315 60.59 92.0115 61.51C91.2115 62.43 90.8115 63.74 90.8115 65.44C90.8115 67.34 91.2115 68.76 92.0115 69.7C92.8315 70.64 93.9415 71.11 95.3415 71.11ZM117.929 73.27C115.529 73.27 113.629 72.58 112.229 71.2C110.849 69.82 110.159 67.92 110.159 65.5C110.159 63.9 110.459 62.52 111.059 61.36C111.679 60.18 112.529 59.27 113.609 58.63C114.689 57.97 115.949 57.64 117.389 57.64C118.769 57.64 119.939 57.94 120.899 58.54C121.859 59.12 122.589 59.95 123.089 61.03C123.589 62.11 123.839 63.39 123.839 64.87V65.77H112.289V64.15H121.979L121.469 64.54C121.469 62.98 121.119 61.77 120.419 60.91C119.739 60.05 118.729 59.62 117.389 59.62C115.929 59.62 114.799 60.13 113.999 61.15C113.199 62.15 112.799 63.52 112.799 65.26V65.53C112.799 67.37 113.249 68.76 114.149 69.7C115.069 70.64 116.339 71.11 117.959 71.11C118.859 71.11 119.699 70.98 120.479 70.72C121.259 70.46 122.009 70.03 122.729 69.43L123.629 71.32C122.949 71.94 122.099 72.42 121.079 72.76C120.079 73.1 119.029 73.27 117.929 73.27ZM132.229 79.48V61.48C132.229 60.9 132.209 60.31 132.169 59.71C132.129 59.11 132.069 58.51 131.989 57.91H134.629L134.959 61.39H134.629C134.929 60.23 135.569 59.32 136.549 58.66C137.529 57.98 138.699 57.64 140.059 57.64C141.399 57.64 142.569 57.95 143.569 58.57C144.569 59.19 145.339 60.09 145.879 61.27C146.439 62.43 146.719 63.82 146.719 65.44C146.719 67.06 146.439 68.46 145.879 69.64C145.339 70.82 144.569 71.72 143.569 72.34C142.569 72.96 141.399 73.27 140.059 73.27C138.719 73.27 137.559 72.94 136.579 72.28C135.619 71.6 134.969 70.69 134.629 69.55H134.959V79.48H132.229ZM139.429 71.11C140.809 71.11 141.909 70.63 142.729 69.67C143.549 68.71 143.959 67.3 143.959 65.44C143.959 63.58 143.549 62.18 142.729 61.24C141.909 60.3 140.809 59.83 139.429 59.83C138.049 59.83 136.949 60.3 136.129 61.24C135.329 62.18 134.929 63.58 134.929 65.44C134.929 67.3 135.329 68.71 136.129 69.67C136.949 70.63 138.049 71.11 139.429 71.11ZM155.125 73V57.91H157.615V70.42H156.805L166.165 57.91H168.445V73H165.955V60.46H166.795L157.405 73H155.125ZM190.024 73V57.91L203.314 57.91V73H200.614V60.04L192.724 60.04V73H190.024ZM212.573 79.48V61.48C212.573 60.9 212.553 60.31 212.513 59.71C212.473 59.11 212.413 58.51 212.333 57.91H214.973L215.303 61.39H214.973C215.273 60.23 215.913 59.32 216.893 58.66C217.873 57.98 219.043 57.64 220.403 57.64C221.743 57.64 222.913 57.95 223.913 58.57C224.913 59.19 225.683 60.09 226.223 61.27C226.783 62.43 227.063 63.82 227.063 65.44C227.063 67.06 226.783 68.46 226.223 69.64C225.683 70.82 224.913 71.72 223.913 72.34C222.913 72.96 221.743 73.27 220.403 73.27C219.063 73.27 217.903 72.94 216.923 72.28C215.963 71.6 215.313 70.69 214.973 69.55H215.303V79.48H212.573ZM219.773 71.11C221.153 71.11 222.253 70.63 223.073 69.67C223.893 68.71 224.303 67.3 224.303 65.44C224.303 63.58 223.893 62.18 223.073 61.24C222.253 60.3 221.153 59.83 219.773 59.83C218.393 59.83 217.293 60.3 216.473 61.24C215.673 62.18 215.273 63.58 215.273 65.44C215.273 67.3 215.673 68.71 216.473 69.67C217.293 70.63 218.393 71.11 219.773 71.11ZM241.919 73.27C240.439 73.27 239.159 72.96 238.079 72.34C236.999 71.7 236.159 70.8 235.559 69.64C234.959 68.46 234.659 67.06 234.659 65.44C234.659 63.84 234.959 62.46 235.559 61.3C236.159 60.12 236.999 59.22 238.079 58.6C239.159 57.96 240.439 57.64 241.919 57.64C243.399 57.64 244.679 57.96 245.759 58.6C246.859 59.22 247.699 60.12 248.279 61.3C248.879 62.46 249.179 63.84 249.179 65.44C249.179 67.06 248.879 68.46 248.279 69.64C247.699 70.8 246.859 71.7 245.759 72.34C244.679 72.96 243.399 73.27 241.919 73.27ZM241.919 71.11C243.279 71.11 244.369 70.63 245.189 69.67C246.009 68.71 246.419 67.3 246.419 65.44C246.419 63.58 246.009 62.18 245.189 61.24C244.369 60.3 243.279 59.83 241.919 59.83C240.539 59.83 239.439 60.3 238.619 61.24C237.819 62.18 237.419 63.58 237.419 65.44C237.419 67.3 237.819 68.71 238.619 69.67C239.439 70.63 240.539 71.11 241.919 71.11ZM256.016 76.9V70.87H257.666C258.346 69.85 258.836 68.65 259.136 67.27C259.456 65.89 259.616 64.25 259.616 62.35V57.91H270.446V70.87H272.846V76.9H270.506V73H258.386V76.9H256.016ZM260.246 70.9H267.896V60.01H262.016V62.83C262.016 64.35 261.866 65.83 261.566 67.27C261.266 68.69 260.826 69.9 260.246 70.9ZM280.084 79.81L279.454 77.59C280.394 77.37 281.174 77.11 281.794 76.81C282.414 76.53 282.934 76.16 283.354 75.7C283.774 75.24 284.144 74.66 284.464 73.96L285.214 72.16L285.154 73.3L278.584 57.91H281.524L286.774 70.84H285.994L291.244 57.91H294.064L287.134 74.17C286.714 75.15 286.254 75.97 285.754 76.63C285.274 77.29 284.744 77.83 284.164 78.25C283.604 78.67 282.984 79 282.304 79.24C281.624 79.48 280.884 79.67 280.084 79.81ZM301.322 73V57.91H304.022V64.15H306.752L311.612 57.91H314.582L308.942 65.26L308.222 64.42C308.802 64.48 309.302 64.63 309.722 64.87C310.142 65.09 310.542 65.42 310.922 65.86C311.322 66.3 311.752 66.89 312.212 67.63L315.332 73H312.392L309.662 68.35C309.362 67.81 309.062 67.39 308.762 67.09C308.462 66.79 308.122 66.58 307.742 66.46C307.382 66.34 306.922 66.28 306.362 66.28H304.022V73H301.322ZM325.41 73V60.1H319.98V57.91H333.54V60.1H328.11V73H325.41ZM340.528 73V57.91H343.228V63.25H347.668C349.628 63.25 351.098 63.67 352.078 64.51C353.078 65.33 353.578 66.52 353.578 68.08C353.578 69.08 353.348 69.95 352.888 70.69C352.428 71.43 351.758 72 350.878 72.4C349.998 72.8 348.928 73 347.668 73H340.528ZM343.228 71.11H347.368C348.568 71.11 349.468 70.87 350.068 70.39C350.688 69.89 350.998 69.13 350.998 68.11C350.998 67.09 350.688 66.34 350.068 65.86C349.468 65.38 348.568 65.14 347.368 65.14H343.228V71.11ZM355.768 73V57.91H358.468V73L355.768 73ZM40.34 103V87.91H53.63V103H50.93V90.04H43.04V103H40.34ZM69.249 103.27C67.769 103.27 66.489 102.96 65.409 102.34C64.329 101.7 63.489 100.8 62.889 99.64C62.289 98.46 61.989 97.06 61.989 95.44C61.989 93.84 62.289 92.46 62.889 91.3C63.489 90.12 64.329 89.22 65.409 88.6C66.489 87.96 67.769 87.64 69.249 87.64C70.729 87.64 72.009 87.96 73.089 88.6C74.189 89.22 75.029 90.12 75.609 91.3C76.209 92.46 76.509 93.84 76.509 95.44C76.509 97.06 76.209 98.46 75.609 99.64C75.029 100.8 74.189 101.7 73.089 102.34C72.009 102.96 70.729 103.27 69.249 103.27ZM69.249 101.11C70.609 101.11 71.699 100.63 72.519 99.67C73.339 98.71 73.749 97.3 73.749 95.44C73.749 93.58 73.339 92.18 72.519 91.24C71.699 90.3 70.609 89.83 69.249 89.83C67.869 89.83 66.769 90.3 65.949 91.24C65.149 92.18 64.749 93.58 64.749 95.44C64.749 97.3 65.149 98.71 65.949 99.67C66.769 100.63 67.869 101.11 69.249 101.11ZM103.887 103.27C102.387 103.27 101.087 102.96 99.9866 102.34C98.8866 101.7 98.0266 100.79 97.4066 99.61C96.8066 98.41 96.5066 96.99 96.5066 95.35C96.5066 93.73 96.8166 92.35 97.4366 91.21C98.0566 90.05 98.9166 89.17 100.017 88.57C101.117 87.95 102.407 87.64 103.887 87.64C104.867 87.64 105.817 87.81 106.737 88.15C107.657 88.47 108.407 88.94 108.987 89.56L108.057 91.48C107.477 90.92 106.837 90.51 106.137 90.25C105.437 89.97 104.747 89.83 104.067 89.83C102.587 89.83 101.427 90.31 100.587 91.27C99.7466 92.21 99.3266 93.58 99.3266 95.38C99.3266 97.2 99.7466 98.6 100.587 99.58C101.427 100.56 102.587 101.05 104.067 101.05C104.727 101.05 105.407 100.92 106.107 100.66C106.807 100.4 107.457 99.99 108.057 99.43L108.987 101.32C108.387 101.96 107.617 102.45 106.677 102.79C105.757 103.11 104.827 103.27 103.887 103.27ZM117.051 103V87.91H124.491C126.271 87.91 127.591 88.25 128.451 88.93C129.331 89.61 129.771 90.59 129.771 91.87C129.771 92.83 129.441 93.64 128.781 94.3C128.121 94.94 127.261 95.33 126.201 95.47V95.08C127.461 95.12 128.451 95.49 129.171 96.19C129.911 96.87 130.281 97.75 130.281 98.83C130.281 100.11 129.791 101.13 128.811 101.89C127.851 102.63 126.501 103 124.761 103H117.051ZM119.631 101.2H124.581C125.601 101.2 126.381 100.99 126.921 100.57C127.461 100.13 127.731 99.51 127.731 98.71C127.731 97.89 127.461 97.27 126.921 96.85C126.381 96.43 125.601 96.22 124.581 96.22H119.631V101.2ZM119.631 94.42H124.251C125.191 94.42 125.921 94.21 126.441 93.79C126.961 93.37 127.221 92.79 127.221 92.05C127.221 91.29 126.961 90.71 126.441 90.31C125.921 89.91 125.191 89.71 124.251 89.71H119.631V94.42ZM144.905 103.27C143.425 103.27 142.145 102.96 141.065 102.34C139.985 101.7 139.145 100.8 138.545 99.64C137.945 98.46 137.645 97.06 137.645 95.44C137.645 93.84 137.945 92.46 138.545 91.3C139.145 90.12 139.985 89.22 141.065 88.6C142.145 87.96 143.425 87.64 144.905 87.64C146.385 87.64 147.665 87.96 148.745 88.6C149.845 89.22 150.685 90.12 151.265 91.3C151.865 92.46 152.165 93.84 152.165 95.44C152.165 97.06 151.865 98.46 151.265 99.64C150.685 100.8 149.845 101.7 148.745 102.34C147.665 102.96 146.385 103.27 144.905 103.27ZM144.905 101.11C146.265 101.11 147.355 100.63 148.175 99.67C148.995 98.71 149.405 97.3 149.405 95.44C149.405 93.58 148.995 92.18 148.175 91.24C147.355 90.3 146.265 89.83 144.905 89.83C143.525 89.83 142.425 90.3 141.605 91.24C140.805 92.18 140.405 93.58 140.405 95.44C140.405 97.3 140.805 98.71 141.605 99.67C142.425 100.63 143.525 101.11 144.905 101.11ZM167.523 103.27C165.123 103.27 163.223 102.58 161.823 101.2C160.443 99.82 159.753 97.92 159.753 95.5C159.753 93.9 160.053 92.52 160.653 91.36C161.273 90.18 162.123 89.27 163.203 88.63C164.283 87.97 165.543 87.64 166.983 87.64C168.363 87.64 169.533 87.94 170.493 88.54C171.453 89.12 172.183 89.95 172.683 91.03C173.183 92.11 173.433 93.39 173.433 94.87V95.77H161.883V94.15H171.573L171.063 94.54C171.063 92.98 170.713 91.77 170.013 90.91C169.333 90.05 168.323 89.62 166.983 89.62C165.523 89.62 164.393 90.13 163.593 91.15C162.793 92.15 162.393 93.52 162.393 95.26V95.53C162.393 97.37 162.843 98.76 163.743 99.7C164.663 100.64 165.933 101.11 167.553 101.11C168.453 101.11 169.293 100.98 170.073 100.72C170.853 100.46 171.603 100.03 172.323 99.43L173.223 101.32C172.543 101.94 171.693 102.42 170.673 102.76C169.673 103.1 168.623 103.27 167.523 103.27ZM181.733 103V87.91H184.013L189.563 97.78L195.143 87.91H197.393V103H194.993V90.97H195.653L190.253 100.57H188.903L183.503 90.94H184.133V103H181.733ZM206.145 109.81L205.515 107.59C206.455 107.37 207.235 107.11 207.855 106.81C208.475 106.53 208.995 106.16 209.415 105.7C209.835 105.24 210.205 104.66 210.525 103.96L211.275 102.16L211.215 103.3L204.645 87.91H207.585L212.835 100.84H212.055L217.305 87.91H220.125L213.195 104.17C212.775 105.15 212.315 105.97 211.815 106.63C211.335 107.29 210.805 107.83 210.225 108.25C209.665 108.67 209.045 109 208.365 109.24C207.685 109.48 206.945 109.67 206.145 109.81ZM239.793 103V87.91H247.233C249.013 87.91 250.333 88.25 251.193 88.93C252.073 89.61 252.513 90.59 252.513 91.87C252.513 92.83 252.183 93.64 251.523 94.3C250.863 94.94 250.003 95.33 248.943 95.47V95.08C250.203 95.12 251.193 95.49 251.913 96.19C252.653 96.87 253.023 97.75 253.023 98.83C253.023 100.11 252.533 101.13 251.553 101.89C250.593 102.63 249.243 103 247.503 103H239.793ZM242.373 101.2H247.323C248.343 101.2 249.123 100.99 249.663 100.57C250.203 100.13 250.473 99.51 250.473 98.71C250.473 97.89 250.203 97.27 249.663 96.85C249.123 96.43 248.343 96.22 247.323 96.22H242.373V101.2ZM242.373 94.42H246.993C247.933 94.42 248.663 94.21 249.183 93.79C249.703 93.37 249.963 92.79 249.963 92.05C249.963 91.29 249.703 90.71 249.183 90.31C248.663 89.91 247.933 89.71 246.993 89.71H242.373V94.42ZM261.197 103V87.91H263.897V94.15H266.627L271.487 87.91H274.457L268.817 95.26L268.097 94.42C268.677 94.48 269.177 94.63 269.597 94.87C270.017 95.09 270.417 95.42 270.797 95.86C271.197 96.3 271.627 96.89 272.087 97.63L275.207 103H272.267L269.537 98.35C269.237 97.81 268.937 97.39 268.637 97.09C268.337 96.79 267.997 96.58 267.617 96.46C267.257 96.34 266.797 96.28 266.237 96.28H263.897V103H261.197ZM281.625 109.81L280.995 107.59C281.935 107.37 282.715 107.11 283.335 106.81C283.955 106.53 284.475 106.16 284.895 105.7C285.315 105.24 285.685 104.66 286.005 103.96L286.755 102.16L286.695 103.3L280.125 87.91H283.065L288.315 100.84H287.535L292.785 87.91H295.605L288.675 104.17C288.255 105.15 287.795 105.97 287.295 106.63C286.815 107.29 286.285 107.83 285.705 108.25C285.145 108.67 284.525 109 283.845 109.24C283.165 109.48 282.425 109.67 281.625 109.81ZM309.228 103.27C307.728 103.27 306.428 102.96 305.328 102.34C304.228 101.7 303.368 100.79 302.748 99.61C302.148 98.41 301.848 96.99 301.848 95.35C301.848 93.73 302.158 92.35 302.778 91.21C303.398 90.05 304.258 89.17 305.358 88.57C306.458 87.95 307.748 87.64 309.228 87.64C310.208 87.64 311.158 87.81 312.078 88.15C312.998 88.47 313.748 88.94 314.328 89.56L313.398 91.48C312.818 90.92 312.178 90.51 311.478 90.25C310.778 89.97 310.088 89.83 309.408 89.83C307.928 89.83 306.768 90.31 305.928 91.27C305.088 92.21 304.668 93.58 304.668 95.38C304.668 97.2 305.088 98.6 305.928 99.58C306.768 100.56 307.928 101.05 309.408 101.05C310.068 101.05 310.748 100.92 311.448 100.66C312.148 100.4 312.798 99.99 313.398 99.43L314.328 101.32C313.728 101.96 312.958 102.45 312.018 102.79C311.098 103.11 310.168 103.27 309.228 103.27ZM321.973 109.81L321.343 107.59C322.283 107.37 323.063 107.11 323.683 106.81C324.303 106.53 324.823 106.16 325.243 105.7C325.663 105.24 326.033 104.66 326.353 103.96L327.103 102.16L327.043 103.3L320.473 87.91H323.413L328.663 100.84H327.883L333.133 87.91H335.953L329.023 104.17C328.603 105.15 328.143 105.97 327.643 106.63C327.163 107.29 326.633 107.83 326.053 108.25C325.493 108.67 324.873 109 324.193 109.24C323.513 109.48 322.773 109.67 321.973 109.81ZM342.968 106.57L341.738 105.61C342.298 105.03 342.678 104.48 342.878 103.96C343.078 103.46 343.178 102.94 343.178 102.4L343.778 103H341.588V99.67H344.918V101.98C344.918 102.84 344.778 103.63 344.498 104.35C344.218 105.09 343.708 105.83 342.968 106.57ZM40.34 133V117.91H53.63V133H50.93V120.04H43.04V133H40.34ZM69.759 133.27C67.359 133.27 65.459 132.58 64.059 131.2C62.679 129.82 61.989 127.92 61.989 125.5C61.989 123.9 62.289 122.52 62.889 121.36C63.509 120.18 64.359 119.27 65.439 118.63C66.519 117.97 67.779 117.64 69.219 117.64C70.599 117.64 71.769 117.94 72.729 118.54C73.689 119.12 74.419 119.95 74.919 121.03C75.419 122.11 75.669 123.39 75.669 124.87V125.77H64.119V124.15H73.809L73.299 124.54C73.299 122.98 72.949 121.77 72.249 120.91C71.569 120.05 70.559 119.62 69.219 119.62C67.759 119.62 66.629 120.13 65.829 121.15C65.029 122.15 64.629 123.52 64.629 125.26V125.53C64.629 127.37 65.079 128.76 65.979 129.7C66.899 130.64 68.169 131.11 69.789 131.11C70.689 131.11 71.529 130.98 72.309 130.72C73.089 130.46 73.839 130.03 74.559 129.43L75.459 131.32C74.779 131.94 73.929 132.42 72.909 132.76C71.909 133.1 70.859 133.27 69.759 133.27ZM84.0589 139.48V121.48C84.0589 120.9 84.0389 120.31 83.9989 119.71C83.9589 119.11 83.8989 118.51 83.8189 117.91H86.4589L86.7889 121.39H86.4589C86.7589 120.23 87.3989 119.32 88.3789 118.66C89.3589 117.98 90.5289 117.64 91.8889 117.64C93.2289 117.64 94.3989 117.95 95.3989 118.57C96.3989 119.19 97.1689 120.09 97.7089 121.27C98.2689 122.43 98.5489 123.82 98.5489 125.44C98.5489 127.06 98.2689 128.46 97.7089 129.64C97.1689 130.82 96.3989 131.72 95.3989 132.34C94.3989 132.96 93.2289 133.27 91.8889 133.27C90.5489 133.27 89.3889 132.94 88.4089 132.28C87.4489 131.6 86.7989 130.69 86.4589 129.55H86.7889V139.48H84.0589ZM91.2589 131.11C92.6389 131.11 93.7389 130.63 94.5589 129.67C95.3789 128.71 95.7889 127.3 95.7889 125.44C95.7889 123.58 95.3789 122.18 94.5589 121.24C93.7389 120.3 92.6389 119.83 91.2589 119.83C89.8789 119.83 88.7789 120.3 87.9589 121.24C87.1589 122.18 86.7589 123.58 86.7589 125.44C86.7589 127.3 87.1589 128.71 87.9589 129.67C88.7789 130.63 89.8789 131.11 91.2589 131.11ZM113.915 133.27C111.515 133.27 109.615 132.58 108.215 131.2C106.835 129.82 106.145 127.92 106.145 125.5C106.145 123.9 106.445 122.52 107.045 121.36C107.665 120.18 108.515 119.27 109.595 118.63C110.675 117.97 111.935 117.64 113.375 117.64C114.755 117.64 115.925 117.94 116.885 118.54C117.845 119.12 118.575 119.95 119.075 121.03C119.575 122.11 119.825 123.39 119.825 124.87V125.77H108.275V124.15H117.965L117.455 124.54C117.455 122.98 117.105 121.77 116.405 120.91C115.725 120.05 114.715 119.62 113.375 119.62C111.915 119.62 110.785 120.13 109.985 121.15C109.185 122.15 108.785 123.52 108.785 125.26V125.53C108.785 127.37 109.235 128.76 110.135 129.7C111.055 130.64 112.325 131.11 113.945 131.11C114.845 131.11 115.685 130.98 116.465 130.72C117.245 130.46 117.995 130.03 118.715 129.43L119.615 131.32C118.935 131.94 118.085 132.42 117.065 132.76C116.065 133.1 115.015 133.27 113.915 133.27ZM131.365 133V120.1H125.935V117.91H139.495V120.1H134.065V133H131.365ZM152.333 133.27C151.013 133.27 149.853 132.96 148.853 132.34C147.853 131.72 147.073 130.82 146.513 129.64C145.953 128.46 145.673 127.06 145.673 125.44C145.673 123.82 145.953 122.43 146.513 121.27C147.073 120.09 147.853 119.19 148.853 118.57C149.853 117.95 151.013 117.64 152.333 117.64C153.673 117.64 154.833 117.98 155.813 118.66C156.813 119.32 157.473 120.23 157.793 121.39H157.433L157.763 117.91H160.403C160.343 118.51 160.283 119.11 160.223 119.71C160.183 120.31 160.163 120.9 160.163 121.48V133H157.433V129.55H157.763C157.443 130.69 156.783 131.6 155.783 132.28C154.803 132.94 153.653 133.27 152.333 133.27ZM152.963 131.11C154.323 131.11 155.413 130.63 156.233 129.67C157.053 128.71 157.463 127.3 157.463 125.44C157.463 123.58 157.053 122.18 156.233 121.24C155.413 120.3 154.323 119.83 152.963 119.83C151.603 119.83 150.503 120.3 149.663 121.24C148.843 122.18 148.433 123.58 148.433 125.44C148.433 127.3 148.843 128.71 149.663 129.67C150.483 130.63 151.583 131.11 152.963 131.11ZM189.569 136.9V133H169.469V117.91H172.049V130.87H178.199V117.91H180.779V130.87H186.899V117.91H189.509V130.87H191.879V136.9H189.569ZM199.516 133V117.91H202.006V130.42H201.196L210.556 117.91H212.836V133H210.346V120.46H211.186L201.796 133H199.516ZM234.414 133V117.91H237.114V124.15H245.094V117.91H247.794V133H245.094V126.31H237.114V133H234.414ZM262.811 133.27C261.491 133.27 260.331 132.96 259.331 132.34C258.331 131.72 257.551 130.82 256.991 129.64C256.431 128.46 256.151 127.06 256.151 125.44C256.151 123.82 256.431 122.43 256.991 121.27C257.551 120.09 258.331 119.19 259.331 118.57C260.331 117.95 261.491 117.64 262.811 117.64C264.151 117.64 265.311 117.98 266.291 118.66C267.291 119.32 267.951 120.23 268.271 121.39H267.911L268.241 117.91H270.881C270.821 118.51 270.761 119.11 270.701 119.71C270.661 120.31 270.641 120.9 270.641 121.48V133H267.911V129.55H268.241C267.921 130.69 267.261 131.6 266.261 132.28C265.281 132.94 264.131 133.27 262.811 133.27ZM263.441 131.11C264.801 131.11 265.891 130.63 266.711 129.67C267.531 128.71 267.941 127.3 267.941 125.44C267.941 123.58 267.531 122.18 266.711 121.24C265.891 120.3 264.801 119.83 263.441 119.83C262.081 119.83 260.981 120.3 260.141 121.24C259.321 122.18 258.911 123.58 258.911 125.44C258.911 127.3 259.321 128.71 260.141 129.67C260.961 130.63 262.061 131.11 263.441 131.11ZM295.598 133V120.1L290.168 120.1V117.91L303.728 117.91V120.1H298.298V133H295.598ZM316.565 133.27C315.245 133.27 314.085 132.96 313.085 132.34C312.085 131.72 311.305 130.82 310.745 129.64C310.185 128.46 309.905 127.06 309.905 125.44C309.905 123.82 310.185 122.43 310.745 121.27C311.305 120.09 312.085 119.19 313.085 118.57C314.085 117.95 315.245 117.64 316.565 117.64C317.905 117.64 319.065 117.98 320.045 118.66C321.045 119.32 321.705 120.23 322.025 121.39H321.665L321.995 117.91H324.635C324.575 118.51 324.515 119.11 324.455 119.71C324.415 120.31 324.395 120.9 324.395 121.48V133H321.665V129.55H321.995C321.675 130.69 321.015 131.6 320.015 132.28C319.035 132.94 317.885 133.27 316.565 133.27ZM317.195 131.11C318.555 131.11 319.645 130.63 320.465 129.67C321.285 128.71 321.695 127.3 321.695 125.44C321.695 123.58 321.285 122.18 320.465 121.24C319.645 120.3 318.555 119.83 317.195 119.83C315.835 119.83 314.735 120.3 313.895 121.24C313.075 122.18 312.665 123.58 312.665 125.44C312.665 127.3 313.075 128.71 313.895 129.67C314.715 130.63 315.815 131.11 317.195 131.11ZM333.791 139.48V121.48C333.791 120.9 333.771 120.31 333.731 119.71C333.691 119.11 333.631 118.51 333.551 117.91H336.191L336.521 121.39H336.191C336.491 120.23 337.131 119.32 338.111 118.66C339.091 117.98 340.261 117.64 341.621 117.64C342.961 117.64 344.131 117.95 345.131 118.57C346.131 119.19 346.901 120.09 347.441 121.27C348.001 122.43 348.281 123.82 348.281 125.44C348.281 127.06 348.001 128.46 347.441 129.64C346.901 130.82 346.131 131.72 345.131 132.34C344.131 132.96 342.961 133.27 341.621 133.27C340.281 133.27 339.121 132.94 338.141 132.28C337.181 131.6 336.531 130.69 336.191 129.55H336.521V139.48H333.791ZM340.991 131.11C342.371 131.11 343.471 130.63 344.291 129.67C345.111 128.71 345.521 127.3 345.521 125.44C345.521 123.58 345.111 122.18 344.291 121.24C343.471 120.3 342.371 119.83 340.991 119.83C339.611 119.83 338.511 120.3 337.691 121.24C336.891 122.18 336.491 123.58 336.491 125.44C336.491 127.3 336.891 128.71 337.691 129.67C338.511 130.63 339.611 131.11 340.991 131.11ZM363.648 133.27C361.248 133.27 359.348 132.58 357.948 131.2C356.568 129.82 355.878 127.92 355.878 125.5C355.878 123.9 356.178 122.52 356.778 121.36C357.398 120.18 358.248 119.27 359.328 118.63C360.408 117.97 361.668 117.64 363.108 117.64C364.488 117.64 365.658 117.94 366.618 118.54C367.578 119.12 368.308 119.95 368.808 121.03C369.308 122.11 369.558 123.39 369.558 124.87V125.77H358.008V124.15H367.698L367.188 124.54C367.188 122.98 366.838 121.77 366.138 120.91C365.458 120.05 364.448 119.62 363.108 119.62C361.648 119.62 360.518 120.13 359.718 121.15C358.918 122.15 358.518 123.52 358.518 125.26V125.53C358.518 127.37 358.968 128.76 359.868 129.7C360.788 130.64 362.058 131.11 363.678 131.11C364.578 131.11 365.418 130.98 366.198 130.72C366.978 130.46 367.728 130.03 368.448 129.43L369.348 131.32C368.668 131.94 367.818 132.42 366.798 132.76C365.798 133.1 364.748 133.27 363.648 133.27ZM377.138 133.36L376.178 131.23C376.878 130.91 377.458 130.53 377.918 130.09C378.398 129.63 378.768 129.05 379.028 128.35C379.308 127.65 379.508 126.78 379.628 125.74C379.748 124.7 379.808 123.44 379.808 121.96V117.91H390.938V133H388.238V120.04H382.328V122.02C382.328 124.34 382.148 126.26 381.788 127.78C381.448 129.28 380.898 130.47 380.138 131.35C379.398 132.23 378.398 132.9 377.138 133.36ZM400.111 133V117.91H402.811V124.15H405.541L410.401 117.91H413.371L407.731 125.26L407.011 124.42C407.591 124.48 408.091 124.63 408.511 124.87C408.931 125.09 409.331 125.42 409.711 125.86C410.111 126.3 410.541 126.89 411.001 127.63L414.121 133H411.181L408.451 128.35C408.151 127.81 407.851 127.39 407.551 127.09C407.251 126.79 406.911 126.58 406.531 126.46C406.171 126.34 405.711 126.28 405.151 126.28H402.811V133H400.111ZM420.539 139.81L419.909 137.59C420.849 137.37 421.629 137.11 422.249 136.81C422.869 136.53 423.389 136.16 423.809 135.7C424.229 135.24 424.599 134.66 424.919 133.96L425.669 132.16L425.609 133.3L419.039 117.91H421.979L427.229 130.84H426.449L431.699 117.91H434.519L427.589 134.17C427.169 135.15 426.709 135.97 426.209 136.63C425.729 137.29 425.199 137.83 424.619 138.25C424.059 138.67 423.439 139 422.759 139.24C422.079 139.48 421.339 139.67 420.539 139.81ZM40.34 163V147.91H42.83V160.42H42.02L51.38 147.91H53.66V163H51.17V150.46H52.01L42.62 163H40.34ZM81.8084 163.27C80.3084 163.27 79.0084 162.96 77.9084 162.34C76.8084 161.7 75.9484 160.79 75.3284 159.61C74.7284 158.41 74.4284 156.99 74.4284 155.35C74.4284 153.73 74.7384 152.35 75.3584 151.21C75.9784 150.05 76.8384 149.17 77.9384 148.57C79.0384 147.95 80.3284 147.64 81.8084 147.64C82.7884 147.64 83.7384 147.81 84.6584 148.15C85.5784 148.47 86.3284 148.94 86.9084 149.56L85.9784 151.48C85.3984 150.92 84.7584 150.51 84.0584 150.25C83.3584 149.97 82.6684 149.83 81.9884 149.83C80.5084 149.83 79.3484 150.31 78.5084 151.27C77.6684 152.21 77.2484 153.58 77.2484 155.38C77.2484 157.2 77.6684 158.6 78.5084 159.58C79.3484 160.56 80.5084 161.05 81.9884 161.05C82.6484 161.05 83.3284 160.92 84.0284 160.66C84.7284 160.4 85.3784 159.99 85.9784 159.43L86.9084 161.32C86.3084 161.96 85.5384 162.45 84.5984 162.79C83.6784 163.11 82.7484 163.27 81.8084 163.27ZM101.423 163.27C99.9428 163.27 98.6628 162.96 97.5828 162.34C96.5028 161.7 95.6628 160.8 95.0628 159.64C94.4628 158.46 94.1628 157.06 94.1628 155.44C94.1628 153.84 94.4628 152.46 95.0628 151.3C95.6628 150.12 96.5028 149.22 97.5828 148.6C98.6628 147.96 99.9428 147.64 101.423 147.64C102.903 147.64 104.183 147.96 105.263 148.6C106.363 149.22 107.203 150.12 107.783 151.3C108.383 152.46 108.683 153.84 108.683 155.44C108.683 157.06 108.383 158.46 107.783 159.64C107.203 160.8 106.363 161.7 105.263 162.34C104.183 162.96 102.903 163.27 101.423 163.27ZM101.423 161.11C102.783 161.11 103.873 160.63 104.693 159.67C105.513 158.71 105.923 157.3 105.923 155.44C105.923 153.58 105.513 152.18 104.693 151.24C103.873 150.3 102.783 149.83 101.423 149.83C100.043 149.83 98.9428 150.3 98.1228 151.24C97.3228 152.18 96.9228 153.58 96.9228 155.44C96.9228 157.3 97.3228 158.71 98.1228 159.67C98.9428 160.63 100.043 161.11 101.423 161.11ZM122.21 163.27C120.89 163.27 119.66 163.1 118.52 162.76C117.38 162.42 116.44 161.94 115.7 161.32L116.6 159.43C117.34 160.03 118.18 160.48 119.12 160.78C120.06 161.08 121.08 161.23 122.18 161.23C123.62 161.23 124.66 161.02 125.3 160.6C125.96 160.16 126.29 159.53 126.29 158.71C126.29 157.93 126.02 157.34 125.48 156.94C124.94 156.54 124.15 156.34 123.11 156.34H119.45V154.36H122.78C123.72 154.36 124.45 154.16 124.97 153.76C125.51 153.34 125.78 152.77 125.78 152.05C125.78 151.31 125.48 150.73 124.88 150.31C124.28 149.87 123.36 149.65 122.12 149.65C121.08 149.65 120.13 149.79 119.27 150.07C118.41 150.33 117.59 150.73 116.81 151.27L115.94 149.5C116.76 148.86 117.72 148.39 118.82 148.09C119.92 147.79 121.12 147.64 122.42 147.64C124.32 147.64 125.77 148.01 126.77 148.75C127.79 149.47 128.3 150.5 128.3 151.84C128.3 152.78 127.98 153.59 127.34 154.27C126.7 154.93 125.85 155.33 124.79 155.47V155.08C125.99 155.14 126.96 155.51 127.7 156.19C128.44 156.85 128.81 157.73 128.81 158.83C128.81 160.17 128.25 161.25 127.13 162.07C126.01 162.87 124.37 163.27 122.21 163.27ZM135.694 166.9V160.87H137.344C138.024 159.85 138.514 158.65 138.814 157.27C139.134 155.89 139.294 154.25 139.294 152.35V147.91H150.124V160.87H152.524V166.9H150.184V163H138.064V166.9H135.694ZM139.924 160.9H147.574V150.01H141.694V152.83C141.694 154.35 141.544 155.83 141.244 157.27C140.944 158.69 140.504 159.9 139.924 160.9ZM166.032 163.27C164.712 163.27 163.552 162.96 162.552 162.34C161.552 161.72 160.772 160.82 160.212 159.64C159.652 158.46 159.372 157.06 159.372 155.44C159.372 153.82 159.652 152.43 160.212 151.27C160.772 150.09 161.552 149.19 162.552 148.57C163.552 147.95 164.712 147.64 166.032 147.64C167.372 147.64 168.532 147.98 169.512 148.66C170.512 149.32 171.172 150.23 171.492 151.39H171.132L171.462 147.91H174.102C174.042 148.51 173.982 149.11 173.922 149.71C173.882 150.31 173.862 150.9 173.862 151.48V163H171.132V159.55H171.462C171.142 160.69 170.482 161.6 169.482 162.28C168.502 162.94 167.352 163.27 166.032 163.27ZM166.662 161.11C168.022 161.11 169.112 160.63 169.932 159.67C170.752 158.71 171.162 157.3 171.162 155.44C171.162 153.58 170.752 152.18 169.932 151.24C169.112 150.3 168.022 149.83 166.662 149.83C165.302 149.83 164.202 150.3 163.362 151.24C162.542 152.18 162.132 153.58 162.132 155.44C162.132 157.3 162.542 158.71 163.362 159.67C164.182 160.63 165.282 161.11 166.662 161.11ZM183.168 163V147.91H185.658V160.42H184.848L194.208 147.91H196.488V163H193.998V150.46H194.838L185.448 163H183.168ZM189.828 146.53C188.968 146.53 188.178 146.38 187.458 146.08C186.738 145.78 186.118 145.35 185.598 144.79C185.098 144.21 184.718 143.49 184.458 142.63L186.018 142.06C186.378 143.02 186.868 143.73 187.488 144.19C188.108 144.63 188.888 144.85 189.828 144.85C190.788 144.85 191.578 144.64 192.198 144.22C192.818 143.8 193.358 143.09 193.818 142.09L195.288 142.63C194.788 143.99 194.058 144.98 193.098 145.6C192.158 146.22 191.068 146.53 189.828 146.53ZM224.637 163.27C223.137 163.27 221.837 162.96 220.737 162.34C219.637 161.7 218.777 160.79 218.157 159.61C217.557 158.41 217.257 156.99 217.257 155.35C217.257 153.73 217.567 152.35 218.187 151.21C218.807 150.05 219.667 149.17 220.767 148.57C221.867 147.95 223.157 147.64 224.637 147.64C225.617 147.64 226.567 147.81 227.487 148.15C228.407 148.47 229.157 148.94 229.737 149.56L228.807 151.48C228.227 150.92 227.587 150.51 226.887 150.25C226.187 149.97 225.497 149.83 224.817 149.83C223.337 149.83 222.177 150.31 221.337 151.27C220.497 152.21 220.077 153.58 220.077 155.38C220.077 157.2 220.497 158.6 221.337 159.58C222.177 160.56 223.337 161.05 224.817 161.05C225.477 161.05 226.157 160.92 226.857 160.66C227.557 160.4 228.207 159.99 228.807 159.43L229.737 161.32C229.137 161.96 228.367 162.45 227.427 162.79C226.507 163.11 225.577 163.27 224.637 163.27ZM237.801 163V147.91H245.241C247.021 147.91 248.341 148.25 249.201 148.93C250.081 149.61 250.521 150.59 250.521 151.87C250.521 152.83 250.191 153.64 249.531 154.3C248.871 154.94 248.011 155.33 246.951 155.47V155.08C248.211 155.12 249.201 155.49 249.921 156.19C250.661 156.87 251.031 157.75 251.031 158.83C251.031 160.11 250.541 161.13 249.561 161.89C248.601 162.63 247.251 163 245.511 163H237.801ZM240.381 161.2H245.331C246.351 161.2 247.131 160.99 247.671 160.57C248.211 160.13 248.481 159.51 248.481 158.71C248.481 157.89 248.211 157.27 247.671 156.85C247.131 156.43 246.351 156.22 245.331 156.22H240.381V161.2ZM240.381 154.42H245.001C245.941 154.42 246.671 154.21 247.191 153.79C247.711 153.37 247.971 152.79 247.971 152.05C247.971 151.29 247.711 150.71 247.191 150.31C246.671 149.91 245.941 149.71 245.001 149.71H240.381V154.42ZM265.655 163.27C264.175 163.27 262.895 162.96 261.815 162.34C260.735 161.7 259.895 160.8 259.295 159.64C258.695 158.46 258.395 157.06 258.395 155.44C258.395 153.84 258.695 152.46 259.295 151.3C259.895 150.12 260.735 149.22 261.815 148.6C262.895 147.96 264.175 147.64 265.655 147.64C267.135 147.64 268.415 147.96 269.495 148.6C270.595 149.22 271.435 150.12 272.015 151.3C272.615 152.46 272.915 153.84 272.915 155.44C272.915 157.06 272.615 158.46 272.015 159.64C271.435 160.8 270.595 161.7 269.495 162.34C268.415 162.96 267.135 163.27 265.655 163.27ZM265.655 161.11C267.015 161.11 268.105 160.63 268.925 159.67C269.745 158.71 270.155 157.3 270.155 155.44C270.155 153.58 269.745 152.18 268.925 151.24C268.105 150.3 267.015 149.83 265.655 149.83C264.275 149.83 263.175 150.3 262.355 151.24C261.555 152.18 261.155 153.58 261.155 155.44C261.155 157.3 261.555 158.71 262.355 159.67C263.175 160.63 264.275 161.11 265.655 161.11ZM294.093 163.27C292.033 163.27 290.363 162.66 289.083 161.44C287.823 160.2 287.103 158.49 286.923 156.31H283.983V163H281.313V147.91H283.983V154.15H286.953C287.213 152.11 287.973 150.52 289.233 149.38C290.493 148.22 292.113 147.64 294.093 147.64C295.573 147.64 296.853 147.95 297.933 148.57C299.033 149.19 299.883 150.09 300.483 151.27C301.083 152.43 301.383 153.82 301.383 155.44C301.383 157.06 301.083 158.46 300.483 159.64C299.883 160.8 299.033 161.7 297.933 162.34C296.853 162.96 295.573 163.27 294.093 163.27ZM294.093 161.11C295.473 161.11 296.573 160.64 297.393 159.7C298.213 158.74 298.623 157.32 298.623 155.44C298.623 153.58 298.213 152.18 297.393 151.24C296.573 150.28 295.473 149.8 294.093 149.8C292.713 149.8 291.613 150.28 290.793 151.24C289.973 152.18 289.563 153.58 289.563 155.44C289.563 157.32 289.973 158.74 290.793 159.7C291.613 160.64 292.713 161.11 294.093 161.11ZM46.19 193.27C44.87 193.27 43.71 192.96 42.71 192.34C41.71 191.72 40.93 190.82 40.37 189.64C39.81 188.46 39.53 187.06 39.53 185.44C39.53 183.82 39.81 182.43 40.37 181.27C40.93 180.09 41.71 179.19 42.71 178.57C43.71 177.95 44.87 177.64 46.19 177.64C47.53 177.64 48.69 177.98 49.67 178.66C50.67 179.32 51.33 180.23 51.65 181.39H51.29L51.62 177.91H54.26C54.2 178.51 54.14 179.11 54.08 179.71C54.04 180.31 54.02 180.9 54.02 181.48V193H51.29V189.55H51.62C51.3 190.69 50.64 191.6 49.64 192.28C48.66 192.94 47.51 193.27 46.19 193.27ZM46.82 191.11C48.18 191.11 49.27 190.63 50.09 189.67C50.91 188.71 51.32 187.3 51.32 185.44C51.32 183.58 50.91 182.18 50.09 181.24C49.27 180.3 48.18 179.83 46.82 179.83C45.46 179.83 44.36 180.3 43.52 181.24C42.7 182.18 42.29 183.58 42.29 185.44C42.29 187.3 42.7 188.71 43.52 189.67C44.34 190.63 45.44 191.11 46.82 191.11ZM63.3263 193V177.91H70.7663C72.5463 177.91 73.8663 178.25 74.7263 178.93C75.6063 179.61 76.0463 180.59 76.0463 181.87C76.0463 182.83 75.7163 183.64 75.0563 184.3C74.3963 184.94 73.5363 185.33 72.4763 185.47V185.08C73.7363 185.12 74.7263 185.49 75.4463 186.19C76.1863 186.87 76.5563 187.75 76.5563 188.83C76.5563 190.11 76.0663 191.13 75.0863 191.89C74.1263 192.63 72.7763 193 71.0363 193H63.3263ZM65.9063 191.2H70.8563C71.8763 191.2 72.6563 190.99 73.1963 190.57C73.7363 190.13 74.0063 189.51 74.0063 188.71C74.0063 187.89 73.7363 187.27 73.1963 186.85C72.6563 186.43 71.8763 186.22 70.8563 186.22H65.9063V191.2ZM65.9063 184.42H70.5263C71.4663 184.42 72.1963 184.21 72.7163 183.79C73.2363 183.37 73.4963 182.79 73.4963 182.05C73.4963 181.29 73.2363 180.71 72.7163 180.31C72.1963 179.91 71.4663 179.71 70.5263 179.71H65.9063V184.42ZM88.2636 193V180.1H82.8336V177.91H96.3936V180.1H90.9636V193H88.2636ZM109.743 193.27C108.263 193.27 106.983 192.96 105.903 192.34C104.823 191.7 103.983 190.8 103.383 189.64C102.783 188.46 102.483 187.06 102.483 185.44C102.483 183.84 102.783 182.46 103.383 181.3C103.983 180.12 104.823 179.22 105.903 178.6C106.983 177.96 108.263 177.64 109.743 177.64C111.223 177.64 112.503 177.96 113.583 178.6C114.683 179.22 115.523 180.12 116.103 181.3C116.703 182.46 117.003 183.84 117.003 185.44C117.003 187.06 116.703 188.46 116.103 189.64C115.523 190.8 114.683 191.7 113.583 192.34C112.503 192.96 111.223 193.27 109.743 193.27ZM109.743 191.11C111.103 191.11 112.193 190.63 113.013 189.67C113.833 188.71 114.243 187.3 114.243 185.44C114.243 183.58 113.833 182.18 113.013 181.24C112.193 180.3 111.103 179.83 109.743 179.83C108.363 179.83 107.263 180.3 106.443 181.24C105.643 182.18 105.243 183.58 105.243 185.44C105.243 187.3 105.643 188.71 106.443 189.67C107.263 190.63 108.363 191.11 109.743 191.11ZM125.491 199.48V181.48C125.491 180.9 125.471 180.31 125.431 179.71C125.391 179.11 125.331 178.51 125.251 177.91H127.891L128.221 181.39H127.891C128.191 180.23 128.831 179.32 129.811 178.66C130.791 177.98 131.961 177.64 133.321 177.64C134.661 177.64 135.831 177.95 136.831 178.57C137.831 179.19 138.601 180.09 139.141 181.27C139.701 182.43 139.981 183.82 139.981 185.44C139.981 187.06 139.701 188.46 139.141 189.64C138.601 190.82 137.831 191.72 136.831 192.34C135.831 192.96 134.661 193.27 133.321 193.27C131.981 193.27 130.821 192.94 129.841 192.28C128.881 191.6 128.231 190.69 127.891 189.55H128.221V199.48H125.491ZM132.691 191.11C134.071 191.11 135.171 190.63 135.991 189.67C136.811 188.71 137.221 187.3 137.221 185.44C137.221 183.58 136.811 182.18 135.991 181.24C135.171 180.3 134.071 179.83 132.691 179.83C131.311 179.83 130.211 180.3 129.391 181.24C128.591 182.18 128.191 183.58 128.191 185.44C128.191 187.3 128.591 188.71 129.391 189.67C130.211 190.63 131.311 191.11 132.691 191.11ZM154.957 193.27C153.457 193.27 152.157 192.96 151.057 192.34C149.957 191.7 149.097 190.79 148.477 189.61C147.877 188.41 147.577 186.99 147.577 185.35C147.577 183.73 147.887 182.35 148.507 181.21C149.127 180.05 149.987 179.17 151.087 178.57C152.187 177.95 153.477 177.64 154.957 177.64C155.937 177.64 156.887 177.81 157.807 178.15C158.727 178.47 159.477 178.94 160.057 179.56L159.127 181.48C158.547 180.92 157.907 180.51 157.207 180.25C156.507 179.97 155.817 179.83 155.137 179.83C153.657 179.83 152.497 180.31 151.657 181.27C150.817 182.21 150.397 183.58 150.397 185.38C150.397 187.2 150.817 188.6 151.657 189.58C152.497 190.56 153.657 191.05 155.137 191.05C155.797 191.05 156.477 190.92 157.177 190.66C157.877 190.4 158.527 189.99 159.127 189.43L160.057 191.32C159.457 191.96 158.687 192.45 157.747 192.79C156.827 193.11 155.897 193.27 154.957 193.27ZM168.121 193V177.91H170.821V184.15H173.551L178.411 177.91H181.381L175.741 185.26L175.021 184.42C175.601 184.48 176.101 184.63 176.521 184.87C176.941 185.09 177.341 185.42 177.721 185.86C178.121 186.3 178.551 186.89 179.011 187.63L182.131 193H179.191L176.461 188.35C176.161 187.81 175.861 187.39 175.561 187.09C175.261 186.79 174.921 186.58 174.541 186.46C174.181 186.34 173.721 186.28 173.161 186.28H170.821V193H168.121ZM188.549 199.81L187.919 197.59C188.859 197.37 189.639 197.11 190.259 196.81C190.879 196.53 191.399 196.16 191.819 195.7C192.239 195.24 192.609 194.66 192.929 193.96L193.679 192.16L193.619 193.3L187.049 177.91H189.989L195.239 190.84H194.459L199.709 177.91H202.529L195.599 194.17C195.179 195.15 194.719 195.97 194.219 196.63C193.739 197.29 193.209 197.83 192.629 198.25C192.069 198.67 191.449 199 190.769 199.24C190.089 199.48 189.349 199.67 188.549 199.81ZM222.567 193.27C220.507 193.27 218.837 192.66 217.557 191.44C216.297 190.2 215.577 188.49 215.397 186.31H212.457V193H209.787V177.91H212.457V184.15H215.427C215.687 182.11 216.447 180.52 217.707 179.38C218.967 178.22 220.587 177.64 222.567 177.64C224.047 177.64 225.327 177.95 226.407 178.57C227.507 179.19 228.357 180.09 228.957 181.27C229.557 182.43 229.857 183.82 229.857 185.44C229.857 187.06 229.557 188.46 228.957 189.64C228.357 190.8 227.507 191.7 226.407 192.34C225.327 192.96 224.047 193.27 222.567 193.27ZM222.567 191.11C223.947 191.11 225.047 190.64 225.867 189.7C226.687 188.74 227.097 187.32 227.097 185.44C227.097 183.58 226.687 182.18 225.867 181.24C225.047 180.28 223.947 179.8 222.567 179.8C221.187 179.8 220.087 180.28 219.267 181.24C218.447 182.18 218.037 183.58 218.037 185.44C218.037 187.32 218.447 188.74 219.267 189.7C220.087 190.64 221.187 191.11 222.567 191.11ZM250.633 193V177.91H263.923V193H261.223V180.04H253.333V193H250.633ZM279.542 193.27C278.062 193.27 276.782 192.96 275.702 192.34C274.622 191.7 273.782 190.8 273.182 189.64C272.582 188.46 272.282 187.06 272.282 185.44C272.282 183.84 272.582 182.46 273.182 181.3C273.782 180.12 274.622 179.22 275.702 178.6C276.782 177.96 278.062 177.64 279.542 177.64C281.022 177.64 282.302 177.96 283.382 178.6C284.482 179.22 285.322 180.12 285.902 181.3C286.502 182.46 286.802 183.84 286.802 185.44C286.802 187.06 286.502 188.46 285.902 189.64C285.322 190.8 284.482 191.7 283.382 192.34C282.302 192.96 281.022 193.27 279.542 193.27ZM279.542 191.11C280.902 191.11 281.992 190.63 282.812 189.67C283.632 188.71 284.042 187.3 284.042 185.44C284.042 183.58 283.632 182.18 282.812 181.24C281.992 180.3 280.902 179.83 279.542 179.83C278.162 179.83 277.062 180.3 276.242 181.24C275.442 182.18 275.042 183.58 275.042 185.44C275.042 187.3 275.442 188.71 276.242 189.67C277.062 190.63 278.162 191.11 279.542 191.11ZM293.639 196.9V190.87H295.289C295.969 189.85 296.459 188.65 296.759 187.27C297.079 185.89 297.239 184.25 297.239 182.35V177.91H308.069V190.87H310.469V196.9H308.129V193H296.009V196.9H293.639ZM297.869 190.9H305.519V180.01H299.639V182.83C299.639 184.35 299.489 185.83 299.189 187.27C298.889 188.69 298.449 189.9 297.869 190.9ZM323.977 193.27C322.657 193.27 321.497 192.96 320.497 192.34C319.497 191.72 318.717 190.82 318.157 189.64C317.597 188.46 317.317 187.06 317.317 185.44C317.317 183.82 317.597 182.43 318.157 181.27C318.717 180.09 319.497 179.19 320.497 178.57C321.497 177.95 322.657 177.64 323.977 177.64C325.317 177.64 326.477 177.98 327.457 178.66C328.457 179.32 329.117 180.23 329.437 181.39H329.077L329.407 177.91H332.047C331.987 178.51 331.927 179.11 331.867 179.71C331.827 180.31 331.807 180.9 331.807 181.48V193H329.077V189.55H329.407C329.087 190.69 328.427 191.6 327.427 192.28C326.447 192.94 325.297 193.27 323.977 193.27ZM324.607 191.11C325.967 191.11 327.057 190.63 327.877 189.67C328.697 188.71 329.107 187.3 329.107 185.44C329.107 183.58 328.697 182.18 327.877 181.24C327.057 180.3 325.967 179.83 324.607 179.83C323.247 179.83 322.147 180.3 321.307 181.24C320.487 182.18 320.077 183.58 320.077 185.44C320.077 187.3 320.487 188.71 321.307 189.67C322.127 190.63 323.227 191.11 324.607 191.11ZM350.803 193V187.03C350.223 187.35 349.603 187.6 348.943 187.78C348.283 187.94 347.583 188.02 346.843 188.02C344.683 188.02 343.083 187.52 342.043 186.52C341.023 185.5 340.513 183.97 340.513 181.93V177.91H343.213V181.72C343.213 183.14 343.533 184.17 344.173 184.81C344.833 185.43 345.853 185.74 347.233 185.74C347.933 185.74 348.563 185.67 349.123 185.53C349.683 185.37 350.223 185.12 350.743 184.78V177.91H353.473V193H350.803ZM362.244 199.81L361.614 197.59C362.554 197.37 363.334 197.11 363.954 196.81C364.574 196.53 365.094 196.16 365.514 195.7C365.934 195.24 366.304 194.66 366.624 193.96L367.374 192.16L367.314 193.3L360.744 177.91H363.684L368.934 190.84H368.154L373.404 177.91H376.224L369.294 194.17C368.874 195.15 368.414 195.97 367.914 196.63C367.434 197.29 366.904 197.83 366.324 198.25C365.764 198.67 365.144 199 364.464 199.24C363.784 199.48 363.044 199.67 362.244 199.81Z" fill="black"/>
</svg>
