<svg width="611" height="309" viewBox="0 0 611 309" fill="none" xmlns="http://www.w3.org/2000/svg">
<path d="M266.182 239.52C266.182 239.52 257.472 223.203 235.901 223.203C218.425 223.203 197.877 222.878 189.347 223.206C176.616 223.694 163.11 223.206 149.248 223.206C125.372 223.206 94.4715 219.124 70.5954 219.124C15.6468 214.523 10.9154 198.791 7.48523 179.097C5.45255 167.427 3.00105 151.5 3 129.382C3 113.407 3.49079 98.2394 3.49186 81.8874L3.49186 81.8831C3.49248 72.4986 3.49278 67.9976 9.43974 52.165C16.434 38.5 19.3878 35.9395 28.8034 28.1468C58.7211 3.38618 102.466 3 148.413 3H334.852C376.656 3 417.899 4.60777 459.26 8.58693C475.602 10.1592 490.239 9.68366 506.212 12.0508C517.003 13.65 522.406 13.3438 537.057 16.0734C547.853 18.0847 556.255 18.7569 564.817 21.5486C570.622 23.4412 578.289 28.3516 583.324 31.2699C598.099 39.8336 608 54.6872 608 67.4732C608 96.3069 604.916 129.278 604.916 157.87C604.916 179.29 606.407 190.468 587.244 208.517C569.324 225.396 542.44 223.206 511.846 223.206C476.3 223.206 442.816 221.194 406.802 221.194H360.465C344.518 221.194 334.852 234.977 330.417 244.475L317.991 268.704C316.128 271.654 296.699 311.014 295.698 305.465C286.445 297.475 277.231 268.704 277.231 268.704L266.182 239.52Z" fill="white" stroke="white" stroke-width="6" stroke-linecap="round"/>
<path d="M51.34 77V61.91H53.83V74.42H53.02L62.38 61.91H64.66V77H62.17V64.46H63.01L53.62 77H51.34ZM80.3983 77.27C78.8983 77.27 77.5983 76.96 76.4983 76.34C75.3983 75.7 74.5383 74.79 73.9183 73.61C73.3183 72.41 73.0183 70.99 73.0183 69.35C73.0183 67.73 73.3283 66.35 73.9483 65.21C74.5683 64.05 75.4283 63.17 76.5283 62.57C77.6283 61.95 78.9183 61.64 80.3983 61.64C81.3783 61.64 82.3283 61.81 83.2483 62.15C84.1683 62.47 84.9183 62.94 85.4983 63.56L84.5683 65.48C83.9883 64.92 83.3483 64.51 82.6483 64.25C81.9483 63.97 81.2583 63.83 80.5783 63.83C79.0983 63.83 77.9383 64.31 77.0983 65.27C76.2583 66.21 75.8383 67.58 75.8383 69.38C75.8383 71.2 76.2583 72.6 77.0983 73.58C77.9383 74.56 79.0983 75.05 80.5783 75.05C81.2383 75.05 81.9183 74.92 82.6183 74.66C83.3183 74.4 83.9683 73.99 84.5683 73.43L85.4983 75.32C84.8983 75.96 84.1283 76.45 83.1883 76.79C82.2683 77.11 81.3383 77.27 80.3983 77.27ZM93.5627 77V61.91H106.853V77H104.153V64.04H96.2627V77H93.5627ZM116.022 77V61.91H118.722V67.25H123.162C125.122 67.25 126.592 67.67 127.572 68.51C128.572 69.33 129.072 70.52 129.072 72.08C129.072 73.08 128.842 73.95 128.382 74.69C127.922 75.43 127.252 76 126.372 76.4C125.492 76.8 124.422 77 123.162 77H116.022ZM118.722 75.11H122.862C124.062 75.11 124.962 74.87 125.562 74.39C126.182 73.89 126.492 73.13 126.492 72.11C126.492 71.09 126.182 70.34 125.562 69.86C124.962 69.38 124.062 69.14 122.862 69.14H118.722V75.11ZM131.262 77V61.91H133.962V77H131.262ZM146.379 77V64.1H140.949V61.91H154.509V64.1H149.079V77H146.379ZM167.346 77.27C166.026 77.27 164.866 76.96 163.866 76.34C162.866 75.72 162.086 74.82 161.526 73.64C160.966 72.46 160.686 71.06 160.686 69.44C160.686 67.82 160.966 66.43 161.526 65.27C162.086 64.09 162.866 63.19 163.866 62.57C164.866 61.95 166.026 61.64 167.346 61.64C168.686 61.64 169.846 61.98 170.826 62.66C171.826 63.32 172.486 64.23 172.806 65.39H172.446L172.776 61.91H175.416C175.356 62.51 175.296 63.11 175.236 63.71C175.196 64.31 175.176 64.9 175.176 65.48V77H172.446V73.55H172.776C172.456 74.69 171.796 75.6 170.796 76.28C169.816 76.94 168.666 77.27 167.346 77.27ZM167.976 75.11C169.336 75.11 170.426 74.63 171.246 73.67C172.066 72.71 172.476 71.3 172.476 69.44C172.476 67.58 172.066 66.18 171.246 65.24C170.426 64.3 169.336 63.83 167.976 63.83C166.616 63.83 165.516 64.3 164.676 65.24C163.856 66.18 163.446 67.58 163.446 69.44C163.446 71.3 163.856 72.71 164.676 73.67C165.496 74.63 166.596 75.11 167.976 75.11ZM184.483 77V61.91H186.973V74.42H186.163L195.523 61.91H197.803V77H195.313V64.46H196.153L186.763 77H184.483ZM191.143 60.53C190.283 60.53 189.493 60.38 188.773 60.08C188.053 59.78 187.433 59.35 186.913 58.79C186.413 58.21 186.033 57.49 185.773 56.63L187.333 56.06C187.693 57.02 188.183 57.73 188.803 58.19C189.423 58.63 190.203 58.85 191.143 58.85C192.103 58.85 192.893 58.64 193.513 58.22C194.133 57.8 194.673 57.09 195.133 56.09L196.603 56.63C196.103 57.99 195.373 58.98 194.413 59.6C193.473 60.22 192.383 60.53 191.143 60.53ZM225.951 77.27C224.451 77.27 223.151 76.96 222.051 76.34C220.951 75.7 220.091 74.79 219.471 73.61C218.871 72.41 218.571 70.99 218.571 69.35C218.571 67.73 218.881 66.35 219.501 65.21C220.121 64.05 220.981 63.17 222.081 62.57C223.181 61.95 224.471 61.64 225.951 61.64C226.931 61.64 227.881 61.81 228.801 62.15C229.721 62.47 230.471 62.94 231.051 63.56L230.121 65.48C229.541 64.92 228.901 64.51 228.201 64.25C227.501 63.97 226.811 63.83 226.131 63.83C224.651 63.83 223.491 64.31 222.651 65.27C221.811 66.21 221.391 67.58 221.391 69.38C221.391 71.2 221.811 72.6 222.651 73.58C223.491 74.56 224.651 75.05 226.131 75.05C226.791 75.05 227.471 74.92 228.171 74.66C228.871 74.4 229.521 73.99 230.121 73.43L231.051 75.32C230.451 75.96 229.681 76.45 228.741 76.79C227.821 77.11 226.891 77.27 225.951 77.27ZM239.115 77V61.91H246.555C248.335 61.91 249.655 62.25 250.515 62.93C251.395 63.61 251.835 64.59 251.835 65.87C251.835 66.83 251.505 67.64 250.845 68.3C250.185 68.94 249.325 69.33 248.265 69.47V69.08C249.525 69.12 250.515 69.49 251.235 70.19C251.975 70.87 252.345 71.75 252.345 72.83C252.345 74.11 251.855 75.13 250.875 75.89C249.915 76.63 248.565 77 246.825 77H239.115ZM241.695 75.2H246.645C247.665 75.2 248.445 74.99 248.985 74.57C249.525 74.13 249.795 73.51 249.795 72.71C249.795 71.89 249.525 71.27 248.985 70.85C248.445 70.43 247.665 70.22 246.645 70.22H241.695V75.2ZM241.695 68.42H246.315C247.255 68.42 247.985 68.21 248.505 67.79C249.025 67.37 249.285 66.79 249.285 66.05C249.285 65.29 249.025 64.71 248.505 64.31C247.985 63.91 247.255 63.71 246.315 63.71H241.695V68.42ZM266.97 77.27C265.49 77.27 264.21 76.96 263.13 76.34C262.05 75.7 261.21 74.8 260.61 73.64C260.01 72.46 259.71 71.06 259.71 69.44C259.71 67.84 260.01 66.46 260.61 65.3C261.21 64.12 262.05 63.22 263.13 62.6C264.21 61.96 265.49 61.64 266.97 61.64C268.45 61.64 269.73 61.96 270.81 62.6C271.91 63.22 272.75 64.12 273.33 65.3C273.93 66.46 274.23 67.84 274.23 69.44C274.23 71.06 273.93 72.46 273.33 73.64C272.75 74.8 271.91 75.7 270.81 76.34C269.73 76.96 268.45 77.27 266.97 77.27ZM266.97 75.11C268.33 75.11 269.42 74.63 270.24 73.67C271.06 72.71 271.47 71.3 271.47 69.44C271.47 67.58 271.06 66.18 270.24 65.24C269.42 64.3 268.33 63.83 266.97 63.83C265.59 63.83 264.49 64.3 263.67 65.24C262.87 66.18 262.47 67.58 262.47 69.44C262.47 71.3 262.87 72.71 263.67 73.67C264.49 74.63 265.59 75.11 266.97 75.11ZM295.407 77.27C293.347 77.27 291.677 76.66 290.397 75.44C289.137 74.2 288.417 72.49 288.237 70.31H285.297V77H282.627V61.91H285.297V68.15H288.267C288.527 66.11 289.287 64.52 290.547 63.38C291.807 62.22 293.427 61.64 295.407 61.64C296.887 61.64 298.167 61.95 299.247 62.57C300.347 63.19 301.197 64.09 301.797 65.27C302.397 66.43 302.697 67.82 302.697 69.44C302.697 71.06 302.397 72.46 301.797 73.64C301.197 74.8 300.347 75.7 299.247 76.34C298.167 76.96 296.887 77.27 295.407 77.27ZM295.407 75.11C296.787 75.11 297.887 74.64 298.707 73.7C299.527 72.74 299.937 71.32 299.937 69.44C299.937 67.58 299.527 66.18 298.707 65.24C297.887 64.28 296.787 63.8 295.407 63.8C294.027 63.8 292.927 64.28 292.107 65.24C291.287 66.18 290.877 67.58 290.877 69.44C290.877 71.32 291.287 72.74 292.107 73.7C292.927 74.64 294.027 75.11 295.407 75.11ZM323.473 77V61.91H330.913C332.693 61.91 334.013 62.25 334.873 62.93C335.753 63.61 336.193 64.59 336.193 65.87C336.193 66.83 335.863 67.64 335.203 68.3C334.543 68.94 333.683 69.33 332.623 69.47V69.08C333.883 69.12 334.873 69.49 335.593 70.19C336.333 70.87 336.703 71.75 336.703 72.83C336.703 74.11 336.213 75.13 335.233 75.89C334.273 76.63 332.923 77 331.183 77H323.473ZM326.053 75.2H331.003C332.023 75.2 332.803 74.99 333.343 74.57C333.883 74.13 334.153 73.51 334.153 72.71C334.153 71.89 333.883 71.27 333.343 70.85C332.803 70.43 332.023 70.22 331.003 70.22H326.053V75.2ZM326.053 68.42H330.673C331.613 68.42 332.343 68.21 332.863 67.79C333.383 67.37 333.643 66.79 333.643 66.05C333.643 65.29 333.383 64.71 332.863 64.31C332.343 63.91 331.613 63.71 330.673 63.71H326.053V68.42ZM344.877 77V61.91H347.577V68.15H350.307L355.167 61.91H358.137L352.497 69.26L351.777 68.42C352.357 68.48 352.857 68.63 353.277 68.87C353.697 69.09 354.097 69.42 354.477 69.86C354.877 70.3 355.307 70.89 355.767 71.63L358.887 77H355.947L353.217 72.35C352.917 71.81 352.617 71.39 352.317 71.09C352.017 70.79 351.677 70.58 351.297 70.46C350.937 70.34 350.477 70.28 349.917 70.28H347.577V77H344.877ZM365.305 83.81L364.675 81.59C365.615 81.37 366.395 81.11 367.015 80.81C367.635 80.53 368.155 80.16 368.575 79.7C368.995 79.24 369.365 78.66 369.685 77.96L370.435 76.16L370.375 77.3L363.805 61.91H366.745L371.995 74.84H371.215L376.465 61.91H379.285L372.355 78.17C371.935 79.15 371.475 79.97 370.975 80.63C370.495 81.29 369.965 81.83 369.385 82.25C368.825 82.67 368.205 83 367.525 83.24C366.845 83.48 366.105 83.67 365.305 83.81ZM392.908 77.27C391.408 77.27 390.108 76.96 389.008 76.34C387.908 75.7 387.048 74.79 386.428 73.61C385.828 72.41 385.528 70.99 385.528 69.35C385.528 67.73 385.838 66.35 386.458 65.21C387.078 64.05 387.938 63.17 389.038 62.57C390.138 61.95 391.428 61.64 392.908 61.64C393.888 61.64 394.838 61.81 395.758 62.15C396.678 62.47 397.428 62.94 398.008 63.56L397.078 65.48C396.498 64.92 395.858 64.51 395.158 64.25C394.458 63.97 393.768 63.83 393.088 63.83C391.608 63.83 390.448 64.31 389.608 65.27C388.768 66.21 388.348 67.58 388.348 69.38C388.348 71.2 388.768 72.6 389.608 73.58C390.448 74.56 391.608 75.05 393.088 75.05C393.748 75.05 394.428 74.92 395.128 74.66C395.828 74.4 396.478 73.99 397.078 73.43L398.008 75.32C397.408 75.96 396.638 76.45 395.698 76.79C394.778 77.11 393.848 77.27 392.908 77.27ZM406.072 77V61.91H408.772V68.15H416.752V61.91H419.452V77H416.752V70.31H408.772V77H406.072ZM428.199 83.81L427.569 81.59C428.509 81.37 429.289 81.11 429.909 80.81C430.529 80.53 431.049 80.16 431.469 79.7C431.889 79.24 432.259 78.66 432.579 77.96L433.329 76.16L433.269 77.3L426.699 61.91H429.639L434.889 74.84H434.109L439.359 61.91H442.179L435.249 78.17C434.829 79.15 434.369 79.97 433.869 80.63C433.389 81.29 432.859 81.83 432.279 82.25C431.719 82.67 431.099 83 430.419 83.24C429.739 83.48 428.999 83.67 428.199 83.81ZM462.218 77.27C460.158 77.27 458.488 76.66 457.208 75.44C455.948 74.2 455.228 72.49 455.048 70.31H452.108V77H449.438V61.91H452.108V68.15H455.078C455.338 66.11 456.098 64.52 457.358 63.38C458.618 62.22 460.238 61.64 462.218 61.64C463.698 61.64 464.978 61.95 466.058 62.57C467.158 63.19 468.008 64.09 468.608 65.27C469.208 66.43 469.508 67.82 469.508 69.44C469.508 71.06 469.208 72.46 468.608 73.64C468.008 74.8 467.158 75.7 466.058 76.34C464.978 76.96 463.698 77.27 462.218 77.27ZM462.218 75.11C463.598 75.11 464.698 74.64 465.518 73.7C466.338 72.74 466.748 71.32 466.748 69.44C466.748 67.58 466.338 66.18 465.518 65.24C464.698 64.28 463.598 63.8 462.218 63.8C460.838 63.8 459.738 64.28 458.918 65.24C458.098 66.18 457.688 67.58 457.688 69.44C457.688 71.32 458.098 72.74 458.918 73.7C459.738 74.64 460.838 75.11 462.218 75.11ZM50.92 113.81L50.29 111.59C51.23 111.37 52.01 111.11 52.63 110.81C53.25 110.53 53.77 110.16 54.19 109.7C54.61 109.24 54.98 108.66 55.3 107.96L56.05 106.16L55.99 107.3L49.42 91.91H52.36L57.61 104.84H56.83L62.08 91.91H64.9L57.97 108.17C57.55 109.15 57.09 109.97 56.59 110.63C56.11 111.29 55.58 111.83 55 112.25C54.44 112.67 53.82 113 53.14 113.24C52.46 113.48 51.72 113.67 50.92 113.81ZM70.2175 110.9V104.87H71.8675C72.5475 103.85 73.0375 102.65 73.3375 101.27C73.6575 99.89 73.8175 98.25 73.8175 96.35V91.91H84.6475V104.87H87.0475V110.9H84.7075V107H72.5875V110.9H70.2175ZM74.4475 104.9H82.0975V94.01H76.2175V96.83C76.2175 98.35 76.0675 99.83 75.7675 101.27C75.4675 102.69 75.0275 103.9 74.4475 104.9ZM100.555 107.27C99.2352 107.27 98.0752 106.96 97.0752 106.34C96.0752 105.72 95.2952 104.82 94.7352 103.64C94.1752 102.46 93.8952 101.06 93.8952 99.44C93.8952 97.82 94.1752 96.43 94.7352 95.27C95.2952 94.09 96.0752 93.19 97.0752 92.57C98.0752 91.95 99.2352 91.64 100.555 91.64C101.895 91.64 103.055 91.98 104.035 92.66C105.035 93.32 105.695 94.23 106.015 95.39H105.655L105.985 91.91H108.625C108.565 92.51 108.505 93.11 108.445 93.71C108.405 94.31 108.385 94.9 108.385 95.48V107H105.655V103.55H105.985C105.665 104.69 105.005 105.6 104.005 106.28C103.025 106.94 101.875 107.27 100.555 107.27ZM101.185 105.11C102.545 105.11 103.635 104.63 104.455 103.67C105.275 102.71 105.685 101.3 105.685 99.44C105.685 97.58 105.275 96.18 104.455 95.24C103.635 94.3 102.545 93.83 101.185 93.83C99.8252 93.83 98.7252 94.3 97.8852 95.24C97.0652 96.18 96.6552 97.58 96.6552 99.44C96.6552 101.3 97.0652 102.71 97.8852 103.67C98.7052 104.63 99.8052 105.11 101.185 105.11ZM127.382 107V101.03C126.802 101.35 126.182 101.6 125.522 101.78C124.862 101.94 124.162 102.02 123.422 102.02C121.262 102.02 119.662 101.52 118.622 100.52C117.602 99.5 117.092 97.97 117.092 95.93V91.91H119.792V95.72C119.792 97.14 120.112 98.17 120.752 98.81C121.412 99.43 122.432 99.74 123.812 99.74C124.512 99.74 125.142 99.67 125.702 99.53C126.262 99.37 126.802 99.12 127.322 98.78V91.91H130.052V107H127.382ZM138.822 113.81L138.192 111.59C139.132 111.37 139.912 111.11 140.532 110.81C141.152 110.53 141.672 110.16 142.092 109.7C142.512 109.24 142.882 108.66 143.202 107.96L143.952 106.16L143.892 107.3L137.322 91.91H140.262L145.512 104.84H144.732L149.982 91.91H152.802L145.872 108.17C145.452 109.15 144.992 109.97 144.492 110.63C144.012 111.29 143.482 111.83 142.902 112.25C142.342 112.67 141.722 113 141.042 113.24C140.362 113.48 139.622 113.67 138.822 113.81ZM159.551 95.21V91.91H162.881V95.21H159.551ZM159.551 107V103.67H162.881V107H159.551ZM183.973 107V91.91H186.673V98.15H189.403L194.263 91.91H197.233L191.593 99.26L190.873 98.42C191.453 98.48 191.953 98.63 192.373 98.87C192.793 99.09 193.193 99.42 193.573 99.86C193.973 100.3 194.403 100.89 194.863 101.63L197.983 107H195.043L192.313 102.35C192.013 101.81 191.713 101.39 191.413 101.09C191.113 100.79 190.773 100.58 190.393 100.46C190.033 100.34 189.573 100.28 189.013 100.28H186.673V107H183.973ZM204.1 107.36L203.14 105.23C203.84 104.91 204.42 104.53 204.88 104.09C205.36 103.63 205.73 103.05 205.99 102.35C206.27 101.65 206.47 100.78 206.59 99.74C206.71 98.7 206.77 97.44 206.77 95.96V91.91H217.9V107H215.2V94.04H209.29V96.02C209.29 98.34 209.11 100.26 208.75 101.78C208.41 103.28 207.86 104.47 207.1 105.35C206.36 106.23 205.36 106.9 204.1 107.36ZM227.074 107V91.91H229.564V104.42H228.754L238.114 91.91H240.394V107H237.904V94.46H238.744L229.354 107H227.074ZM249.563 107V91.91H252.263V98.15H254.993L259.853 91.91H262.823L257.183 99.26L256.463 98.42C257.043 98.48 257.543 98.63 257.963 98.87C258.383 99.09 258.783 99.42 259.163 99.86C259.563 100.3 259.993 100.89 260.453 101.63L263.573 107H260.633L257.903 102.35C257.603 101.81 257.303 101.39 257.003 101.09C256.703 100.79 256.363 100.58 255.983 100.46C255.623 100.34 255.163 100.28 254.603 100.28H252.263V107H249.563ZM270.41 107V91.91H273.11V98.15H281.09V91.91H283.79V107H281.09V100.31H273.11V107H270.41ZM292.957 107V91.91H295.447V104.42H294.637L303.997 91.91H306.277V107H303.787V94.46H304.627L295.237 107H292.957ZM327.856 107V91.91H330.556V98.15H338.536V91.91H341.236V107H338.536V100.31H330.556V107H327.856ZM356.253 107.27C354.933 107.27 353.773 106.96 352.773 106.34C351.773 105.72 350.993 104.82 350.433 103.64C349.873 102.46 349.593 101.06 349.593 99.44C349.593 97.82 349.873 96.43 350.433 95.27C350.993 94.09 351.773 93.19 352.773 92.57C353.773 91.95 354.933 91.64 356.253 91.64C357.593 91.64 358.753 91.98 359.733 92.66C360.733 93.32 361.393 94.23 361.713 95.39H361.353L361.683 91.91H364.323C364.263 92.51 364.203 93.11 364.143 93.71C364.103 94.31 364.083 94.9 364.083 95.48V107H361.353V103.55H361.683C361.363 104.69 360.703 105.6 359.703 106.28C358.723 106.94 357.573 107.27 356.253 107.27ZM356.882 105.11C358.243 105.11 359.333 104.63 360.153 103.67C360.973 102.71 361.383 101.3 361.383 99.44C361.383 97.58 360.973 96.18 360.153 95.24C359.333 94.3 358.243 93.83 356.882 93.83C355.523 93.83 354.423 94.3 353.583 95.24C352.763 96.18 352.353 97.58 352.353 99.44C352.353 101.3 352.763 102.71 353.583 103.67C354.403 104.63 355.503 105.11 356.882 105.11ZM385.799 107V91.91H393.239C395.019 91.91 396.339 92.25 397.199 92.93C398.079 93.61 398.519 94.59 398.519 95.87C398.519 96.83 398.189 97.64 397.529 98.3C396.869 98.94 396.009 99.33 394.949 99.47V99.08C396.209 99.12 397.199 99.49 397.919 100.19C398.659 100.87 399.029 101.75 399.029 102.83C399.029 104.11 398.539 105.13 397.559 105.89C396.599 106.63 395.249 107 393.509 107H385.799ZM388.379 105.2H393.329C394.349 105.2 395.129 104.99 395.669 104.57C396.209 104.13 396.479 103.51 396.479 102.71C396.479 101.89 396.209 101.27 395.669 100.85C395.129 100.43 394.349 100.22 393.329 100.22H388.379V105.2ZM388.379 98.42H392.999C393.939 98.42 394.669 98.21 395.189 97.79C395.709 97.37 395.969 96.79 395.969 96.05C395.969 95.29 395.709 94.71 395.189 94.31C394.669 93.91 393.939 93.71 392.999 93.71H388.379V98.42ZM414.163 107.27C411.763 107.27 409.863 106.58 408.463 105.2C407.083 103.82 406.393 101.92 406.393 99.5C406.393 97.9 406.693 96.52 407.293 95.36C407.913 94.18 408.763 93.27 409.843 92.63C410.923 91.97 412.183 91.64 413.623 91.64C415.003 91.64 416.173 91.94 417.133 92.54C418.093 93.12 418.823 93.95 419.323 95.03C419.823 96.11 420.073 97.39 420.073 98.87V99.77H408.523V98.15H418.213L417.703 98.54C417.703 96.98 417.353 95.77 416.653 94.91C415.973 94.05 414.963 93.62 413.623 93.62C412.163 93.62 411.033 94.13 410.233 95.15C409.433 96.15 409.033 97.52 409.033 99.26V99.53C409.033 101.37 409.483 102.76 410.383 103.7C411.303 104.64 412.573 105.11 414.193 105.11C415.093 105.11 415.933 104.98 416.713 104.72C417.493 104.46 418.243 104.03 418.963 103.43L419.863 105.32C419.183 105.94 418.333 106.42 417.313 106.76C416.313 107.1 415.263 107.27 414.163 107.27ZM428.463 113.48V95.48C428.463 94.9 428.443 94.31 428.403 93.71C428.363 93.11 428.303 92.51 428.223 91.91H430.863L431.193 95.39H430.863C431.163 94.23 431.803 93.32 432.783 92.66C433.763 91.98 434.933 91.64 436.293 91.64C437.633 91.64 438.803 91.95 439.803 92.57C440.803 93.19 441.573 94.09 442.113 95.27C442.673 96.43 442.953 97.82 442.953 99.44C442.953 101.06 442.673 102.46 442.113 103.64C441.573 104.82 440.803 105.72 439.803 106.34C438.803 106.96 437.633 107.27 436.293 107.27C434.953 107.27 433.793 106.94 432.813 106.28C431.853 105.6 431.203 104.69 430.863 103.55H431.193V113.48H428.463ZM435.663 105.11C437.043 105.11 438.143 104.63 438.963 103.67C439.783 102.71 440.193 101.3 440.193 99.44C440.193 97.58 439.783 96.18 438.963 95.24C438.143 94.3 437.043 93.83 435.663 93.83C434.283 93.83 433.183 94.3 432.363 95.24C431.563 96.18 431.163 97.58 431.163 99.44C431.163 101.3 431.563 102.71 432.363 103.67C433.183 104.63 434.283 105.11 435.663 105.11ZM458.32 107.27C455.92 107.27 454.02 106.58 452.62 105.2C451.24 103.82 450.55 101.92 450.55 99.5C450.55 97.9 450.85 96.52 451.45 95.36C452.07 94.18 452.92 93.27 454 92.63C455.08 91.97 456.34 91.64 457.78 91.64C459.16 91.64 460.33 91.94 461.29 92.54C462.25 93.12 462.98 93.95 463.48 95.03C463.98 96.11 464.23 97.39 464.23 98.87V99.77H452.68V98.15H462.37L461.86 98.54C461.86 96.98 461.51 95.77 460.81 94.91C460.13 94.05 459.12 93.62 457.78 93.62C456.32 93.62 455.19 94.13 454.39 95.15C453.59 96.15 453.19 97.52 453.19 99.26V99.53C453.19 101.37 453.64 102.76 454.54 103.7C455.46 104.64 456.73 105.11 458.35 105.11C459.25 105.11 460.09 104.98 460.87 104.72C461.65 104.46 462.4 104.03 463.12 103.43L464.02 105.32C463.34 105.94 462.49 106.42 461.47 106.76C460.47 107.1 459.42 107.27 458.32 107.27ZM472.529 107V91.91H475.229V98.15H483.209V91.91H485.909V107H483.209V100.31H475.229V107H472.529ZM495.076 107V91.91H497.566V104.42H496.756L506.116 91.91H508.396V107H505.906V94.46H506.746L497.356 107H495.076ZM530.615 110.9V107H517.565V91.91H520.265V104.87H527.825V91.91H530.525V104.87H532.925V110.9H530.615ZM540.131 113.81L539.501 111.59C540.441 111.37 541.221 111.11 541.841 110.81C542.461 110.53 542.981 110.16 543.401 109.7C543.821 109.24 544.191 108.66 544.511 107.96L545.261 106.16L545.201 107.3L538.631 91.91H541.571L546.821 104.84H546.041L551.291 91.91H554.111L547.181 108.17C546.761 109.15 546.301 109.97 545.801 110.63C545.321 111.29 544.791 111.83 544.211 112.25C543.651 112.67 543.031 113 542.351 113.24C541.671 113.48 540.931 113.67 540.131 113.81ZM51.34 137V121.91H64.63V137H61.93V124.04H54.04V137H51.34ZM73.889 143.48V125.48C73.889 124.9 73.869 124.31 73.829 123.71C73.789 123.11 73.729 122.51 73.649 121.91H76.289L76.619 125.39H76.289C76.589 124.23 77.229 123.32 78.209 122.66C79.189 121.98 80.359 121.64 81.719 121.64C83.059 121.64 84.229 121.95 85.229 122.57C86.229 123.19 86.999 124.09 87.539 125.27C88.099 126.43 88.379 127.82 88.379 129.44C88.379 131.06 88.099 132.46 87.539 133.64C86.999 134.82 86.229 135.72 85.229 136.34C84.229 136.96 83.059 137.27 81.719 137.27C80.379 137.27 79.219 136.94 78.239 136.28C77.279 135.6 76.629 134.69 76.289 133.55H76.619V143.48H73.889ZM81.089 135.11C82.469 135.11 83.569 134.63 84.389 133.67C85.209 132.71 85.619 131.3 85.619 129.44C85.619 127.58 85.209 126.18 84.389 125.24C83.569 124.3 82.469 123.83 81.089 123.83C79.709 123.83 78.609 124.3 77.789 125.24C76.989 126.18 76.589 127.58 76.589 129.44C76.589 131.3 76.989 132.71 77.789 133.67C78.609 134.63 79.709 135.11 81.089 135.11ZM103.235 137.27C101.755 137.27 100.475 136.96 99.3953 136.34C98.3153 135.7 97.4753 134.8 96.8753 133.64C96.2753 132.46 95.9753 131.06 95.9753 129.44C95.9753 127.84 96.2753 126.46 96.8753 125.3C97.4753 124.12 98.3153 123.22 99.3953 122.6C100.475 121.96 101.755 121.64 103.235 121.64C104.715 121.64 105.995 121.96 107.075 122.6C108.175 123.22 109.015 124.12 109.595 125.3C110.195 126.46 110.495 127.84 110.495 129.44C110.495 131.06 110.195 132.46 109.595 133.64C109.015 134.8 108.175 135.7 107.075 136.34C105.995 136.96 104.715 137.27 103.235 137.27ZM103.235 135.11C104.595 135.11 105.685 134.63 106.505 133.67C107.325 132.71 107.735 131.3 107.735 129.44C107.735 127.58 107.325 126.18 106.505 125.24C105.685 124.3 104.595 123.83 103.235 123.83C101.855 123.83 100.755 124.3 99.9353 125.24C99.1353 126.18 98.7353 127.58 98.7353 129.44C98.7353 131.3 99.1353 132.71 99.9353 133.67C100.755 134.63 101.855 135.11 103.235 135.11ZM117.333 140.9V134.87H118.983C119.663 133.85 120.153 132.65 120.453 131.27C120.773 129.89 120.933 128.25 120.933 126.35V121.91H131.763V134.87H134.163V140.9H131.823V137H119.703V140.9H117.333ZM121.563 134.9H129.213V124.01H123.333V126.83C123.333 128.35 123.183 129.83 122.883 131.27C122.583 132.69 122.143 133.9 121.563 134.9ZM141.4 143.81L140.77 141.59C141.71 141.37 142.49 141.11 143.11 140.81C143.73 140.53 144.25 140.16 144.67 139.7C145.09 139.24 145.46 138.66 145.78 137.96L146.53 136.16L146.47 137.3L139.9 121.91H142.84L148.09 134.84H147.31L152.56 121.91H155.38L148.45 138.17C148.03 139.15 147.57 139.97 147.07 140.63C146.59 141.29 146.06 141.83 145.48 142.25C144.92 142.67 144.3 143 143.62 143.24C142.94 143.48 142.2 143.67 141.4 143.81ZM162.639 137V121.91H165.339V128.15H168.069L172.929 121.91H175.899L170.259 129.26L169.539 128.42C170.119 128.48 170.619 128.63 171.039 128.87C171.459 129.09 171.859 129.42 172.239 129.86C172.639 130.3 173.069 130.89 173.529 131.63L176.649 137H173.709L170.979 132.35C170.679 131.81 170.379 131.39 170.079 131.09C169.779 130.79 169.439 130.58 169.059 130.46C168.699 130.34 168.239 130.28 167.679 130.28H165.339V137H162.639ZM186.726 137V124.1H181.296V121.91H194.856V124.1H189.426V137H186.726ZM208.206 137.27C206.726 137.27 205.446 136.96 204.366 136.34C203.286 135.7 202.446 134.8 201.846 133.64C201.246 132.46 200.946 131.06 200.946 129.44C200.946 127.84 201.246 126.46 201.846 125.3C202.446 124.12 203.286 123.22 204.366 122.6C205.446 121.96 206.726 121.64 208.206 121.64C209.686 121.64 210.966 121.96 212.046 122.6C213.146 123.22 213.986 124.12 214.566 125.3C215.166 126.46 215.466 127.84 215.466 129.44C215.466 131.06 215.166 132.46 214.566 133.64C213.986 134.8 213.146 135.7 212.046 136.34C210.966 136.96 209.686 137.27 208.206 137.27ZM208.206 135.11C209.566 135.11 210.656 134.63 211.476 133.67C212.296 132.71 212.706 131.3 212.706 129.44C212.706 127.58 212.296 126.18 211.476 125.24C210.656 124.3 209.566 123.83 208.206 123.83C206.826 123.83 205.726 124.3 204.906 125.24C204.106 126.18 203.706 127.58 203.706 129.44C203.706 131.3 204.106 132.71 204.906 133.67C205.726 134.63 206.826 135.11 208.206 135.11ZM223.863 137V121.91H231.303C233.083 121.91 234.403 122.25 235.263 122.93C236.143 123.61 236.583 124.59 236.583 125.87C236.583 126.83 236.253 127.64 235.593 128.3C234.933 128.94 234.073 129.33 233.013 129.47V129.08C234.273 129.12 235.263 129.49 235.983 130.19C236.723 130.87 237.093 131.75 237.093 132.83C237.093 134.11 236.603 135.13 235.623 135.89C234.663 136.63 233.313 137 231.573 137H223.863ZM226.443 135.2H231.393C232.413 135.2 233.193 134.99 233.733 134.57C234.273 134.13 234.543 133.51 234.543 132.71C234.543 131.89 234.273 131.27 233.733 130.85C233.193 130.43 232.413 130.22 231.393 130.22H226.443V135.2ZM226.443 128.42H231.063C232.003 128.42 232.733 128.21 233.253 127.79C233.773 127.37 234.033 126.79 234.033 126.05C234.033 125.29 233.773 124.71 233.253 124.31C232.733 123.91 232.003 123.71 231.063 123.71H226.443V128.42ZM257.678 137V121.91H260.168V134.42H259.358L268.718 121.91H270.998V137H268.508V124.46H269.348L259.958 137H257.678ZM292.156 143.81L291.526 141.59C292.466 141.37 293.246 141.11 293.866 140.81C294.486 140.53 295.006 140.16 295.426 139.7C295.846 139.24 296.216 138.66 296.536 137.96L297.286 136.16L297.226 137.3L290.656 121.91H293.596L298.846 134.84H298.066L303.316 121.91L306.136 121.91L299.206 138.17C298.786 139.15 298.326 139.97 297.826 140.63C297.346 141.29 296.816 141.83 296.236 142.25C295.676 142.67 295.056 143 294.376 143.24C293.696 143.48 292.956 143.67 292.156 143.81ZM318.437 137.27C317.117 137.27 315.887 137.1 314.747 136.76C313.607 136.42 312.667 135.94 311.927 135.32L312.827 133.43C313.567 134.03 314.407 134.48 315.347 134.78C316.287 135.08 317.307 135.23 318.407 135.23C319.847 135.23 320.887 135.02 321.527 134.6C322.187 134.16 322.517 133.53 322.517 132.71C322.517 131.93 322.247 131.34 321.707 130.94C321.167 130.54 320.377 130.34 319.337 130.34H315.677V128.36H319.007C319.947 128.36 320.677 128.16 321.197 127.76C321.737 127.34 322.007 126.77 322.007 126.05C322.007 125.31 321.707 124.73 321.107 124.31C320.507 123.87 319.587 123.65 318.347 123.65C317.307 123.65 316.357 123.79 315.497 124.07C314.637 124.33 313.817 124.73 313.037 125.27L312.167 123.5C312.987 122.86 313.947 122.39 315.047 122.09C316.147 121.79 317.347 121.64 318.647 121.64C320.547 121.64 321.997 122.01 322.997 122.75C324.017 123.47 324.527 124.5 324.527 125.84C324.527 126.78 324.207 127.59 323.567 128.27C322.927 128.93 322.077 129.33 321.017 129.47V129.08C322.217 129.14 323.187 129.51 323.927 130.19C324.667 130.85 325.037 131.73 325.037 132.83C325.037 134.17 324.477 135.25 323.357 136.07C322.237 136.87 320.597 137.27 318.437 137.27ZM333.188 137V121.91H335.888V128.15H343.868V121.91H346.568V137H343.868V130.31H335.888V137H333.188ZM361.585 137.27C360.265 137.27 359.105 136.96 358.105 136.34C357.105 135.72 356.325 134.82 355.765 133.64C355.205 132.46 354.925 131.06 354.925 129.44C354.925 127.82 355.205 126.43 355.765 125.27C356.325 124.09 357.105 123.19 358.105 122.57C359.105 121.95 360.265 121.64 361.585 121.64C362.925 121.64 364.085 121.98 365.065 122.66C366.065 123.32 366.725 124.23 367.045 125.39H366.685L367.015 121.91H369.655C369.595 122.51 369.535 123.11 369.475 123.71C369.435 124.31 369.415 124.9 369.415 125.48V137H366.685V133.55H367.015C366.695 134.69 366.035 135.6 365.035 136.28C364.055 136.94 362.905 137.27 361.585 137.27ZM362.215 135.11C363.575 135.11 364.665 134.63 365.485 133.67C366.305 132.71 366.715 131.3 366.715 129.44C366.715 127.58 366.305 126.18 365.485 125.24C364.665 124.3 363.575 123.83 362.215 123.83C360.855 123.83 359.755 124.3 358.915 125.24C358.095 126.18 357.685 127.58 357.685 129.44C357.685 131.3 358.095 132.71 358.915 133.67C359.735 134.63 360.835 135.11 362.215 135.11ZM378.721 137V121.91H381.211V134.42H380.401L389.761 121.91H392.041V137H389.551V124.46H390.391L381.001 137H378.721ZM385.381 120.53C384.521 120.53 383.731 120.38 383.011 120.08C382.291 119.78 381.671 119.35 381.151 118.79C380.651 118.21 380.271 117.49 380.011 116.63L381.571 116.06C381.931 117.02 382.421 117.73 383.041 118.19C383.661 118.63 384.441 118.85 385.381 118.85C386.341 118.85 387.131 118.64 387.751 118.22C388.371 117.8 388.911 117.09 389.371 116.09L390.841 116.63C390.341 117.99 389.611 118.98 388.651 119.6C387.711 120.22 386.621 120.53 385.381 120.53ZM420.189 137.27C418.689 137.27 417.389 136.96 416.289 136.34C415.189 135.7 414.329 134.79 413.709 133.61C413.109 132.41 412.809 130.99 412.809 129.35C412.809 127.73 413.119 126.35 413.739 125.21C414.359 124.05 415.219 123.17 416.319 122.57C417.419 121.95 418.709 121.64 420.189 121.64C421.169 121.64 422.119 121.81 423.039 122.15C423.959 122.47 424.709 122.94 425.289 123.56L424.359 125.48C423.779 124.92 423.139 124.51 422.439 124.25C421.739 123.97 421.049 123.83 420.369 123.83C418.889 123.83 417.729 124.31 416.889 125.27C416.049 126.21 415.629 127.58 415.629 129.38C415.629 131.2 416.049 132.6 416.889 133.58C417.729 134.56 418.889 135.05 420.369 135.05C421.029 135.05 421.709 134.92 422.409 134.66C423.109 134.4 423.759 133.99 424.359 133.43L425.289 135.32C424.689 135.96 423.919 136.45 422.979 136.79C422.059 137.11 421.129 137.27 420.189 137.27ZM433.354 137V121.91H440.794C442.574 121.91 443.894 122.25 444.754 122.93C445.634 123.61 446.074 124.59 446.074 125.87C446.074 126.83 445.744 127.64 445.084 128.3C444.424 128.94 443.564 129.33 442.504 129.47V129.08C443.764 129.12 444.754 129.49 445.474 130.19C446.214 130.87 446.584 131.75 446.584 132.83C446.584 134.11 446.094 135.13 445.114 135.89C444.154 136.63 442.804 137 441.064 137H433.354ZM435.934 135.2H440.884C441.904 135.2 442.684 134.99 443.224 134.57C443.764 134.13 444.034 133.51 444.034 132.71C444.034 131.89 443.764 131.27 443.224 130.85C442.684 130.43 441.904 130.22 440.884 130.22H435.934V135.2ZM435.934 128.42H440.554C441.494 128.42 442.224 128.21 442.744 127.79C443.264 127.37 443.524 126.79 443.524 126.05C443.524 125.29 443.264 124.71 442.744 124.31C442.224 123.91 441.494 123.71 440.554 123.71H435.934V128.42ZM461.208 137.27C459.728 137.27 458.448 136.96 457.368 136.34C456.288 135.7 455.448 134.8 454.848 133.64C454.248 132.46 453.948 131.06 453.948 129.44C453.948 127.84 454.248 126.46 454.848 125.3C455.448 124.12 456.288 123.22 457.368 122.6C458.448 121.96 459.728 121.64 461.208 121.64C462.688 121.64 463.968 121.96 465.048 122.6C466.148 123.22 466.988 124.12 467.568 125.3C468.168 126.46 468.468 127.84 468.468 129.44C468.468 131.06 468.168 132.46 467.568 133.64C466.988 134.8 466.148 135.7 465.048 136.34C463.968 136.96 462.688 137.27 461.208 137.27ZM461.208 135.11C462.568 135.11 463.658 134.63 464.478 133.67C465.298 132.71 465.708 131.3 465.708 129.44C465.708 127.58 465.298 126.18 464.478 125.24C463.658 124.3 462.568 123.83 461.208 123.83C459.828 123.83 458.728 124.3 457.908 125.24C457.108 126.18 456.708 127.58 456.708 129.44C456.708 131.3 457.108 132.71 457.908 133.67C458.728 134.63 459.828 135.11 461.208 135.11ZM483.825 137.27C481.425 137.27 479.525 136.58 478.125 135.2C476.745 133.82 476.055 131.92 476.055 129.5C476.055 127.9 476.355 126.52 476.955 125.36C477.575 124.18 478.425 123.27 479.505 122.63C480.585 121.97 481.845 121.64 483.285 121.64C484.665 121.64 485.835 121.94 486.795 122.54C487.755 123.12 488.485 123.95 488.985 125.03C489.485 126.11 489.735 127.39 489.735 128.87V129.77H478.185V128.15H487.875L487.365 128.54C487.365 126.98 487.015 125.77 486.315 124.91C485.635 124.05 484.625 123.62 483.285 123.62C481.825 123.62 480.695 124.13 479.895 125.15C479.095 126.15 478.695 127.52 478.695 129.26V129.53C478.695 131.37 479.145 132.76 480.045 133.7C480.965 134.64 482.235 135.11 483.855 135.11C484.755 135.11 485.595 134.98 486.375 134.72C487.155 134.46 487.905 134.03 488.625 133.43L489.525 135.32C488.845 135.94 487.995 136.42 486.975 136.76C485.975 137.1 484.925 137.27 483.825 137.27ZM60.04 173.48V163.73H60.34C60.04 164.87 59.51 165.75 58.75 166.37C58.01 166.97 57.1 167.27 56.02 167.27C54.94 167.27 53.98 166.95 53.14 166.31C52.32 165.67 51.68 164.77 51.22 163.61C50.76 162.43 50.53 161.04 50.53 159.44C50.53 157.84 50.75 156.46 51.19 155.3C51.65 154.12 52.29 153.22 53.11 152.6C53.95 151.96 54.92 151.64 56.02 151.64C57.1 151.64 58.01 151.95 58.75 152.57C59.51 153.17 60.04 154.03 60.34 155.15H60.04V144.92H62.74V155.15H62.44C62.76 154.03 63.29 153.17 64.03 152.57C64.77 151.95 65.68 151.64 66.76 151.64C67.86 151.64 68.82 151.96 69.64 152.6C70.48 153.22 71.12 154.12 71.56 155.3C72.02 156.46 72.25 157.84 72.25 159.44C72.25 161.04 72.02 162.43 71.56 163.61C71.12 164.77 70.49 165.67 69.67 166.31C68.85 166.95 67.88 167.27 66.76 167.27C65.7 167.27 64.79 166.97 64.03 166.37C63.29 165.75 62.76 164.87 62.44 163.73H62.74V173.48H60.04ZM56.68 165.14C57.74 165.14 58.57 164.66 59.17 163.7C59.79 162.74 60.1 161.32 60.1 159.44C60.1 157.6 59.79 156.19 59.17 155.21C58.55 154.23 57.72 153.74 56.68 153.74C55.62 153.74 54.78 154.23 54.16 155.21C53.56 156.19 53.26 157.6 53.26 159.44C53.26 161.32 53.56 162.74 54.16 163.7C54.78 164.66 55.62 165.14 56.68 165.14ZM66.1 165.14C67.16 165.14 68 164.66 68.62 163.7C69.24 162.74 69.55 161.32 69.55 159.44C69.55 157.6 69.24 156.19 68.62 155.21C68 154.23 67.16 153.74 66.1 153.74C65.04 153.74 64.21 154.23 63.61 155.21C63.01 156.19 62.71 157.6 62.71 159.44C62.71 161.32 63.01 162.74 63.61 163.7C64.21 164.66 65.04 165.14 66.1 165.14ZM86.4752 167.27C85.1552 167.27 83.9952 166.96 82.9952 166.34C81.9952 165.72 81.2152 164.82 80.6552 163.64C80.0952 162.46 79.8152 161.06 79.8152 159.44C79.8152 157.82 80.0952 156.43 80.6552 155.27C81.2152 154.09 81.9952 153.19 82.9952 152.57C83.9952 151.95 85.1552 151.64 86.4752 151.64C87.8152 151.64 88.9752 151.98 89.9552 152.66C90.9552 153.32 91.6152 154.23 91.9352 155.39H91.5752L91.9052 151.91H94.5452C94.4852 152.51 94.4252 153.11 94.3652 153.71C94.3252 154.31 94.3052 154.9 94.3052 155.48V167H91.5752V163.55H91.9052C91.5852 164.69 90.9252 165.6 89.9252 166.28C88.9452 166.94 87.7952 167.27 86.4752 167.27ZM87.1052 165.11C88.4652 165.11 89.5552 164.63 90.3752 163.67C91.1952 162.71 91.6052 161.3 91.6052 159.44C91.6052 157.58 91.1952 156.18 90.3752 155.24C89.5552 154.3 88.4652 153.83 87.1052 153.83C85.7452 153.83 84.6452 154.3 83.8052 155.24C82.9852 156.18 82.5752 157.58 82.5752 159.44C82.5752 161.3 82.9852 162.71 83.8052 163.67C84.6252 164.63 85.7252 165.11 87.1052 165.11ZM103.611 167V151.91H106.311V158.15H114.291V151.91H116.991V167H114.291V160.31H106.311V167H103.611ZM129.398 167V154.1H123.968V151.91H137.528V154.1H132.098V167H129.398ZM150.366 167.27C149.046 167.27 147.886 166.96 146.886 166.34C145.886 165.72 145.106 164.82 144.546 163.64C143.986 162.46 143.706 161.06 143.706 159.44C143.706 157.82 143.986 156.43 144.546 155.27C145.106 154.09 145.886 153.19 146.886 152.57C147.886 151.95 149.046 151.64 150.366 151.64C151.706 151.64 152.866 151.98 153.846 152.66C154.846 153.32 155.506 154.23 155.826 155.39H155.466L155.796 151.91H158.436C158.376 152.51 158.316 153.11 158.256 153.71C158.216 154.31 158.196 154.9 158.196 155.48V167H155.466V163.55H155.796C155.476 164.69 154.816 165.6 153.816 166.28C152.836 166.94 151.686 167.27 150.366 167.27ZM150.996 165.11C152.356 165.11 153.446 164.63 154.266 163.67C155.086 162.71 155.496 161.3 155.496 159.44C155.496 157.58 155.086 156.18 154.266 155.24C153.446 154.3 152.356 153.83 150.996 153.83C149.636 153.83 148.536 154.3 147.696 155.24C146.876 156.18 146.466 157.58 146.466 159.44C146.466 161.3 146.876 162.71 147.696 163.67C148.516 164.63 149.616 165.11 150.996 165.11ZM174.072 167.27C172.572 167.27 171.272 166.96 170.172 166.34C169.072 165.7 168.212 164.79 167.592 163.61C166.992 162.41 166.692 160.99 166.692 159.35C166.692 157.73 167.002 156.35 167.622 155.21C168.242 154.05 169.102 153.17 170.202 152.57C171.302 151.95 172.592 151.64 174.072 151.64C175.052 151.64 176.002 151.81 176.922 152.15C177.842 152.47 178.592 152.94 179.172 153.56L178.242 155.48C177.662 154.92 177.022 154.51 176.322 154.25C175.622 153.97 174.932 153.83 174.252 153.83C172.772 153.83 171.612 154.31 170.772 155.27C169.932 156.21 169.512 157.58 169.512 159.38C169.512 161.2 169.932 162.6 170.772 163.58C171.612 164.56 172.772 165.05 174.252 165.05C174.912 165.05 175.592 164.92 176.292 164.66C176.992 164.4 177.642 163.99 178.242 163.43L179.172 165.32C178.572 165.96 177.802 166.45 176.862 166.79C175.942 167.11 175.012 167.27 174.072 167.27ZM190.476 167V154.1H185.046V151.91H198.606V154.1H193.176V167H190.476ZM205.594 167V151.91H208.084V164.42H207.274L216.634 151.91H218.914V167H216.424V154.46H217.264L207.874 167H205.594ZM237.772 167V161.03C237.192 161.35 236.572 161.6 235.912 161.78C235.252 161.94 234.552 162.02 233.812 162.02C231.652 162.02 230.052 161.52 229.012 160.52C227.992 159.5 227.482 157.97 227.482 155.93V151.91H230.182V155.72C230.182 157.14 230.502 158.17 231.142 158.81C231.802 159.43 232.822 159.74 234.202 159.74C234.902 159.74 235.532 159.67 236.092 159.53C236.652 159.37 237.192 159.12 237.712 158.78V151.91H240.442V167H237.772ZM256.593 167.27C254.193 167.27 252.293 166.58 250.893 165.2C249.513 163.82 248.823 161.92 248.823 159.5C248.823 157.9 249.123 156.52 249.723 155.36C250.343 154.18 251.193 153.27 252.273 152.63C253.353 151.97 254.613 151.64 256.053 151.64C257.433 151.64 258.603 151.94 259.563 152.54C260.523 153.12 261.253 153.95 261.753 155.03C262.253 156.11 262.503 157.39 262.503 158.87V159.77H250.953V158.15H260.643L260.133 158.54C260.133 156.98 259.783 155.77 259.083 154.91C258.403 154.05 257.393 153.62 256.053 153.62C254.593 153.62 253.463 154.13 252.663 155.15C251.863 156.15 251.463 157.52 251.463 159.26V159.53C251.463 161.37 251.913 162.76 252.813 163.7C253.733 164.64 255.003 165.11 256.623 165.11C257.523 165.11 258.363 164.98 259.143 164.72C259.923 164.46 260.673 164.03 261.393 163.43L262.293 165.32C261.613 165.94 260.763 166.42 259.743 166.76C258.743 167.1 257.693 167.27 256.593 167.27ZM277.373 167.27C275.873 167.27 274.573 166.96 273.473 166.34C272.373 165.7 271.513 164.79 270.893 163.61C270.293 162.41 269.993 160.99 269.993 159.35C269.993 157.73 270.303 156.35 270.923 155.21C271.543 154.05 272.403 153.17 273.503 152.57C274.603 151.95 275.893 151.64 277.373 151.64C278.353 151.64 279.303 151.81 280.223 152.15C281.143 152.47 281.893 152.94 282.473 153.56L281.543 155.48C280.963 154.92 280.323 154.51 279.623 154.25C278.923 153.97 278.233 153.83 277.553 153.83C276.073 153.83 274.913 154.31 274.073 155.27C273.233 156.21 272.813 157.58 272.813 159.38C272.813 161.2 273.233 162.6 274.073 163.58C274.913 164.56 276.073 165.05 277.553 165.05C278.213 165.05 278.893 164.92 279.593 164.66C280.293 164.4 280.943 163.99 281.543 163.43L282.473 165.32C281.873 165.96 281.103 166.45 280.163 166.79C279.243 167.11 278.313 167.27 277.373 167.27ZM290.537 167V151.91H293.237V158.15H295.967L300.827 151.91H303.797L298.157 159.26L297.437 158.42C298.017 158.48 298.517 158.63 298.937 158.87C299.357 159.09 299.757 159.42 300.137 159.86C300.537 160.3 300.967 160.89 301.427 161.63L304.547 167H301.607L298.877 162.35C298.577 161.81 298.277 161.39 297.977 161.09C297.677 160.79 297.337 160.58 296.957 160.46C296.597 160.34 296.137 160.28 295.577 160.28H293.237V167H290.537ZM317.835 167.27C316.355 167.27 315.075 166.96 313.995 166.34C312.915 165.7 312.075 164.8 311.475 163.64C310.875 162.46 310.575 161.06 310.575 159.44C310.575 157.84 310.875 156.46 311.475 155.3C312.075 154.12 312.915 153.22 313.995 152.6C315.075 151.96 316.355 151.64 317.835 151.64C319.315 151.64 320.595 151.96 321.675 152.6C322.775 153.22 323.615 154.12 324.195 155.3C324.795 156.46 325.095 157.84 325.095 159.44C325.095 161.06 324.795 162.46 324.195 163.64C323.615 164.8 322.775 165.7 321.675 166.34C320.595 166.96 319.315 167.27 317.835 167.27ZM317.835 165.11C319.195 165.11 320.285 164.63 321.105 163.67C321.925 162.71 322.335 161.3 322.335 159.44C322.335 157.58 321.925 156.18 321.105 155.24C320.285 154.3 319.195 153.83 317.835 153.83C316.455 153.83 315.355 154.3 314.535 155.24C313.735 156.18 313.335 157.58 313.335 159.44C313.335 161.3 313.735 162.71 314.535 163.67C315.355 164.63 316.455 165.11 317.835 165.11ZM340.452 167.27C338.052 167.27 336.152 166.58 334.752 165.2C333.372 163.82 332.682 161.92 332.682 159.5C332.682 157.9 332.982 156.52 333.582 155.36C334.202 154.18 335.052 153.27 336.132 152.63C337.212 151.97 338.472 151.64 339.912 151.64C341.292 151.64 342.462 151.94 343.422 152.54C344.382 153.12 345.112 153.95 345.612 155.03C346.112 156.11 346.362 157.39 346.362 158.87V159.77H334.812V158.15H344.502L343.992 158.54C343.992 156.98 343.642 155.77 342.942 154.91C342.262 154.05 341.252 153.62 339.912 153.62C338.452 153.62 337.322 154.13 336.522 155.15C335.722 156.15 335.322 157.52 335.322 159.26V159.53C335.322 161.37 335.772 162.76 336.672 163.7C337.592 164.64 338.862 165.11 340.482 165.11C341.382 165.11 342.222 164.98 343.002 164.72C343.782 164.46 344.532 164.03 345.252 163.43L346.152 165.32C345.472 165.94 344.622 166.42 343.602 166.76C342.602 167.1 341.552 167.27 340.452 167.27ZM373.642 167.27C371.382 167.27 369.592 166.56 368.272 165.14C366.952 163.72 366.292 161.64 366.292 158.9V156.29C366.292 153.49 366.882 151.23 368.062 149.51C369.242 147.79 371.072 146.63 373.552 146.03L379.072 144.65L379.882 146.87L373.762 148.34C372.662 148.6 371.752 149.07 371.032 149.75C370.312 150.43 369.772 151.23 369.412 152.15C369.072 153.07 368.902 154.05 368.902 155.09V156.38H368.482C368.722 155.48 369.102 154.7 369.622 154.04C370.162 153.38 370.832 152.88 371.632 152.54C372.432 152.18 373.312 152 374.272 152C375.572 152 376.712 152.3 377.692 152.9C378.672 153.5 379.432 154.37 379.972 155.51C380.532 156.63 380.812 157.97 380.812 159.53C380.812 161.13 380.512 162.51 379.912 163.67C379.332 164.83 378.502 165.72 377.422 166.34C376.342 166.96 375.082 167.27 373.642 167.27ZM373.552 165.11C374.952 165.11 376.052 164.65 376.852 163.73C377.672 162.81 378.082 161.44 378.082 159.62C378.082 157.84 377.672 156.48 376.852 155.54C376.052 154.6 374.952 154.13 373.552 154.13C372.152 154.13 371.042 154.59 370.222 155.51C369.422 156.43 369.022 157.74 369.022 159.44C369.022 161.34 369.422 162.76 370.222 163.7C371.042 164.64 372.152 165.11 373.552 165.11ZM388.167 167.36L387.207 165.23C387.907 164.91 388.487 164.53 388.947 164.09C389.427 163.63 389.797 163.05 390.057 162.35C390.337 161.65 390.537 160.78 390.657 159.74C390.777 158.7 390.837 157.44 390.837 155.96V151.91H401.967V167H399.267V154.04H393.357V156.02C393.357 158.34 393.177 160.26 392.817 161.78C392.477 163.28 391.927 164.47 391.167 165.35C390.427 166.23 389.427 166.9 388.167 167.36ZM423.921 167.27C421.861 167.27 420.191 166.66 418.911 165.44C417.651 164.2 416.931 162.49 416.751 160.31H413.811V167H411.141V151.91H413.811V158.15H416.781C417.041 156.11 417.801 154.52 419.061 153.38C420.321 152.22 421.941 151.64 423.921 151.64C425.401 151.64 426.681 151.95 427.761 152.57C428.861 153.19 429.711 154.09 430.311 155.27C430.911 156.43 431.211 157.82 431.211 159.44C431.211 161.06 430.911 162.46 430.311 163.64C429.711 164.8 428.861 165.7 427.761 166.34C426.681 166.96 425.401 167.27 423.921 167.27ZM423.921 165.11C425.301 165.11 426.401 164.64 427.221 163.7C428.041 162.74 428.451 161.32 428.451 159.44C428.451 157.58 428.041 156.18 427.221 155.24C426.401 154.28 425.301 153.8 423.921 153.8C422.541 153.8 421.441 154.28 420.621 155.24C419.801 156.18 419.391 157.58 419.391 159.44C419.391 161.32 419.801 162.74 420.621 163.7C421.441 164.64 422.541 165.11 423.921 165.11ZM438.016 170.9V164.87H439.666C440.346 163.85 440.836 162.65 441.136 161.27C441.456 159.89 441.616 158.25 441.616 156.35V151.91H452.446V164.87H454.846V170.9H452.506V167H440.386V170.9H438.016ZM442.246 164.9H449.896V154.01H444.016V156.83C444.016 158.35 443.866 159.83 443.566 161.27C443.266 162.69 442.826 163.9 442.246 164.9ZM468.954 167.27C467.474 167.27 466.194 166.96 465.114 166.34C464.034 165.7 463.194 164.8 462.594 163.64C461.994 162.46 461.694 161.06 461.694 159.44C461.694 157.84 461.994 156.46 462.594 155.3C463.194 154.12 464.034 153.22 465.114 152.6C466.194 151.96 467.474 151.64 468.954 151.64C470.434 151.64 471.714 151.96 472.794 152.6C473.894 153.22 474.734 154.12 475.314 155.3C475.914 156.46 476.214 157.84 476.214 159.44C476.214 161.06 475.914 162.46 475.314 163.64C474.734 164.8 473.894 165.7 472.794 166.34C471.714 166.96 470.434 167.27 468.954 167.27ZM468.954 165.11C470.314 165.11 471.404 164.63 472.224 163.67C473.044 162.71 473.454 161.3 473.454 159.44C473.454 157.58 473.044 156.18 472.224 155.24C471.404 154.3 470.314 153.83 468.954 153.83C467.574 153.83 466.474 154.3 465.654 155.24C464.854 156.18 464.454 157.58 464.454 159.44C464.454 161.3 464.854 162.71 465.654 163.67C466.474 164.63 467.574 165.11 468.954 165.11ZM495.462 170.9V164.87H497.112C497.792 163.85 498.282 162.65 498.582 161.27C498.902 159.89 499.062 158.25 499.062 156.35V151.91H509.892V164.87H512.292V170.9H509.952V167H497.832V170.9H495.462ZM499.692 164.9H507.342V154.01H501.462V156.83C501.462 158.35 501.312 159.83 501.012 161.27C500.712 162.69 500.272 163.9 499.692 164.9ZM519.949 167V151.91H522.649V158.15H530.629V151.91H533.329V167H530.629V160.31H522.649V167H519.949ZM541.296 167L543.666 162.89C544.046 162.23 544.526 161.7 545.106 161.3C545.686 160.88 546.296 160.67 546.936 160.67H547.416L547.386 160.94C545.686 160.94 544.356 160.56 543.396 159.8C542.436 159.02 541.956 157.9 541.956 156.44C541.956 155 542.426 153.89 543.366 153.11C544.306 152.31 545.706 151.91 547.566 151.91H554.436V167H551.916V161.3H549.756C548.976 161.3 548.306 161.5 547.746 161.9C547.186 162.28 546.726 162.79 546.366 163.43L544.326 167H541.296ZM548.046 159.41H551.916V153.77H548.046C546.866 153.77 545.986 154.02 545.406 154.52C544.846 155.02 544.566 155.71 544.566 156.59C544.566 157.49 544.846 158.19 545.406 158.69C545.986 159.17 546.866 159.41 548.046 159.41Z" fill="black"/>
</svg>
