<svg width="251" height="265" viewBox="0 0 251 265" fill="none" xmlns="http://www.w3.org/2000/svg">
<path d="M109.79 158.389C110.73 175.861 125.921 194.939 156.17 188.783C175.884 184.771 189.073 172.448 188.256 156.422C189.643 139.935 181.727 116.497 156.667 111.232C140.746 109.29 114.72 112.994 111.368 135.473C109.27 149.548 109.395 163.962 110.958 178.012C112.499 191.863 119.485 207.841 130.304 218.231C149.488 236.654 182.22 218.403 199.562 204.137C223.834 184.171 230.883 157.286 216.954 131.655C196.093 93.2638 156.315 59.9886 108.792 61.7429C82.3326 62.7196 57.2091 77.931 46.9057 101.795C33.5641 132.696 40.0289 167.535 53.0886 197.087M53.0886 197.087C66.2329 226.831 92.4572 258.993 128.632 261.401C167.03 263.957 204.102 243.049 225.683 212.849C282.404 133.476 221.451 -6.45437 114.671 4.21289C72.2803 8.44773 37.1632 30.5119 16.223 66.2559C-10.8272 102.995 9.26791 192.848 53.0886 197.087Z" stroke="white" stroke-width="6" stroke-linecap="round"/>
</svg>
