<svg width="266" height="245" viewBox="0 0 266 245" fill="none" xmlns="http://www.w3.org/2000/svg">
<path d="M142.838 127.18C136.731 107.131 133.066 83.3539 100.598 83.3539C78.7187 85.0516 73.9515 111.057 72.7288 122.624C71.1921 137.162 82.7357 158.433 100.598 159.242C124.688 160.332 137.067 142.025 144.691 122.624C152.159 103.617 162.871 72.3212 141.862 58.1682C114.085 39.456 67.707 67.1931 51.8474 90.6445C6.81736 157.23 121.846 205.104 171.978 175.149C197.482 159.911 209.862 123.702 207.584 95.1183C203.799 47.6245 158.276 33.7958 117.736 33.1481C76.518 32.4896 3.63512 61.6738 3.26281 111.356C2.99388 147.244 20.5724 212.038 53.844 232.314C72.2223 243.514 101.899 242.343 122.229 240.433C174.106 235.56 231.509 205.383 253.507 156.094C273.721 110.8 257.588 56.7518 218.899 27.1831C174.322 -6.8851 111.899 -1.01041 65.8238 26.5203C50.212 35.8486 27.2018 53.2703 21.0187 71.7424" stroke="white" stroke-width="6" stroke-linecap="round"/>
</svg>
