<svg width="357" height="297" viewBox="0 0 357 297" fill="none" xmlns="http://www.w3.org/2000/svg">
<path d="M181.298 123.03C154.158 114.722 115.019 106.992 89.9315 124.585C74.4382 135.449 76.7591 160.816 77.5127 177.236C79.3563 217.407 133.972 221.699 164.444 217.225C201.332 211.809 237.632 187.997 237.183 147.023C236.719 104.747 189.407 75.9957 149.808 83.9297C116.334 90.6364 105.513 146.91 120.535 172.793C143.022 211.54 201.314 224.227 242.505 218.114C278.269 212.806 283.206 147.856 279.318 120.808C269.634 53.438 201.739 41.7346 144.929 45.7184C84.3782 49.9645 3 77.7758 3 151.244C3 220.756 71.923 264.849 131.401 281.873C179.259 295.571 258.799 306.91 293.067 261.657C330.114 212.736 372.511 127.036 345.404 64.824C321.619 10.2383 249.931 2.16164 198.596 3.06386C137.053 4.14549 64.0245 29.8972 44.0263 93.4825C28.694 142.233 35.0441 195.708 55.1145 242.107" stroke="white" stroke-width="6" stroke-linecap="round"/>
</svg>
