<svg width="454" height="434" viewBox="0 0 454 434" fill="none" xmlns="http://www.w3.org/2000/svg">
<path d="M221.443 265.107C224.27 211.055 236.284 162.308 175.508 107.195C162.883 97.1953 129.042 95.8901 120.385 130.51C108.907 176.411 110.492 214.588 149.988 260.281C242.11 332.234 295.736 145.41 248.611 85.6881C213.418 41.0864 139.948 29.7453 88.1128 44.552C23.6247 62.973 -5.59501 147.146 5.19375 208.782C28.2676 340.603 182.757 381.787 272.482 288.542C355.651 202.11 305.644 16.3753 170.09 27.9092C114.008 32.6811 82.5797 116.129 73.9789 162.308C59.6758 239.103 80.7309 333.848 143.078 385.887C197.128 431.001 285.366 445.371 349.119 414.777C431.745 375.125 462.685 261.266 447.115 177.381C416.316 11.4461 136.995 -71.0621 29.9079 89.5313" stroke="white" stroke-width="6" stroke-linecap="round"/>
</svg>
