<svg width="298" height="358" viewBox="0 0 298 358" fill="none" xmlns="http://www.w3.org/2000/svg">
<path d="M122.934 143.588C143.365 166.729 155.058 170.753 182.712 159.817C193.005 155.747 203.725 139.586 197.976 125.949C186.602 98.9655 146.998 92.8874 126.929 106.2C74.2765 141.127 153.226 211.034 187.959 205.959C214.793 202.038 229.244 168.77 218.901 137.189C206.329 98.8009 169.042 70.9537 136.353 72.6205C91.7329 74.8957 73.2115 144.323 67.2654 189.047C64.1401 212.554 61.838 243.5 66.0022 267.206C70.2785 291.549 94.9267 296.36 111.452 299.984C166.542 312.065 229.083 291.691 251.476 222.136C274.889 149.412 255.997 56.779 199.086 18.1297C106.833 -44.5195 -22.626 109.884 7.95064 237.901C24.1401 305.683 66.0882 353.903 149.817 354.006C208.993 362.162 273.493 296.93 291.061 222.182C306.807 137.301 262.291 68.4978 226.522 44.3708" stroke="white" stroke-width="6" stroke-linecap="round"/>
</svg>
