<svg width="454" height="435" viewBox="0 0 454 435" fill="none" xmlns="http://www.w3.org/2000/svg">
<path d="M168.639 160.439C186.707 263.189 282.969 230.894 290.869 194.526C296.657 167.88 283.101 144.606 256.396 137.447C214.848 126.307 170.224 144.911 151.315 185.32C130.085 230.689 150.842 288.873 193.126 312.793C274.515 358.833 378.809 267.511 355.939 177.388C341.412 120.144 277.241 104.874 226.491 107.986C156.47 112.28 92.1851 163.807 83.3377 237.725C77.3161 288.035 99.05 340.667 144.808 363.64C201.906 392.306 278.101 385.892 336.141 364.065M336.141 364.065C396.416 341.397 441.222 289.128 449.806 223.703C460.549 141.821 397.199 60.7612 324.321 23.2358C179.706 -51.2273 3 103.613 3 262.881C3 338.792 80.292 408.751 154.181 425.124C263.071 449.253 303.904 405.307 336.141 364.065Z" stroke="white" stroke-width="6" stroke-linecap="round"/>
</svg>
