<svg width="401" height="726" viewBox="0 0 401 726" fill="none" xmlns="http://www.w3.org/2000/svg">
<path d="M212.631 125.638C228.385 132.152 233.327 120.586 241.902 108.408C245.974 102.627 249.918 96.7079 251.289 88.8851C252.774 80.4084 252.348 76.6735 254.169 68.0219C257.62 51.6313 269.673 39.3482 287.407 38.8816C300.548 39.6543 306.855 44.0483 312.449 50.2656C315.704 53.8832 322.448 66.7841 317.458 77.1294C311.273 92.0871 299.875 100.819 288.773 112.189C280.478 120.146 268.739 147.021 286.717 158.232C297.521 164.97 319.541 166.533 331.325 140.731C338.15 124.225 334.486 108.408 344.546 87.4121C352.138 71.5639 368.689 71.8946 382.453 77.5853C418.403 92.4491 380.284 156.132 359.411 174.584C348.849 183.921 335.974 194.551 325.303 198.705C312.632 203.637 309.797 202.033 299.838 203.637C283.28 206.303 266.821 212.957 260.427 228.422C246.954 249.012 246.934 255.651 242.431 276.547C239.838 288.578 237.512 318.802 235.159 330.88C231.913 347.55 230.383 357.799 228.163 374.213C225.61 393.093 224.378 405.26 217.385 422.174C209.449 441.368 199.002 459.524 191.066 478.719C180.395 504.529 162.338 527.751 151.825 553.179C146.723 565.519 136.108 575.858 131.105 587.958C128.089 595.253 123.575 605.739 118.654 611.824C102.9 631.306 97.0653 656.67 80.0547 675.274C72.4992 683.536 65.9538 695.031 59.5028 704.248C54.9782 710.713 46.0659 717.463 39.2936 720.701C30.4672 724.923 20.4936 723.493 12.9668 715.069C7.00808 708.4 2.85305 693.179 3.25575 683.295C2.56914 668.313 6.49015 656.045 8.56118 642.073C11.1075 624.894 18.1196 608.688 21.5227 591.805C26.0957 569.118 35.6277 547.935 44.4349 526.633C53.4406 504.852 57.4568 481.933 66.9553 460.36C78.837 427.51 82.4951 401.903 98.2059 372.899C110.629 349.965 121.383 337.154 143.057 309.463C155.809 293.172 177.21 268.401 182.871 248.981C195.041 214.806 192.306 203.303 185.281 175.937C180.832 158.606 166.113 138.767 157.479 123.6C149.982 103.06 156.053 72.9979 163.202 55.7091C169.543 40.3705 181.956 0.034479 203.886 3.8736C210.263 4.98991 230.052 9.62454 231.369 28.8448C231.637 32.7481 229.401 48.1274 222.105 55.8928C219.991 58.1434 212.631 67.5679 210.466 69.9647C205.781 75.1512 202.032 79.0189 198.653 87.1913C191.872 103.591 195.995 118.76 212.631 125.638Z" stroke="white" stroke-width="6" stroke-linecap="round"/>
</svg>
