<svg width="342" height="747" viewBox="0 0 342 747" fill="none" xmlns="http://www.w3.org/2000/svg">
<path d="M337.97 706.154C335.036 696.074 328.533 679.728 325.142 671.789C318.054 659.3 313.861 645.36 308.991 633.956C303.654 621.459 297.224 609.708 291.763 596.921C279.046 567.144 267.854 535.313 255.076 505.393C237.987 465.377 224.591 423.11 207.49 383.067C199.216 363.694 194.773 341.714 189.885 321.254C183.581 294.872 172.905 269.297 167.949 242.64C164.753 225.45 158.473 207.816 153.541 191.039C145.785 164.653 139.965 137.751 129.109 112.333L99.8397 43.7971C94.5588 31.4316 84.1728 13.9857 72.4352 6.87902C53.3024 -4.70503 39.0178 18.4711 29.1011 33.4893C20.9691 45.8056 16.3193 54.2829 11.7661 66.4758C5.8561 82.3019 2.36965 100.939 3.90033 117.699C6.92211 150.785 25.6569 190.279 53.7198 210.13C77.3015 226.812 107.86 247.883 119.463 275.052C124.629 287.148 131.221 299.441 130.997 312.96C130.815 323.944 128.757 337.886 127.805 347.927C126.992 356.504 123.453 363.716 121.976 370.579C120.456 377.634 118.079 381.86 116.457 390.944C113.85 405.548 114.283 422.203 116.811 436.585C124.26 478.973 148.54 517.541 165.417 557.061C176.022 581.893 193.125 603.513 206.806 626.724C221.155 651.068 232.521 671.09 250.63 692.518C264.624 711.924 272.673 721.001 292.681 736.558C297.099 739.538 314.753 748.347 324.271 741.38C327.964 738.039 336.721 729.359 337.102 723.231C337.45 717.644 339.218 710.44 337.97 706.154Z" stroke="white" stroke-width="6" stroke-linecap="round"/>
</svg>
