<svg width="945" height="954" viewBox="0 0 945 954" fill="none" xmlns="http://www.w3.org/2000/svg">
<path fill-rule="evenodd" clip-rule="evenodd" d="M559.998 226.603C623.984 250.199 670.564 303.441 699.9 364.952C729.638 427.307 742.342 497.666 720.503 563.151C698.025 630.556 647.473 685.279 583.042 715.36C518.279 745.595 443.141 750.426 376.838 723.593C312.371 697.503 268.065 640.312 240.244 576.63C213.09 514.473 203.944 445.016 227.348 381.404C250.764 317.76 302.205 269.62 363.734 240.987C425.53 212.23 496.002 203.004 559.998 226.603Z" stroke="white" stroke-width="6"/>
<path fill-rule="evenodd" clip-rule="evenodd" d="M605.58 128.085C697.13 161.96 768.017 235.14 807.67 324.34C846.759 412.271 850.428 511.965 816.213 601.905C782.349 690.923 712.208 759.309 626.444 800.726C538.995 842.958 438.711 861.705 347.547 828.236C256.289 794.733 192.646 715.181 152.398 626.69C112.399 538.746 97.0396 439.822 129.497 348.824C162.267 256.948 235.57 186.426 324.066 145.395C412.734 104.283 513.919 94.1678 605.58 128.085Z" stroke="white" stroke-width="6"/>
</svg>
