<svg width="541" height="534" viewBox="0 0 541 534" fill="none" xmlns="http://www.w3.org/2000/svg">
<path fill-rule="evenodd" clip-rule="evenodd" d="M275.168 73.4381C326.192 73.3102 375.547 92.6235 411.645 128.625C447.762 164.645 465.54 213.937 467.123 264.879C468.763 317.63 457.462 372.239 420.388 409.86C383.071 447.727 328.369 460.518 275.168 459.663C222.917 458.824 172.109 441.541 134.548 405.268C96.362 368.393 72.5351 317.911 73.4627 264.879C74.3759 212.667 101.466 165.287 139.375 129.308C176.261 94.2987 224.274 73.5657 275.168 73.4381Z" stroke="white" stroke-width="6"/>
<path fill-rule="evenodd" clip-rule="evenodd" d="M269.836 3.00169C339.51 3.24469 406.116 30.4396 455.92 79.164C506.286 128.439 536.062 194.81 537.892 265.248C539.771 337.587 517.261 410.335 465.844 461.256C414.644 511.962 341.896 530.569 269.836 530.718C197.604 530.868 124.211 513.025 73.0143 462.069C21.7148 411.012 1.32936 337.603 3.1063 265.248C4.8375 194.754 32.1677 127.298 82.4498 77.8614C132.31 28.8391 199.913 2.75783 269.836 3.00169Z" stroke="white" stroke-width="6"/>
</svg>
