<svg width="61" height="57" viewBox="0 0 61 57" fill="none" xmlns="http://www.w3.org/2000/svg">
<path d="M42.0715 51.7319C41.7573 48.6103 40.9176 45.8213 40.186 43.089C39.1746 39.3118 38.2119 35.6975 37.1222 31.9408C35.2508 25.4891 34.3156 18.4737 31.4659 12.3631C30.4347 10.1519 29.3822 7.5378 28.6901 5.18811C28.0718 3.08877 27.6645 1.57508 27.2498 5.13477C26.2204 13.9725 25.6513 23.0417 23.7146 31.7541C22.4192 37.5816 21.3012 43.4552 20.1794 49.3314C20.109 49.7002 19.3667 54.072 19.7604 53.9991C21.2908 53.7157 22.6909 50.9887 23.479 49.8115C26.4957 45.3048 30.7079 41.8888 35.2106 39.0091C39.9924 35.9508 44.1829 31.8941 48.9063 28.6867C50.5975 27.5383 52.2301 26.3067 53.9603 25.2193C54.8188 24.6798 55.6521 24.1072 56.4742 23.5122C56.9479 23.1694 58.2975 23.0192 57.9407 22.552C57.5138 21.9929 53.0964 22.357 52.651 22.3386C49.0203 22.1892 45.3924 21.9652 41.7573 21.9652C38.3735 21.9652 35.0942 22.6389 31.8063 23.4055C26.1396 24.7268 20.2111 27.0957 14.366 27.2464C10.8765 27.3364 6.53667 27.6122 3.15806 28.58C2.01642 28.9071 7.40901 32.0897 8.13353 32.5276C10.3421 33.8625 12.8271 35.935 15.2039 36.8486C19.6375 38.5526 23.8919 40.6406 28.2973 42.3965C31.5869 43.7076 32.0014 44.6614 35.2106 46.2097C36.5621 46.8618 41.2599 50.4918 42.0715 51.7319Z" stroke="white" stroke-width="6" stroke-linecap="round"/>
</svg>
