<svg width="120" height="122" viewBox="0 0 120 122" fill="none" xmlns="http://www.w3.org/2000/svg">
<path d="M70.4161 114C70.4161 81.9537 76.1218 46.6013 72.614 14.6303C72.4388 13.0336 73.1319 3.91396 71.2738 3.04033C69.4833 2.19845 63.3361 14.7979 62.3753 16.3946C58.1132 23.4775 52.4797 29.7339 47.6337 36.4259C42.779 43.13 38.6522 50.4467 33.4282 56.8645C26.6582 65.1813 18.0965 71.4557 10.9137 79.3115C8.19542 82.2845 6.53095 85.5814 4.29341 88.8386C4.17894 89.0053 2.61951 90.7256 3.08728 90.9286C5.57906 92.0101 11.4474 89.7167 13.9156 89.3001C22.2945 87.8859 30.7498 86.021 39.0032 83.9801C46.1303 82.2177 53.4545 80.8687 60.6599 79.4201C66.6175 78.2223 72.4224 76.4317 78.3498 75.1858C87.3816 73.2875 96.5696 72.4235 105.608 70.7073C108.371 70.1826 112.347 69.4576 114.802 68.1016C114.976 68.0052 117.035 67.3475 117 67.2059C116.686 65.937 111.361 63.8721 110.299 63.2973C103.766 59.7614 96.4965 58.4616 89.4462 56.3759C82.629 54.3591 75.218 52.1653 68.2183 50.9745C54.027 48.5601 39.532 44.6911 25.9233 40.0631C21.2016 38.4573 16.3535 36.9507 11.557 35.5845C10.2247 35.2051 9.07433 34.6177 7.80459 34.0917C7.21359 33.8468 2.88536 31.5519 3.08728 32.1653C3.85003 34.4826 9.95811 38.3135 11.557 39.9545C14.8276 43.3113 17.8091 46.9113 21.0452 50.2959C25.7092 55.1738 29.7694 60.1824 33.7498 65.6316C39.5433 73.5628 44.6842 82.0279 51.0108 89.5715C57.7502 97.6072 63.0743 106.565 70.4161 114Z" stroke="white" stroke-width="6" stroke-linecap="round"/>
</svg>
