<svg width="67" height="64" viewBox="0 0 67 64" fill="none" xmlns="http://www.w3.org/2000/svg">
<path d="M58.5783 51.1539C51.0512 39.1928 43.6723 27.2742 36.6642 15.0341C34.8966 11.9467 31.3897 8.17615 30.3951 4.82573C30.2089 4.19866 30.366 3.24977 29.4155 3.02109C28.248 2.74018 29.3536 5.33792 29.3875 6.4957C29.4712 9.35388 29.7092 12.206 29.8633 15.061C30.4873 26.6216 31.6552 38.1277 32.3822 49.6724C32.5563 52.4377 32.8859 55.1694 32.8859 57.9415C32.8859 58.3972 32.7524 62.4148 33.5017 60.4734C34.9907 56.6152 35.4525 52.4269 37.14 48.622C38.3369 45.9234 39.7494 43.3478 41.1702 40.757C44.6127 34.4795 48.7882 28.4535 52.5331 22.3335C54.3227 19.4087 55.6354 16.3632 57.1789 13.3372C57.8655 11.9913 58.3336 10.1813 59.194 8.97372C62.1123 4.87793 56.2397 10.144 55.2758 10.8861C51.017 14.165 45.4856 17.7197 40.3866 19.64C33.4038 22.2696 26.1185 24.5196 19.2841 27.3972C14.7661 29.2995 10.5448 31.9089 5.96214 33.6731C5.35674 33.9061 3.52675 34.0218 4.11498 34.2926C7.51807 35.8589 11.3599 36.8191 15.03 37.5786C23.5071 39.3331 31.9955 41.3895 40.4425 43.2889C42.8669 43.834 46.9918 45.8203 46.9918 45.8203L54.5481 49.2146C54.5481 49.2146 57.4472 50.6096 58.5783 51.1539Z" stroke="white" stroke-width="6" stroke-linecap="round"/>
</svg>
