<svg width="69" height="64" viewBox="0 0 69 64" fill="none" xmlns="http://www.w3.org/2000/svg">
<path d="M62 40.183C54.7495 32.0972 45.1377 25.4024 36.877 18.2717C33.5408 15.3918 30.9491 12.1012 28.212 8.71177C26.9818 7.18832 25.9476 5.08546 24.3427 3.89233C24.0209 3.65308 23.6398 3.19711 23.2801 3.02325C22.8819 2.83084 23.2528 3.88346 23.2528 4.3137C23.2528 6.19199 23.2334 8.07137 23.2528 9.94955C23.2856 13.1219 23.5932 16.4486 24.043 19.5884C24.7588 24.5847 25.0532 29.7241 25.9776 34.6788C27.1874 41.1626 27.5304 47.7131 28.866 54.1673C29.2369 55.9598 29.1385 57.8007 29.1385 59.6188C29.1385 62.626 30.9935 59.9776 32.1903 58.6707C37.3188 53.0702 40.9548 46.2114 45.8145 40.3937C50.7673 34.4644 55.0603 28.3031 59.0027 21.7216C60.0639 19.95 60.0922 18.4311 60.6376 16.5862C61.2287 14.5867 57.8769 17.5412 57.2043 17.9293C49.2626 22.5118 39.9691 25.2561 31.4001 28.5426C24.2762 31.2748 16.8019 32.8041 9.57412 35.1792C8.45428 35.5472 7.32577 35.8029 6.19533 36.1273C5.47373 36.3344 3.61832 36.2827 4.06995 36.8647C5.03238 38.105 10.0008 37.8128 11.4815 37.8128C17.6563 37.8128 23.9804 38.207 30.1194 38.8662C34.5806 39.3453 43.6074 40.183 43.6074 40.183C43.6074 40.183 56.616 40.183 62 40.183Z" stroke="white" stroke-width="6" stroke-linecap="round"/>
</svg>
