<svg width="127" height="147" viewBox="0 0 127 147" fill="none" xmlns="http://www.w3.org/2000/svg">
<path d="M74.5448 145C73.1433 113.8 72.7052 82.2202 73.6869 50.994C74.1568 36.0469 74.917 21.23 74.0891 6.30089C74.0849 6.22607 73.9034 3.63058 73.6869 4.04474C72.4796 6.35366 71.9685 9.32529 71.0595 11.7801C68.5176 18.6443 64.8749 24.8385 61.2736 31.1722C52.1767 47.1711 40.4462 61.4278 31.219 77.3157C27.987 82.8807 25.44 88.7642 22.452 94.4516C20.6615 97.8596 19.268 102.313 16.7413 105.249C16.4928 105.538 16.25 106.087 15.937 106.296C13.1633 108.149 22.4097 104.695 25.6424 103.879C35.8253 101.31 45.8011 98.0395 56.2332 96.6272C71.5767 94.55 86.7904 91.954 101.57 87.1998C106.566 85.5927 111.482 83.7784 116.477 82.1771C118.408 81.558 120.477 81.2219 122.268 80.2433C124.214 79.1797 121.804 79.2413 120.552 78.9809C106.18 75.9929 91.7277 70.5625 77.9766 65.4978C63.7946 60.2744 49.8972 54.438 35.5623 49.6511C24.8263 46.0659 14.005 42.6844 3.22882 39.2298C2.28798 38.9282 4.50896 40.7385 5.18599 41.4591C8.06537 44.524 10.6888 47.7122 13.3096 50.994C18.7303 57.7821 23.8879 64.8309 29.1546 71.7559C33.513 77.4867 36.8108 83.8908 40.7636 89.8856C44.0672 94.896 47.8023 99.6363 51.0856 104.631C56.0993 112.258 60.791 119.377 65.6169 127.837C67.1336 130.496 68.5125 133.639 68.5125 133.639C68.5125 133.639 73.5797 142.825 74.5448 145Z" stroke="white" stroke-width="6" stroke-linecap="round"/>
</svg>
