<svg width="96" height="96" viewBox="0 0 96 96" fill="none" xmlns="http://www.w3.org/2000/svg">
<path d="M63.0386 86C63.0386 71.1575 63.1298 56.3119 63.0386 41.4697C62.9825 32.34 61.5738 23.3281 61.5738 14.1769C61.5738 12.0227 62.8117 4.64406 61.194 3.05767C60.3673 2.24688 54.7795 10.2395 53.9514 11.0912C48.8253 16.3633 43.2155 21.3247 37.8657 26.3869C35.3858 28.7335 32.8166 31.0059 30.2162 33.2234C27.2094 35.7874 24.8066 38.8101 21.9157 41.4697C17.512 45.521 13.9183 49.9776 9.92601 54.3979C7.88634 56.6561 5.8108 58.8608 3.74129 61.0747C0.969885 64.0396 6.76465 61.2055 8.10857 60.9151C22.8177 57.7368 37.4011 55.2728 52.351 53.4402C57.7975 52.7726 63.203 51.5212 68.6537 51.0461C71.2145 50.8229 73.4617 49.9343 75.9506 49.4234C78.0565 48.9912 80.1872 49.0058 82.2709 48.4126C85.6822 47.4414 89.3195 47.4592 92.5516 46.0185C93.3592 45.6585 92.9802 45.4984 92.1719 45.3003C87.8624 44.2437 83.4737 43.4514 79.1514 42.4273C71.4143 40.5941 63.7205 38.863 56.0401 36.7879C45.868 34.0396 36.489 28.4531 27.151 23.7267C24.2168 22.2416 20.9189 21.0716 18.118 19.444C16.7728 18.6622 15.2801 18.3029 13.8321 17.7415C13.3796 17.5661 12.403 16.4464 12.7471 16.7839C16.0848 20.057 18.2125 25.094 21.2647 28.7012C25.9665 34.2578 30.9447 39.8766 35.1803 45.7791C41.1531 54.1026 47.3148 62.2322 53.0563 70.6777C54.9823 73.5109 58.1561 78.8182 58.1561 78.8182C58.1561 78.8182 61.8181 84.3246 63.0386 86Z" stroke="white" stroke-width="6" stroke-linecap="round"/>
</svg>
