<svg width="63" height="56" viewBox="0 0 63 56" fill="none" xmlns="http://www.w3.org/2000/svg">
<path d="M46.6949 48.4011C45.5669 43.5891 42.9474 38.922 41.2876 34.2571C39.8015 30.0807 38.2564 25.8922 36.6261 21.7709C35.1997 18.1652 33.9548 14.2369 32.0445 10.8621C30.6704 8.43473 30.016 5.36148 28.5017 3.08157C28.2114 2.6445 28.137 4.08146 28.1022 4.60559C27.8448 8.48006 27.411 12.035 27.2759 15.9153C27.086 21.3726 25.7126 27.116 24.8786 32.5191C24.1177 37.4488 21.2826 47.98 21.2826 52.9731C21.2826 53.4133 24.9206 48.3166 25.1183 47.9197C26.0773 46.7167 27.4842 44.5509 29.1943 42.3851C32.0445 38.7756 35.066 35.5648 38.2776 32.3053C44.3489 26.1435 49.7939 19.6864 55.3253 13.0545C56.845 11.2326 58.6725 9.42705 59.9069 7.38626C60.7666 5.965 55.4016 8.44531 54.8459 8.66965C48.6059 11.1886 42.1302 12.9585 35.6405 14.7123C30.2754 16.1621 24.906 17.9348 19.7647 20.0597C17.2666 21.0922 14.704 21.625 12.1731 22.5195C10.8126 23.0004 9.10377 22.9555 7.8579 23.4821C6.32489 24.13 4.69379 24.1194 3.06321 24.3376C2.46577 24.4176 6.29172 26.5861 6.63259 26.744C9.31719 27.9877 11.8043 29.5077 14.5705 30.5941C19.5394 32.5458 24.7494 34.3576 29.1943 37.3319C32.106 39.2804 35.3098 41.3415 38.4374 42.8398C39.8963 43.5387 42.7635 45.3935 43.8181 46.7167C44.5546 47.6408 46.3347 48.1592 46.6949 48.8824" stroke="white" stroke-width="6" stroke-linecap="round"/>
</svg>
