<svg width="102" height="103" viewBox="0 0 102 103" fill="none" xmlns="http://www.w3.org/2000/svg">
<path d="M64.2852 96C63.1402 85.8788 61.6954 75.7692 60.0715 65.7142C58.4307 55.555 56.0078 45.5536 54.1937 35.4285C52.8561 27.9628 51.8079 20.4644 50.5705 12.9856C50.2552 11.0801 49.8728 9.18054 49.658 7.25949C49.5374 6.18144 49.576 5.08446 49.2017 4.05723C48.9148 3.26992 49.0372 2.30479 48.5441 3.73158C45.4282 12.7489 41.3321 21.4119 38.1172 30.408C35.1736 38.6448 32.3193 46.8491 29.7435 55.2119C26.839 64.6417 23.0458 73.63 19.5312 82.8246C18.188 86.3386 17.228 89.9341 16.0019 93.4762C15.9996 93.4828 15.5228 94.6228 15.9348 94.1818C17.296 92.7245 18.8069 91.4731 20.4572 90.3553C24.8202 87.4002 29.7961 85.3897 34.4403 82.9467C42.6794 78.6127 50.7147 74.0831 58.6356 69.1743C64.1656 65.7472 69.3526 61.8049 74.645 58.0207C79.4822 54.562 84.2561 51.0311 88.9233 47.342C91.4244 45.3651 93.9792 43.405 96.4114 41.3445C96.8734 40.9532 97.3355 40.61 97.8607 40.3133C98.6083 39.8909 96.1431 40.3522 95.2976 40.4897C87.4179 41.7712 79.5786 43.3579 71.6659 44.4247C63.3975 45.5394 55.0494 46.1734 46.7191 46.5414C34.6349 47.0752 22.5936 47.152 10.4999 47.152C8.2544 47.152 6.00887 47.152 3.76335 47.152C3.5218 47.152 2.83005 47.0289 3.0387 47.152C4.94513 48.2765 6.96908 49.1915 8.86275 50.3678C17.5703 55.7771 25.447 62.506 33.0178 69.405C37.4301 73.4257 41.589 77.6946 46.3031 81.3456C49.7451 84.0114 53.2195 86.6704 56.7434 89.2156L60.9033 92.8231C60.9033 92.8231 63.3188 95.2655 64.2852 96Z" stroke="white" stroke-width="6" stroke-linecap="round"/>
</svg>
