<svg width="152" height="98" viewBox="0 0 152 98" fill="none" xmlns="http://www.w3.org/2000/svg">
<path d="M4.03959 54.379V24.2256C4.03959 16.7493 7.76181 6.89083 15.0396 4.53719C19.5343 4.41273 17.9967 4.28798 22.484 4.28798C26.5909 4.28798 30.8889 4.67141 34.9285 3.90033C43.155 2.33002 52.1768 3.29115 60.5396 3.29115H89.5674C95.7431 3.29115 101.856 3.78957 108.04 3.78957C113.201 3.78957 118.186 3.7167 123.29 4.53719C125.514 4.89484 127.803 5.0648 130.04 5.31251C131.512 5.47556 132.837 6.4849 134.262 6.89083C136.862 7.63144 139.991 10.0816 141.928 11.875C147.294 16.842 148.54 23.6337 148.54 30.7041V56.8987C148.54 61.8154 149.152 67.2029 148.428 72.0728C147.599 77.6553 146.145 81.7989 142.484 86.2777C135.964 94.2538 124.37 93.0668 115.262 93.5324C94.388 94.5995 73.472 95 52.5396 95C42.7762 95 33.3307 93.752 23.9285 91.6218C17.6824 90.2068 10.8526 87.0153 7.76181 81.2935C3.34636 73.1193 4.03959 63.4141 4.03959 54.379Z" stroke="white" stroke-width="6" stroke-linecap="round"/>
<path d="M51.4558 28.1406C51.4558 30.7357 51.9421 32.9033 52.3101 35.4305C52.7302 38.3152 52.3784 41.487 52.3784 44.4066C52.3784 47.3925 52.686 50.348 52.686 53.3145C52.686 55.4186 52.2846 57.9766 52.7543 60.0253C53.0755 61.4258 53.6087 62.7973 53.6087 64.2493C53.6087 64.541 53.8097 66.0167 53.284 65.4927C52.4319 64.6432 51.7692 63.8727 50.9944 62.9378C48.719 60.1921 46.6799 57.2727 44.4503 54.5068C41.7593 51.1685 38.8903 47.7945 36.7101 44.1C35.0071 41.2139 33.7866 37.5358 31.4646 35.0558C30.7127 34.2527 29.7909 33.0535 29.3117 32.1262C29.1468 31.8071 28.6733 30.3208 28.2352 30.3208C27.9172 30.3208 28.0815 33.967 28.0815 34.2723C28.0815 37.9827 28.4596 41.5007 28.7137 45.173C29.1074 50.8643 30.3877 56.4818 30.5419 62.1714C30.6111 64.7219 30.5419 67.2839 30.5419 69.8359" stroke="white" stroke-width="6" stroke-linecap="round"/>
<path d="M69.9091 30.2867C67.9609 30.4081 67.2638 33.1476 66.7652 34.5788C65.53 38.125 65.9109 42.4422 65.9109 46.1609C65.9109 49.772 66.1995 52.8339 67.3803 56.2781C68.2655 58.86 69.8552 60.9117 71.1223 63.2273C72.2299 65.2515 76.3601 66.3505 78.5036 65.8163C80.3684 65.3516 82.3174 63.4061 83.903 62.3246C85.9644 60.9186 88.55 58.2485 89.5928 55.9715C90.7851 53.3679 91.9724 50.2183 92.0532 47.3191C92.1105 45.2626 92.4742 42.4373 91.7456 40.4721C89.8875 35.4601 87.332 31.2897 82.536 28.6005C80.5261 27.4735 77.4246 27.5977 75.1376 27.851C73.5417 28.0278 69.9091 29.1722 69.9091 30.8998" stroke="white" stroke-width="6" stroke-linecap="round"/>
<path d="M102.508 29.3672C102.732 30.5972 104.173 32.0072 104.797 33.1143C106.184 35.5711 107.127 38.1763 108.351 40.7108C111.119 46.4402 114.429 51.4241 117.851 56.7553C119.296 59.0047 120.635 61.2236 122.038 63.3979C122.538 64.1741 123.729 65.595 123.729 66.4638" stroke="white" stroke-width="6" stroke-linecap="round"/>
<path d="M99.4336 66.4614C99.8568 62.4537 103.865 58.7253 106.337 55.8673C110.103 51.5122 112.971 46.2527 116.281 41.56C117.647 39.6233 118.674 37.5392 119.869 35.4965C120.58 34.2816 121.269 31.8211 122.329 30.9148C123.27 30.1113 124.038 28.482 124.038 27.2188" stroke="white" stroke-width="6" stroke-linecap="round"/>
</svg>
