<svg width="129" height="98" viewBox="0 0 129 98" fill="none" xmlns="http://www.w3.org/2000/svg">
<path d="M51.0685 3.22497H75.9394C78.4329 3.22497 82.2879 3.68075 84.7174 3.68075C87.2186 3.68075 89.516 5.22354 91.4053 6.31417C92.8814 7.16628 93.7467 7.54327 95.0744 9.04887C96.2878 10.4248 97.1667 12.8063 97.5824 14.6196C98.0984 16.8701 99.2878 19.6441 99.3473 21.9121C99.4118 24.3755 99.8472 27.0426 100.415 29.4325C101.09 32.2696 101.583 35.4183 101.878 38.3203C102.136 40.8473 102.409 43.8303 102.9 46.2965C104.399 53.8116 104.781 61.5526 104.781 69.2123C104.781 75.2443 102.733 81.6643 98.8364 86.0763C94.3453 91.1618 88.3028 91.7358 82.1861 92.1281C73.8782 92.661 65.7005 94.0201 57.3617 94.4071C45.9029 94.9387 32.788 96.3855 22.0177 91.1659C16.2112 88.352 8.91564 82.2269 7.59673 75.0362C6.18866 67.3595 7.95628 58.9791 7.06262 51.1836C6.54963 46.7087 6.96973 41.9145 6.96973 37.4088C6.96973 32.4492 6.48923 27.1903 7.06262 22.2666C8.01184 14.1158 12.1707 6.03439 19.9277 4.38975C30.0637 2.24069 40.7843 3.22497 51.0685 3.22497Z" stroke="white" stroke-width="6" stroke-linecap="round"/>
<path d="M56.0415 69.0798C56.639 69.0798 57.2607 69.1298 57.8536 69.0553C58.366 68.9909 58.8625 68.7497 59.3799 68.7497C59.893 68.7497 60.7372 68.5593 61.1373 68.1995C62.2413 67.2064 62.1968 65.8271 62.4994 64.4583C62.9461 62.4378 62.9405 60.3371 63.2413 58.2963C63.4169 57.1044 63.7443 55.7325 64.3602 54.6712C65.039 53.5014 65.2357 52.1974 65.7831 50.9789C66.4659 49.4589 66.5493 47.6961 66.5493 46.0579C66.5493 44.3246 66.4103 42.8172 65.777 41.1858C65.2601 39.8541 64.3649 38.0809 63.2899 37.1084C62.5756 36.462 61.8341 35.845 61.0765 35.25C60.4216 34.7357 59.6269 34.5496 58.8874 34.1985C56.1479 32.8981 52.8997 32.3805 49.9667 33.1715C49.1333 33.3963 48.2525 33.8567 47.5283 34.3086C46.5723 34.9051 45.6294 35.7573 44.9013 36.6193C43.0492 38.8123 42.1406 41.6842 42.1406 44.5174C42.1406 46.5641 42.896 48.4909 43.6244 50.3737C43.9713 51.2705 44.5596 51.9913 45.0959 52.7701C45.529 53.399 45.8484 54.0682 46.1905 54.7752C46.6132 55.6487 46.8463 56.654 47.1269 57.5811C47.4121 58.5228 47.7577 59.4327 47.9965 60.3931C48.1549 61.0301 48.465 61.7396 48.4891 62.3921C48.5031 62.7725 48.6818 63.0754 48.708 63.4435C48.734 63.8101 48.7789 64.2672 48.8722 64.6233C49.0172 65.1773 49.0797 65.941 49.3404 66.4389C49.556 66.8508 49.9313 67.7195 50.3255 67.8938C50.592 68.0117 50.557 68.2808 50.8728 68.3951C51.0523 68.4601 51.322 68.5957 51.4991 68.6946C51.7214 68.8188 52.0716 68.7421 52.32 68.7497C52.5872 68.7578 52.8748 68.9261 53.147 68.9758C54.1068 69.1513 55.0594 69.4099 56.0415 69.4099" stroke="white" stroke-width="6" stroke-linecap="round"/>
<path d="M49.5859 77.0741C51.1228 77.5807 52.6043 77.9793 54.1626 78.3304C54.8011 78.4743 55.4401 78.3806 56.0869 78.4252C57.0978 78.4949 58.2782 78.6852 59.2676 78.3703C59.8989 78.1695 60.4661 77.951 61.0923 77.7721C61.7279 77.5905 62.1905 77.2778 62.7774 76.9844" stroke="white" stroke-width="6" stroke-linecap="round"/>
<path d="M53.6242 23.6148C53.6242 20.7401 52.9062 17.873 52.9062 15" stroke="white" stroke-width="6" stroke-linecap="round"/>
<path d="M68.5469 29.3587C68.5908 29.1325 68.8459 28.975 68.9887 28.8203C69.2406 28.5473 69.4633 28.2463 69.7158 27.9728C70.3858 27.2469 71.0108 26.4887 71.6394 25.7227C72.2391 24.9918 72.8194 24.2554 73.3697 23.4792C73.5761 23.1881 73.7899 22.9001 73.9833 22.5985C74.073 22.4585 74.1357 22.2354 74.2901 22.1797" stroke="white" stroke-width="6" stroke-linecap="round"/>
<path d="M37.2667 30.7892C36.5103 29.9482 35.8443 28.9444 35.0241 28.1695C34.4313 27.6096 33.8518 26.9618 33.3163 26.3433C32.9429 25.912 32.538 25.4957 32.1798 25.0523C31.9846 24.8107 31.6569 24.6047 31.5234 24.3281" stroke="white" stroke-width="6" stroke-linecap="round"/>
<path d="M75.2907 43.9193C75.587 43.9339 75.8505 43.9594 76.1349 43.8262C76.6042 43.6062 77.0966 43.6787 77.5796 43.583C78.617 43.3775 79.7376 43.5802 80.7852 43.5565C81.3958 43.5427 82.0237 43.3531 82.627 43.3829C83.0278 43.4026 83.3788 43.2403 83.7807 43.2601" stroke="white" stroke-width="6" stroke-linecap="round"/>
<path d="M33.4304 45.2631C32.667 45.3142 31.8853 45.0863 31.1199 45.145C30.2522 45.2115 29.3686 45.2127 28.4946 45.1954C27.7624 45.1809 27.019 45.2152 26.2935 45.2914C25.7901 45.3443 25.284 45.1268 24.7812 45.1797" stroke="white" stroke-width="6" stroke-linecap="round"/>
</svg>
