<svg width="293" height="324" viewBox="0 0 293 324" fill="none" xmlns="http://www.w3.org/2000/svg">
<path d="M210.678 149.572C209.285 125.942 214.657 109.44 195.869 91.8308C180.948 77.8463 158.134 77.7485 138.896 78.8672C117.237 80.1266 89.4861 83.7022 76.3209 103.916C64.9329 121.401 62.5163 143.9 63.723 164.371" stroke="white" stroke-width="6" stroke-linecap="round"/>
<path d="M132.639 78.0554C133.739 71.235 133.833 41.4181 133.424 34.4775" stroke="white" stroke-width="6" stroke-linecap="round"/>
<path d="M141.878 32.0399C142.838 48.3283 114.991 32.962 123.983 28.3599C124.015 27.023 124.187 25.6927 124.442 24.5354C125.309 20.6015 132.729 16.2173 136.344 18.8042C141.482 22.4804 141.52 25.9753 141.878 32.0399Z" fill="white"/>
<path d="M126.639 27.5271C110.675 30.4921 142.91 49.5438 141.878 32.0399C141.52 25.9753 141.482 22.4804 136.344 18.8042C132.729 16.2173 125.309 20.6015 124.442 24.5354C123.344 29.5181 123.782 37.7072 130.337 35.8305C136.138 34.1695 138.196 24.2763 130.775 25.1269C122.163 26.1141 131.532 37.958 130.839 26.203C130.496 20.3864 119.089 25.3011 128.897 29.5553" stroke="white" stroke-width="6" stroke-linecap="round"/>
<path d="M98.7728 251.244C90.2038 261.088 82.8215 276.386 75.2736 286.209C71.0862 293.206 65.4231 301.605 60.1674 311.532" stroke="white" stroke-width="6" stroke-linecap="round"/>
<path d="M143.09 249.289C144.079 266.062 152.39 282.515 153.406 299.744" stroke="white" stroke-width="6" stroke-linecap="round"/>
<path d="M199.184 247.922C214.225 262.885 222.066 284.097 232.047 301.542" stroke="white" stroke-width="6" stroke-linecap="round"/>
<path d="M152.982 149.995C142.614 150.598 132.928 151.161 122.135 151.789C101.143 153.009 80.1043 158.959 60.1722 166.128C38.6554 173.866 12.4407 193.917 26.2571 221.778C40.7831 251.071 77.7821 252.182 104.251 250.643C135.711 248.814 168.517 249.292 200.556 247.429C222.629 246.145 249.311 249.77 264.614 229.389C276.581 213.452 277.65 200.588 272.281 180.036C266.913 159.485 227.474 151.964 210.15 149.488C198.361 147.803 191.364 147.763 177.041 148.596C162.24 149.457 143.875 150.524 129.533 151.358" stroke="white" stroke-width="6" stroke-linecap="round"/>
<path d="M128.176 197.726C129.217 192.261 129.062 189.005 133.984 183.42C135.218 182.02 137.248 180.924 139.072 180.344C140.953 179.746 143.284 179.015 144.738 178.931C149.425 178.658 151.17 178.406 155.796 179.372C171.617 182.673 179.803 200.166 170.05 213.177C167.206 216.971 163.048 221.07 158.346 222.638C153.905 224.12 149.209 224.143 144.512 224.31C138.301 224.53 131.272 218.794 129.21 213.384C127.34 208.475 127.205 202.825 128.176 197.726Z" stroke="white" stroke-width="6" stroke-linecap="round"/>
<path d="M56.7466 205.936C56.3767 198.332 58.5118 191.059 64.9442 187.313C71.3404 183.588 78.5025 181.841 86.2084 183.023C97.3239 184.727 102.257 198.519 100.186 208.427C98.9378 214.396 91.6534 220.809 86.0829 222.508C82.2577 223.674 78.4154 223.103 74.5085 223.268C71.0976 223.412 67.1553 222.435 64.0842 220.908C58.1694 217.966 57.0496 212.165 56.7466 205.936Z" stroke="white" stroke-width="6" stroke-linecap="round"/>
<path d="M202.842 185.404C204.949 181.646 208.966 178.251 212.735 176.867C217.985 174.941 222.289 175.533 228.285 176.011C230.103 176.155 232.182 176.893 233.949 177.519L234.036 177.55C235.725 178.148 236.991 179.329 238.411 180.463C240.077 181.793 240.932 183.252 241.914 185.188C243.422 188.162 244.485 192.066 244.838 195.431C245.249 199.353 245.161 203.951 243.854 207.634C242.552 211.307 239.565 213.853 236.682 215.93C233.191 218.443 229.515 220.408 225.278 220.681C221.073 220.952 216.317 220.604 212.285 219.046C204.988 216.225 200.632 208.062 200.1 199.718C199.788 194.816 200.493 189.594 202.842 185.404Z" stroke="white" stroke-width="6" stroke-linecap="round"/>
</svg>
