<svg width="424" height="478" viewBox="0 0 424 478" fill="none" xmlns="http://www.w3.org/2000/svg">
<path d="M307.209 218.994C306.196 183.723 315.078 160.418 287.989 133.334C266.476 111.824 232.633 110.648 204.041 111.447C171.851 112.346 130.52 116.421 110.087 145.945C92.4115 171.483 87.8233 204.896 88.701 235.452" stroke="white" stroke-width="6" stroke-linecap="round"/>
<path d="M194.793 109.956C196.73 99.8859 198.205 55.6533 197.908 45.3378" stroke="white" stroke-width="6" stroke-linecap="round"/>
<path d="M210.558 42.1026C211.254 66.3111 170.628 42.2671 184.174 35.8419C184.281 33.8598 184.596 31.8939 185.027 30.1883C186.489 24.3908 197.693 18.2183 202.941 22.2181C210.4 27.9022 210.3 33.089 210.558 42.1026Z" fill="white"/>
<path d="M188.151 34.7251C164.334 38.4096 211.306 68.1178 210.558 42.1026C210.3 33.089 210.4 27.9022 202.941 22.2181C197.693 18.2183 186.489 24.3908 185.027 30.1883C183.174 37.5316 183.457 49.7006 193.266 47.2097C201.948 45.0052 205.444 30.4196 194.396 31.3494C181.574 32.4284 194.944 50.4196 194.442 32.9488C194.194 24.3038 177.051 31.0847 191.412 37.8354" stroke="white" stroke-width="6" stroke-linecap="round"/>
<path d="M136.795 365.396C123.641 379.618 112.004 401.983 100.366 416.219C93.8405 426.413 85.0628 438.619 76.821 453.113" stroke="white" stroke-width="6" stroke-linecap="round"/>
<path d="M202.641 364.664C203.476 393.736 215.19 422.687 216.048 452.548" stroke="white" stroke-width="6" stroke-linecap="round"/>
<path d="M285.918 365.031C307.028 390.197 317.521 425.14 331.242 454.069" stroke="white" stroke-width="6" stroke-linecap="round"/>
<path d="M221.755 217.599C206.345 218.029 191.95 218.431 175.908 218.879C144.709 219.751 113.23 227.636 83.3381 237.379C51.0691 247.897 11.2791 276.472 30.5302 318.426C50.7701 362.534 105.613 365.839 144.951 364.741C191.708 363.435 240.358 365.612 287.974 364.282C320.78 363.366 360.204 369.937 383.819 340.386C402.288 317.276 404.448 298.239 397.404 267.508C390.359 236.778 332.184 223.854 306.592 219.405C289.177 216.378 278.798 216.005 257.511 216.6C235.514 217.215 208.22 217.977 186.904 218.572" stroke="white" stroke-width="6" stroke-linecap="round"/>
<path d="M182.816 287.277C184.605 279.217 184.52 274.378 192.073 266.313C193.967 264.291 197.027 262.756 199.76 261.977C202.577 261.174 206.068 260.194 208.229 260.134C215.195 259.939 217.795 259.644 224.615 261.283C247.939 266.889 259.302 293.209 244.249 312.075C239.86 317.576 233.508 323.471 226.462 325.588C219.807 327.587 212.839 327.412 205.862 327.449C196.639 327.498 186.466 318.673 183.65 310.554C181.094 303.187 181.147 294.799 182.816 287.277Z" stroke="white" stroke-width="6" stroke-linecap="round"/>
<path d="M76.4718 296.257C76.2634 284.959 79.7566 274.264 89.4675 268.994C99.1237 263.754 109.828 261.483 121.207 263.581C137.622 266.607 144.324 287.289 140.807 301.896C138.689 310.696 127.594 319.885 119.254 322.155C113.526 323.714 107.852 322.695 102.048 322.765C96.9809 322.827 91.1759 321.201 86.6878 318.797C78.0441 314.169 76.6425 305.512 76.4718 296.257Z" stroke="white" stroke-width="6" stroke-linecap="round"/>
<path d="M294.143 272.339C297.437 266.858 303.549 262.001 309.203 260.116C317.077 257.493 323.436 258.564 332.31 259.542C335.001 259.838 338.054 261.025 340.647 262.033L340.775 262.083C343.254 263.046 345.079 264.855 347.135 266.601C349.547 268.649 350.751 270.851 352.121 273.768C354.224 278.247 355.627 284.087 355.999 289.095C356.434 294.932 356.098 301.75 353.995 307.156C351.897 312.546 347.353 316.19 342.982 319.142C337.69 322.715 332.148 325.466 325.85 325.681C319.599 325.895 312.559 325.166 306.646 322.673C295.947 318.162 289.849 305.857 289.434 293.453C289.19 286.167 290.471 278.45 294.143 272.339Z" stroke="white" stroke-width="6" stroke-linecap="round"/>
</svg>
