<svg width="1130" height="1125" viewBox="0 0 1130 1125" fill="none" xmlns="http://www.w3.org/2000/svg">
<path d="M2.99998 628.998C25 808.993 145.815 984.393 272.786 1045C488 1147.72 700 1161 923.68 1000.25C1085.68 875.499 1126.16 695.86 1126.16 506.759C1126.16 348.648 1030.29 198.065 893.001 95.9937C860.543 76.3723 831.497 62.3087 800.257 48.184C758.624 29.3602 711.494 22.9754 669.257 12.8481C560.097 -13.3248 384.511 15.2124 290.296 71.2755C268.569 84.2044 101.088 220.655 110.171 252.667M110.171 252.667C119.253 284.679 233.467 257.643 272.786 257.643C342.965 257.643 117.939 282.22 110.171 252.667ZM110.171 252.667C113.202 153.608 112.784 167.269 124.5 60.1841" stroke="white" stroke-width="6" stroke-linecap="round"/>
</svg>
